M48
; DRILL file {KiCad (5.1.4)-1} date 15/02/2020 22:34:18
; FORMAT={-:-/ absolute / inch / decimal}
; #@! TF.CreationDate,2020-02-15T22:34:18+00:00
; #@! TF.GenerationSoftware,Kicad,Pcbnew,(5.1.4)-1
; #@! TF.FileFunction,Plated,1,2,PTH
FMAT,2
INCH
T1C0.0157
T2C0.0256
T3C0.0276
T4C0.0295
T5C0.0394
%
G90
G05
T1
X4.1535Y-3.189
X4.39Y-3.74
X4.39Y-4.19
X4.5669Y-2.9921
X4.6654Y-3.0906
X4.67Y-3.51
X4.685Y-3.7992
X4.6972Y-3.5555
X4.75Y-4.19
X4.775Y-2.9921
X4.7862Y-3.5472
X4.8031Y-3.3465
X4.8398Y-3.2302
X4.8425Y-3.6024
X4.8628Y-3.339
X4.8819Y-3.6309
X4.9518Y-3.5433
X4.9803Y-3.3268
X5.0984Y-3.0906
X5.1575Y-2.9921
X5.1969Y-3.2677
X5.21Y-3.85
X5.2165Y-3.6417
X5.2165Y-3.7008
X5.5118Y-3.7008
X5.6Y-3.48
X5.6Y-3.54
X5.6Y-3.6
X5.6102Y-3.3268
X5.6126Y-3.3685
X5.66Y-3.48
X5.66Y-3.54
X5.66Y-3.6
X5.72Y-3.48
X5.72Y-3.54
X5.72Y-3.6
X5.85Y-3.06
X5.8661Y-3.7402
X6.05Y-3.85
X6.075Y-2.95
X6.2Y-3.95
X6.2992Y-3.1299
X6.2992Y-3.189
X6.35Y-3.0
X6.35Y-3.45
X6.5Y-3.225
X6.5Y-3.275
T4
X6.5Y-3.725
X6.5Y-3.775
X6.5Y-3.825
T5
X4.65Y-2.8248
X4.75Y-2.8248
X4.85Y-2.8248
X4.95Y-2.8248
X5.05Y-2.8248
X5.15Y-2.8248
X5.25Y-2.8248
X5.35Y-2.8248
X6.2008Y-2.8248
X6.3008Y-2.8248
X6.4008Y-2.8248
X5.6496Y-2.8248
X5.7496Y-2.8248
X5.8496Y-2.8248
T2
G00X4.2703Y-3.3537
M15
G01X4.2861Y-3.3537
M16
G05
G00X4.2703Y-3.5443
M15
G01X4.2861Y-3.5443
M16
G05
T3
G00X4.1503Y-3.3415
M15
G01X4.1699Y-3.3415
M16
G05
G00X4.1503Y-3.5565
M15
G01X4.1699Y-3.5565
M16
G05
T0
M30
