M48
; DRILL file {KiCad (5.1.5)-3} date 17/02/2020 19:47:59
; FORMAT={-:-/ absolute / inch / decimal}
; #@! TF.CreationDate,2020-02-17T19:47:59+00:00
; #@! TF.GenerationSoftware,Kicad,Pcbnew,(5.1.5)-3
; #@! TF.FileFunction,Plated,1,2,PTH
FMAT,2
INCH
T1C0.0157
T2C0.0256
T3C0.0276
T4C0.0295
T5C0.0394
T6C0.0472
%
G90
G05
T1
X6.6929Y-3.4843
X6.7224Y-4.3012
X6.8701Y-3.9173
X7.0079Y-3.3071
X7.0079Y-3.5039
X7.1457Y-3.3071
X7.1457Y-3.622
X7.1457Y-3.6811
X7.1457Y-3.8189
X7.2835Y-3.6811
X7.2835Y-3.7992
X7.3425Y-3.7402
X7.4016Y-3.6811
X7.4016Y-3.7992
X7.4114Y-4.3012
X7.4409Y-3.189
T4
X7.026Y-4.2126
X7.076Y-4.2126
X7.126Y-4.2126
T5
X7.3031Y-3.2055
X7.3031Y-3.3055
X7.3031Y-3.4055
T6
X7.0472Y-3.6614
T2
G00X6.6363Y-3.6242
M15
G01X6.6521Y-3.6242
M16
G05
G00X6.6363Y-3.8148
M15
G01X6.6521Y-3.8148
M16
G05
T3
G00X6.5163Y-3.612
M15
G01X6.5359Y-3.612
M16
G05
G00X6.5163Y-3.827
M15
G01X6.5359Y-3.827
M16
G05
T0
M30
