G04 #@! TF.GenerationSoftware,KiCad,Pcbnew,(5.1.5)-3*
G04 #@! TF.CreationDate,2020-02-17T19:47:56+00:00*
G04 #@! TF.ProjectId,Pico-Telemetry,5069636f-2d54-4656-9c65-6d657472792e,rev?*
G04 #@! TF.SameCoordinates,Original*
G04 #@! TF.FileFunction,Paste,Top*
G04 #@! TF.FilePolarity,Positive*
%FSLAX46Y46*%
G04 Gerber Fmt 4.6, Leading zero omitted, Abs format (unit mm)*
G04 Created by KiCad (PCBNEW (5.1.5)-3) date 2020-02-17 19:47:56*
%MOMM*%
%LPD*%
G04 APERTURE LIST*
%ADD10R,3.800000X2.000000*%
%ADD11R,1.500000X2.000000*%
%ADD12C,0.100000*%
%ADD13R,2.000000X1.350000*%
%ADD14R,0.700000X1.825000*%
%ADD15R,1.650000X0.400000*%
%ADD16R,2.500000X1.430000*%
%ADD17R,1.550000X1.300000*%
G04 APERTURE END LIST*
D10*
X172500000Y-80350000D03*
D11*
X172500000Y-86650000D03*
X174800000Y-86650000D03*
X170200000Y-86650000D03*
D12*
G36*
X184829504Y-92486204D02*
G01*
X184853773Y-92489804D01*
X184877571Y-92495765D01*
X184900671Y-92504030D01*
X184922849Y-92514520D01*
X184943893Y-92527133D01*
X184963598Y-92541747D01*
X184981777Y-92558223D01*
X184998253Y-92576402D01*
X185012867Y-92596107D01*
X185025480Y-92617151D01*
X185035970Y-92639329D01*
X185044235Y-92662429D01*
X185050196Y-92686227D01*
X185053796Y-92710496D01*
X185055000Y-92735000D01*
X185055000Y-93305000D01*
X185053796Y-93329504D01*
X185050196Y-93353773D01*
X185044235Y-93377571D01*
X185035970Y-93400671D01*
X185025480Y-93422849D01*
X185012867Y-93443893D01*
X184998253Y-93463598D01*
X184981777Y-93481777D01*
X184963598Y-93498253D01*
X184943893Y-93512867D01*
X184922849Y-93525480D01*
X184900671Y-93535970D01*
X184877571Y-93544235D01*
X184853773Y-93550196D01*
X184829504Y-93553796D01*
X184805000Y-93555000D01*
X184235000Y-93555000D01*
X184210496Y-93553796D01*
X184186227Y-93550196D01*
X184162429Y-93544235D01*
X184139329Y-93535970D01*
X184117151Y-93525480D01*
X184096107Y-93512867D01*
X184076402Y-93498253D01*
X184058223Y-93481777D01*
X184041747Y-93463598D01*
X184027133Y-93443893D01*
X184014520Y-93422849D01*
X184004030Y-93400671D01*
X183995765Y-93377571D01*
X183989804Y-93353773D01*
X183986204Y-93329504D01*
X183985000Y-93305000D01*
X183985000Y-92735000D01*
X183986204Y-92710496D01*
X183989804Y-92686227D01*
X183995765Y-92662429D01*
X184004030Y-92639329D01*
X184014520Y-92617151D01*
X184027133Y-92596107D01*
X184041747Y-92576402D01*
X184058223Y-92558223D01*
X184076402Y-92541747D01*
X184096107Y-92527133D01*
X184117151Y-92514520D01*
X184139329Y-92504030D01*
X184162429Y-92495765D01*
X184186227Y-92489804D01*
X184210496Y-92486204D01*
X184235000Y-92485000D01*
X184805000Y-92485000D01*
X184829504Y-92486204D01*
G37*
G36*
X184829504Y-93806204D02*
G01*
X184853773Y-93809804D01*
X184877571Y-93815765D01*
X184900671Y-93824030D01*
X184922849Y-93834520D01*
X184943893Y-93847133D01*
X184963598Y-93861747D01*
X184981777Y-93878223D01*
X184998253Y-93896402D01*
X185012867Y-93916107D01*
X185025480Y-93937151D01*
X185035970Y-93959329D01*
X185044235Y-93982429D01*
X185050196Y-94006227D01*
X185053796Y-94030496D01*
X185055000Y-94055000D01*
X185055000Y-94625000D01*
X185053796Y-94649504D01*
X185050196Y-94673773D01*
X185044235Y-94697571D01*
X185035970Y-94720671D01*
X185025480Y-94742849D01*
X185012867Y-94763893D01*
X184998253Y-94783598D01*
X184981777Y-94801777D01*
X184963598Y-94818253D01*
X184943893Y-94832867D01*
X184922849Y-94845480D01*
X184900671Y-94855970D01*
X184877571Y-94864235D01*
X184853773Y-94870196D01*
X184829504Y-94873796D01*
X184805000Y-94875000D01*
X184235000Y-94875000D01*
X184210496Y-94873796D01*
X184186227Y-94870196D01*
X184162429Y-94864235D01*
X184139329Y-94855970D01*
X184117151Y-94845480D01*
X184096107Y-94832867D01*
X184076402Y-94818253D01*
X184058223Y-94801777D01*
X184041747Y-94783598D01*
X184027133Y-94763893D01*
X184014520Y-94742849D01*
X184004030Y-94720671D01*
X183995765Y-94697571D01*
X183989804Y-94673773D01*
X183986204Y-94649504D01*
X183985000Y-94625000D01*
X183985000Y-94055000D01*
X183986204Y-94030496D01*
X183989804Y-94006227D01*
X183995765Y-93982429D01*
X184004030Y-93959329D01*
X184014520Y-93937151D01*
X184027133Y-93916107D01*
X184041747Y-93896402D01*
X184058223Y-93878223D01*
X184076402Y-93861747D01*
X184096107Y-93847133D01*
X184117151Y-93834520D01*
X184139329Y-93824030D01*
X184162429Y-93815765D01*
X184186227Y-93809804D01*
X184210496Y-93806204D01*
X184235000Y-93805000D01*
X184805000Y-93805000D01*
X184829504Y-93806204D01*
G37*
G36*
X184829504Y-95126204D02*
G01*
X184853773Y-95129804D01*
X184877571Y-95135765D01*
X184900671Y-95144030D01*
X184922849Y-95154520D01*
X184943893Y-95167133D01*
X184963598Y-95181747D01*
X184981777Y-95198223D01*
X184998253Y-95216402D01*
X185012867Y-95236107D01*
X185025480Y-95257151D01*
X185035970Y-95279329D01*
X185044235Y-95302429D01*
X185050196Y-95326227D01*
X185053796Y-95350496D01*
X185055000Y-95375000D01*
X185055000Y-95945000D01*
X185053796Y-95969504D01*
X185050196Y-95993773D01*
X185044235Y-96017571D01*
X185035970Y-96040671D01*
X185025480Y-96062849D01*
X185012867Y-96083893D01*
X184998253Y-96103598D01*
X184981777Y-96121777D01*
X184963598Y-96138253D01*
X184943893Y-96152867D01*
X184922849Y-96165480D01*
X184900671Y-96175970D01*
X184877571Y-96184235D01*
X184853773Y-96190196D01*
X184829504Y-96193796D01*
X184805000Y-96195000D01*
X184235000Y-96195000D01*
X184210496Y-96193796D01*
X184186227Y-96190196D01*
X184162429Y-96184235D01*
X184139329Y-96175970D01*
X184117151Y-96165480D01*
X184096107Y-96152867D01*
X184076402Y-96138253D01*
X184058223Y-96121777D01*
X184041747Y-96103598D01*
X184027133Y-96083893D01*
X184014520Y-96062849D01*
X184004030Y-96040671D01*
X183995765Y-96017571D01*
X183989804Y-95993773D01*
X183986204Y-95969504D01*
X183985000Y-95945000D01*
X183985000Y-95375000D01*
X183986204Y-95350496D01*
X183989804Y-95326227D01*
X183995765Y-95302429D01*
X184004030Y-95279329D01*
X184014520Y-95257151D01*
X184027133Y-95236107D01*
X184041747Y-95216402D01*
X184058223Y-95198223D01*
X184076402Y-95181747D01*
X184096107Y-95167133D01*
X184117151Y-95154520D01*
X184139329Y-95144030D01*
X184162429Y-95135765D01*
X184186227Y-95129804D01*
X184210496Y-95126204D01*
X184235000Y-95125000D01*
X184805000Y-95125000D01*
X184829504Y-95126204D01*
G37*
G36*
X184829504Y-96446204D02*
G01*
X184853773Y-96449804D01*
X184877571Y-96455765D01*
X184900671Y-96464030D01*
X184922849Y-96474520D01*
X184943893Y-96487133D01*
X184963598Y-96501747D01*
X184981777Y-96518223D01*
X184998253Y-96536402D01*
X185012867Y-96556107D01*
X185025480Y-96577151D01*
X185035970Y-96599329D01*
X185044235Y-96622429D01*
X185050196Y-96646227D01*
X185053796Y-96670496D01*
X185055000Y-96695000D01*
X185055000Y-97265000D01*
X185053796Y-97289504D01*
X185050196Y-97313773D01*
X185044235Y-97337571D01*
X185035970Y-97360671D01*
X185025480Y-97382849D01*
X185012867Y-97403893D01*
X184998253Y-97423598D01*
X184981777Y-97441777D01*
X184963598Y-97458253D01*
X184943893Y-97472867D01*
X184922849Y-97485480D01*
X184900671Y-97495970D01*
X184877571Y-97504235D01*
X184853773Y-97510196D01*
X184829504Y-97513796D01*
X184805000Y-97515000D01*
X184235000Y-97515000D01*
X184210496Y-97513796D01*
X184186227Y-97510196D01*
X184162429Y-97504235D01*
X184139329Y-97495970D01*
X184117151Y-97485480D01*
X184096107Y-97472867D01*
X184076402Y-97458253D01*
X184058223Y-97441777D01*
X184041747Y-97423598D01*
X184027133Y-97403893D01*
X184014520Y-97382849D01*
X184004030Y-97360671D01*
X183995765Y-97337571D01*
X183989804Y-97313773D01*
X183986204Y-97289504D01*
X183985000Y-97265000D01*
X183985000Y-96695000D01*
X183986204Y-96670496D01*
X183989804Y-96646227D01*
X183995765Y-96622429D01*
X184004030Y-96599329D01*
X184014520Y-96577151D01*
X184027133Y-96556107D01*
X184041747Y-96536402D01*
X184058223Y-96518223D01*
X184076402Y-96501747D01*
X184096107Y-96487133D01*
X184117151Y-96474520D01*
X184139329Y-96464030D01*
X184162429Y-96455765D01*
X184186227Y-96449804D01*
X184210496Y-96446204D01*
X184235000Y-96445000D01*
X184805000Y-96445000D01*
X184829504Y-96446204D01*
G37*
G36*
X186149504Y-92486204D02*
G01*
X186173773Y-92489804D01*
X186197571Y-92495765D01*
X186220671Y-92504030D01*
X186242849Y-92514520D01*
X186263893Y-92527133D01*
X186283598Y-92541747D01*
X186301777Y-92558223D01*
X186318253Y-92576402D01*
X186332867Y-92596107D01*
X186345480Y-92617151D01*
X186355970Y-92639329D01*
X186364235Y-92662429D01*
X186370196Y-92686227D01*
X186373796Y-92710496D01*
X186375000Y-92735000D01*
X186375000Y-93305000D01*
X186373796Y-93329504D01*
X186370196Y-93353773D01*
X186364235Y-93377571D01*
X186355970Y-93400671D01*
X186345480Y-93422849D01*
X186332867Y-93443893D01*
X186318253Y-93463598D01*
X186301777Y-93481777D01*
X186283598Y-93498253D01*
X186263893Y-93512867D01*
X186242849Y-93525480D01*
X186220671Y-93535970D01*
X186197571Y-93544235D01*
X186173773Y-93550196D01*
X186149504Y-93553796D01*
X186125000Y-93555000D01*
X185555000Y-93555000D01*
X185530496Y-93553796D01*
X185506227Y-93550196D01*
X185482429Y-93544235D01*
X185459329Y-93535970D01*
X185437151Y-93525480D01*
X185416107Y-93512867D01*
X185396402Y-93498253D01*
X185378223Y-93481777D01*
X185361747Y-93463598D01*
X185347133Y-93443893D01*
X185334520Y-93422849D01*
X185324030Y-93400671D01*
X185315765Y-93377571D01*
X185309804Y-93353773D01*
X185306204Y-93329504D01*
X185305000Y-93305000D01*
X185305000Y-92735000D01*
X185306204Y-92710496D01*
X185309804Y-92686227D01*
X185315765Y-92662429D01*
X185324030Y-92639329D01*
X185334520Y-92617151D01*
X185347133Y-92596107D01*
X185361747Y-92576402D01*
X185378223Y-92558223D01*
X185396402Y-92541747D01*
X185416107Y-92527133D01*
X185437151Y-92514520D01*
X185459329Y-92504030D01*
X185482429Y-92495765D01*
X185506227Y-92489804D01*
X185530496Y-92486204D01*
X185555000Y-92485000D01*
X186125000Y-92485000D01*
X186149504Y-92486204D01*
G37*
G36*
X186149504Y-93806204D02*
G01*
X186173773Y-93809804D01*
X186197571Y-93815765D01*
X186220671Y-93824030D01*
X186242849Y-93834520D01*
X186263893Y-93847133D01*
X186283598Y-93861747D01*
X186301777Y-93878223D01*
X186318253Y-93896402D01*
X186332867Y-93916107D01*
X186345480Y-93937151D01*
X186355970Y-93959329D01*
X186364235Y-93982429D01*
X186370196Y-94006227D01*
X186373796Y-94030496D01*
X186375000Y-94055000D01*
X186375000Y-94625000D01*
X186373796Y-94649504D01*
X186370196Y-94673773D01*
X186364235Y-94697571D01*
X186355970Y-94720671D01*
X186345480Y-94742849D01*
X186332867Y-94763893D01*
X186318253Y-94783598D01*
X186301777Y-94801777D01*
X186283598Y-94818253D01*
X186263893Y-94832867D01*
X186242849Y-94845480D01*
X186220671Y-94855970D01*
X186197571Y-94864235D01*
X186173773Y-94870196D01*
X186149504Y-94873796D01*
X186125000Y-94875000D01*
X185555000Y-94875000D01*
X185530496Y-94873796D01*
X185506227Y-94870196D01*
X185482429Y-94864235D01*
X185459329Y-94855970D01*
X185437151Y-94845480D01*
X185416107Y-94832867D01*
X185396402Y-94818253D01*
X185378223Y-94801777D01*
X185361747Y-94783598D01*
X185347133Y-94763893D01*
X185334520Y-94742849D01*
X185324030Y-94720671D01*
X185315765Y-94697571D01*
X185309804Y-94673773D01*
X185306204Y-94649504D01*
X185305000Y-94625000D01*
X185305000Y-94055000D01*
X185306204Y-94030496D01*
X185309804Y-94006227D01*
X185315765Y-93982429D01*
X185324030Y-93959329D01*
X185334520Y-93937151D01*
X185347133Y-93916107D01*
X185361747Y-93896402D01*
X185378223Y-93878223D01*
X185396402Y-93861747D01*
X185416107Y-93847133D01*
X185437151Y-93834520D01*
X185459329Y-93824030D01*
X185482429Y-93815765D01*
X185506227Y-93809804D01*
X185530496Y-93806204D01*
X185555000Y-93805000D01*
X186125000Y-93805000D01*
X186149504Y-93806204D01*
G37*
G36*
X186149504Y-95126204D02*
G01*
X186173773Y-95129804D01*
X186197571Y-95135765D01*
X186220671Y-95144030D01*
X186242849Y-95154520D01*
X186263893Y-95167133D01*
X186283598Y-95181747D01*
X186301777Y-95198223D01*
X186318253Y-95216402D01*
X186332867Y-95236107D01*
X186345480Y-95257151D01*
X186355970Y-95279329D01*
X186364235Y-95302429D01*
X186370196Y-95326227D01*
X186373796Y-95350496D01*
X186375000Y-95375000D01*
X186375000Y-95945000D01*
X186373796Y-95969504D01*
X186370196Y-95993773D01*
X186364235Y-96017571D01*
X186355970Y-96040671D01*
X186345480Y-96062849D01*
X186332867Y-96083893D01*
X186318253Y-96103598D01*
X186301777Y-96121777D01*
X186283598Y-96138253D01*
X186263893Y-96152867D01*
X186242849Y-96165480D01*
X186220671Y-96175970D01*
X186197571Y-96184235D01*
X186173773Y-96190196D01*
X186149504Y-96193796D01*
X186125000Y-96195000D01*
X185555000Y-96195000D01*
X185530496Y-96193796D01*
X185506227Y-96190196D01*
X185482429Y-96184235D01*
X185459329Y-96175970D01*
X185437151Y-96165480D01*
X185416107Y-96152867D01*
X185396402Y-96138253D01*
X185378223Y-96121777D01*
X185361747Y-96103598D01*
X185347133Y-96083893D01*
X185334520Y-96062849D01*
X185324030Y-96040671D01*
X185315765Y-96017571D01*
X185309804Y-95993773D01*
X185306204Y-95969504D01*
X185305000Y-95945000D01*
X185305000Y-95375000D01*
X185306204Y-95350496D01*
X185309804Y-95326227D01*
X185315765Y-95302429D01*
X185324030Y-95279329D01*
X185334520Y-95257151D01*
X185347133Y-95236107D01*
X185361747Y-95216402D01*
X185378223Y-95198223D01*
X185396402Y-95181747D01*
X185416107Y-95167133D01*
X185437151Y-95154520D01*
X185459329Y-95144030D01*
X185482429Y-95135765D01*
X185506227Y-95129804D01*
X185530496Y-95126204D01*
X185555000Y-95125000D01*
X186125000Y-95125000D01*
X186149504Y-95126204D01*
G37*
G36*
X186149504Y-96446204D02*
G01*
X186173773Y-96449804D01*
X186197571Y-96455765D01*
X186220671Y-96464030D01*
X186242849Y-96474520D01*
X186263893Y-96487133D01*
X186283598Y-96501747D01*
X186301777Y-96518223D01*
X186318253Y-96536402D01*
X186332867Y-96556107D01*
X186345480Y-96577151D01*
X186355970Y-96599329D01*
X186364235Y-96622429D01*
X186370196Y-96646227D01*
X186373796Y-96670496D01*
X186375000Y-96695000D01*
X186375000Y-97265000D01*
X186373796Y-97289504D01*
X186370196Y-97313773D01*
X186364235Y-97337571D01*
X186355970Y-97360671D01*
X186345480Y-97382849D01*
X186332867Y-97403893D01*
X186318253Y-97423598D01*
X186301777Y-97441777D01*
X186283598Y-97458253D01*
X186263893Y-97472867D01*
X186242849Y-97485480D01*
X186220671Y-97495970D01*
X186197571Y-97504235D01*
X186173773Y-97510196D01*
X186149504Y-97513796D01*
X186125000Y-97515000D01*
X185555000Y-97515000D01*
X185530496Y-97513796D01*
X185506227Y-97510196D01*
X185482429Y-97504235D01*
X185459329Y-97495970D01*
X185437151Y-97485480D01*
X185416107Y-97472867D01*
X185396402Y-97458253D01*
X185378223Y-97441777D01*
X185361747Y-97423598D01*
X185347133Y-97403893D01*
X185334520Y-97382849D01*
X185324030Y-97360671D01*
X185315765Y-97337571D01*
X185309804Y-97313773D01*
X185306204Y-97289504D01*
X185305000Y-97265000D01*
X185305000Y-96695000D01*
X185306204Y-96670496D01*
X185309804Y-96646227D01*
X185315765Y-96622429D01*
X185324030Y-96599329D01*
X185334520Y-96577151D01*
X185347133Y-96556107D01*
X185361747Y-96536402D01*
X185378223Y-96518223D01*
X185396402Y-96501747D01*
X185416107Y-96487133D01*
X185437151Y-96474520D01*
X185459329Y-96464030D01*
X185482429Y-96455765D01*
X185506227Y-96449804D01*
X185530496Y-96446204D01*
X185555000Y-96445000D01*
X186125000Y-96445000D01*
X186149504Y-96446204D01*
G37*
G36*
X187469504Y-92486204D02*
G01*
X187493773Y-92489804D01*
X187517571Y-92495765D01*
X187540671Y-92504030D01*
X187562849Y-92514520D01*
X187583893Y-92527133D01*
X187603598Y-92541747D01*
X187621777Y-92558223D01*
X187638253Y-92576402D01*
X187652867Y-92596107D01*
X187665480Y-92617151D01*
X187675970Y-92639329D01*
X187684235Y-92662429D01*
X187690196Y-92686227D01*
X187693796Y-92710496D01*
X187695000Y-92735000D01*
X187695000Y-93305000D01*
X187693796Y-93329504D01*
X187690196Y-93353773D01*
X187684235Y-93377571D01*
X187675970Y-93400671D01*
X187665480Y-93422849D01*
X187652867Y-93443893D01*
X187638253Y-93463598D01*
X187621777Y-93481777D01*
X187603598Y-93498253D01*
X187583893Y-93512867D01*
X187562849Y-93525480D01*
X187540671Y-93535970D01*
X187517571Y-93544235D01*
X187493773Y-93550196D01*
X187469504Y-93553796D01*
X187445000Y-93555000D01*
X186875000Y-93555000D01*
X186850496Y-93553796D01*
X186826227Y-93550196D01*
X186802429Y-93544235D01*
X186779329Y-93535970D01*
X186757151Y-93525480D01*
X186736107Y-93512867D01*
X186716402Y-93498253D01*
X186698223Y-93481777D01*
X186681747Y-93463598D01*
X186667133Y-93443893D01*
X186654520Y-93422849D01*
X186644030Y-93400671D01*
X186635765Y-93377571D01*
X186629804Y-93353773D01*
X186626204Y-93329504D01*
X186625000Y-93305000D01*
X186625000Y-92735000D01*
X186626204Y-92710496D01*
X186629804Y-92686227D01*
X186635765Y-92662429D01*
X186644030Y-92639329D01*
X186654520Y-92617151D01*
X186667133Y-92596107D01*
X186681747Y-92576402D01*
X186698223Y-92558223D01*
X186716402Y-92541747D01*
X186736107Y-92527133D01*
X186757151Y-92514520D01*
X186779329Y-92504030D01*
X186802429Y-92495765D01*
X186826227Y-92489804D01*
X186850496Y-92486204D01*
X186875000Y-92485000D01*
X187445000Y-92485000D01*
X187469504Y-92486204D01*
G37*
G36*
X187469504Y-93806204D02*
G01*
X187493773Y-93809804D01*
X187517571Y-93815765D01*
X187540671Y-93824030D01*
X187562849Y-93834520D01*
X187583893Y-93847133D01*
X187603598Y-93861747D01*
X187621777Y-93878223D01*
X187638253Y-93896402D01*
X187652867Y-93916107D01*
X187665480Y-93937151D01*
X187675970Y-93959329D01*
X187684235Y-93982429D01*
X187690196Y-94006227D01*
X187693796Y-94030496D01*
X187695000Y-94055000D01*
X187695000Y-94625000D01*
X187693796Y-94649504D01*
X187690196Y-94673773D01*
X187684235Y-94697571D01*
X187675970Y-94720671D01*
X187665480Y-94742849D01*
X187652867Y-94763893D01*
X187638253Y-94783598D01*
X187621777Y-94801777D01*
X187603598Y-94818253D01*
X187583893Y-94832867D01*
X187562849Y-94845480D01*
X187540671Y-94855970D01*
X187517571Y-94864235D01*
X187493773Y-94870196D01*
X187469504Y-94873796D01*
X187445000Y-94875000D01*
X186875000Y-94875000D01*
X186850496Y-94873796D01*
X186826227Y-94870196D01*
X186802429Y-94864235D01*
X186779329Y-94855970D01*
X186757151Y-94845480D01*
X186736107Y-94832867D01*
X186716402Y-94818253D01*
X186698223Y-94801777D01*
X186681747Y-94783598D01*
X186667133Y-94763893D01*
X186654520Y-94742849D01*
X186644030Y-94720671D01*
X186635765Y-94697571D01*
X186629804Y-94673773D01*
X186626204Y-94649504D01*
X186625000Y-94625000D01*
X186625000Y-94055000D01*
X186626204Y-94030496D01*
X186629804Y-94006227D01*
X186635765Y-93982429D01*
X186644030Y-93959329D01*
X186654520Y-93937151D01*
X186667133Y-93916107D01*
X186681747Y-93896402D01*
X186698223Y-93878223D01*
X186716402Y-93861747D01*
X186736107Y-93847133D01*
X186757151Y-93834520D01*
X186779329Y-93824030D01*
X186802429Y-93815765D01*
X186826227Y-93809804D01*
X186850496Y-93806204D01*
X186875000Y-93805000D01*
X187445000Y-93805000D01*
X187469504Y-93806204D01*
G37*
G36*
X187469504Y-95126204D02*
G01*
X187493773Y-95129804D01*
X187517571Y-95135765D01*
X187540671Y-95144030D01*
X187562849Y-95154520D01*
X187583893Y-95167133D01*
X187603598Y-95181747D01*
X187621777Y-95198223D01*
X187638253Y-95216402D01*
X187652867Y-95236107D01*
X187665480Y-95257151D01*
X187675970Y-95279329D01*
X187684235Y-95302429D01*
X187690196Y-95326227D01*
X187693796Y-95350496D01*
X187695000Y-95375000D01*
X187695000Y-95945000D01*
X187693796Y-95969504D01*
X187690196Y-95993773D01*
X187684235Y-96017571D01*
X187675970Y-96040671D01*
X187665480Y-96062849D01*
X187652867Y-96083893D01*
X187638253Y-96103598D01*
X187621777Y-96121777D01*
X187603598Y-96138253D01*
X187583893Y-96152867D01*
X187562849Y-96165480D01*
X187540671Y-96175970D01*
X187517571Y-96184235D01*
X187493773Y-96190196D01*
X187469504Y-96193796D01*
X187445000Y-96195000D01*
X186875000Y-96195000D01*
X186850496Y-96193796D01*
X186826227Y-96190196D01*
X186802429Y-96184235D01*
X186779329Y-96175970D01*
X186757151Y-96165480D01*
X186736107Y-96152867D01*
X186716402Y-96138253D01*
X186698223Y-96121777D01*
X186681747Y-96103598D01*
X186667133Y-96083893D01*
X186654520Y-96062849D01*
X186644030Y-96040671D01*
X186635765Y-96017571D01*
X186629804Y-95993773D01*
X186626204Y-95969504D01*
X186625000Y-95945000D01*
X186625000Y-95375000D01*
X186626204Y-95350496D01*
X186629804Y-95326227D01*
X186635765Y-95302429D01*
X186644030Y-95279329D01*
X186654520Y-95257151D01*
X186667133Y-95236107D01*
X186681747Y-95216402D01*
X186698223Y-95198223D01*
X186716402Y-95181747D01*
X186736107Y-95167133D01*
X186757151Y-95154520D01*
X186779329Y-95144030D01*
X186802429Y-95135765D01*
X186826227Y-95129804D01*
X186850496Y-95126204D01*
X186875000Y-95125000D01*
X187445000Y-95125000D01*
X187469504Y-95126204D01*
G37*
G36*
X187469504Y-96446204D02*
G01*
X187493773Y-96449804D01*
X187517571Y-96455765D01*
X187540671Y-96464030D01*
X187562849Y-96474520D01*
X187583893Y-96487133D01*
X187603598Y-96501747D01*
X187621777Y-96518223D01*
X187638253Y-96536402D01*
X187652867Y-96556107D01*
X187665480Y-96577151D01*
X187675970Y-96599329D01*
X187684235Y-96622429D01*
X187690196Y-96646227D01*
X187693796Y-96670496D01*
X187695000Y-96695000D01*
X187695000Y-97265000D01*
X187693796Y-97289504D01*
X187690196Y-97313773D01*
X187684235Y-97337571D01*
X187675970Y-97360671D01*
X187665480Y-97382849D01*
X187652867Y-97403893D01*
X187638253Y-97423598D01*
X187621777Y-97441777D01*
X187603598Y-97458253D01*
X187583893Y-97472867D01*
X187562849Y-97485480D01*
X187540671Y-97495970D01*
X187517571Y-97504235D01*
X187493773Y-97510196D01*
X187469504Y-97513796D01*
X187445000Y-97515000D01*
X186875000Y-97515000D01*
X186850496Y-97513796D01*
X186826227Y-97510196D01*
X186802429Y-97504235D01*
X186779329Y-97495970D01*
X186757151Y-97485480D01*
X186736107Y-97472867D01*
X186716402Y-97458253D01*
X186698223Y-97441777D01*
X186681747Y-97423598D01*
X186667133Y-97403893D01*
X186654520Y-97382849D01*
X186644030Y-97360671D01*
X186635765Y-97337571D01*
X186629804Y-97313773D01*
X186626204Y-97289504D01*
X186625000Y-97265000D01*
X186625000Y-96695000D01*
X186626204Y-96670496D01*
X186629804Y-96646227D01*
X186635765Y-96622429D01*
X186644030Y-96599329D01*
X186654520Y-96577151D01*
X186667133Y-96556107D01*
X186681747Y-96536402D01*
X186698223Y-96518223D01*
X186716402Y-96501747D01*
X186736107Y-96487133D01*
X186757151Y-96474520D01*
X186779329Y-96464030D01*
X186802429Y-96455765D01*
X186826227Y-96449804D01*
X186850496Y-96446204D01*
X186875000Y-96445000D01*
X187445000Y-96445000D01*
X187469504Y-96446204D01*
G37*
G36*
X188789504Y-92486204D02*
G01*
X188813773Y-92489804D01*
X188837571Y-92495765D01*
X188860671Y-92504030D01*
X188882849Y-92514520D01*
X188903893Y-92527133D01*
X188923598Y-92541747D01*
X188941777Y-92558223D01*
X188958253Y-92576402D01*
X188972867Y-92596107D01*
X188985480Y-92617151D01*
X188995970Y-92639329D01*
X189004235Y-92662429D01*
X189010196Y-92686227D01*
X189013796Y-92710496D01*
X189015000Y-92735000D01*
X189015000Y-93305000D01*
X189013796Y-93329504D01*
X189010196Y-93353773D01*
X189004235Y-93377571D01*
X188995970Y-93400671D01*
X188985480Y-93422849D01*
X188972867Y-93443893D01*
X188958253Y-93463598D01*
X188941777Y-93481777D01*
X188923598Y-93498253D01*
X188903893Y-93512867D01*
X188882849Y-93525480D01*
X188860671Y-93535970D01*
X188837571Y-93544235D01*
X188813773Y-93550196D01*
X188789504Y-93553796D01*
X188765000Y-93555000D01*
X188195000Y-93555000D01*
X188170496Y-93553796D01*
X188146227Y-93550196D01*
X188122429Y-93544235D01*
X188099329Y-93535970D01*
X188077151Y-93525480D01*
X188056107Y-93512867D01*
X188036402Y-93498253D01*
X188018223Y-93481777D01*
X188001747Y-93463598D01*
X187987133Y-93443893D01*
X187974520Y-93422849D01*
X187964030Y-93400671D01*
X187955765Y-93377571D01*
X187949804Y-93353773D01*
X187946204Y-93329504D01*
X187945000Y-93305000D01*
X187945000Y-92735000D01*
X187946204Y-92710496D01*
X187949804Y-92686227D01*
X187955765Y-92662429D01*
X187964030Y-92639329D01*
X187974520Y-92617151D01*
X187987133Y-92596107D01*
X188001747Y-92576402D01*
X188018223Y-92558223D01*
X188036402Y-92541747D01*
X188056107Y-92527133D01*
X188077151Y-92514520D01*
X188099329Y-92504030D01*
X188122429Y-92495765D01*
X188146227Y-92489804D01*
X188170496Y-92486204D01*
X188195000Y-92485000D01*
X188765000Y-92485000D01*
X188789504Y-92486204D01*
G37*
G36*
X188789504Y-93806204D02*
G01*
X188813773Y-93809804D01*
X188837571Y-93815765D01*
X188860671Y-93824030D01*
X188882849Y-93834520D01*
X188903893Y-93847133D01*
X188923598Y-93861747D01*
X188941777Y-93878223D01*
X188958253Y-93896402D01*
X188972867Y-93916107D01*
X188985480Y-93937151D01*
X188995970Y-93959329D01*
X189004235Y-93982429D01*
X189010196Y-94006227D01*
X189013796Y-94030496D01*
X189015000Y-94055000D01*
X189015000Y-94625000D01*
X189013796Y-94649504D01*
X189010196Y-94673773D01*
X189004235Y-94697571D01*
X188995970Y-94720671D01*
X188985480Y-94742849D01*
X188972867Y-94763893D01*
X188958253Y-94783598D01*
X188941777Y-94801777D01*
X188923598Y-94818253D01*
X188903893Y-94832867D01*
X188882849Y-94845480D01*
X188860671Y-94855970D01*
X188837571Y-94864235D01*
X188813773Y-94870196D01*
X188789504Y-94873796D01*
X188765000Y-94875000D01*
X188195000Y-94875000D01*
X188170496Y-94873796D01*
X188146227Y-94870196D01*
X188122429Y-94864235D01*
X188099329Y-94855970D01*
X188077151Y-94845480D01*
X188056107Y-94832867D01*
X188036402Y-94818253D01*
X188018223Y-94801777D01*
X188001747Y-94783598D01*
X187987133Y-94763893D01*
X187974520Y-94742849D01*
X187964030Y-94720671D01*
X187955765Y-94697571D01*
X187949804Y-94673773D01*
X187946204Y-94649504D01*
X187945000Y-94625000D01*
X187945000Y-94055000D01*
X187946204Y-94030496D01*
X187949804Y-94006227D01*
X187955765Y-93982429D01*
X187964030Y-93959329D01*
X187974520Y-93937151D01*
X187987133Y-93916107D01*
X188001747Y-93896402D01*
X188018223Y-93878223D01*
X188036402Y-93861747D01*
X188056107Y-93847133D01*
X188077151Y-93834520D01*
X188099329Y-93824030D01*
X188122429Y-93815765D01*
X188146227Y-93809804D01*
X188170496Y-93806204D01*
X188195000Y-93805000D01*
X188765000Y-93805000D01*
X188789504Y-93806204D01*
G37*
G36*
X188789504Y-95126204D02*
G01*
X188813773Y-95129804D01*
X188837571Y-95135765D01*
X188860671Y-95144030D01*
X188882849Y-95154520D01*
X188903893Y-95167133D01*
X188923598Y-95181747D01*
X188941777Y-95198223D01*
X188958253Y-95216402D01*
X188972867Y-95236107D01*
X188985480Y-95257151D01*
X188995970Y-95279329D01*
X189004235Y-95302429D01*
X189010196Y-95326227D01*
X189013796Y-95350496D01*
X189015000Y-95375000D01*
X189015000Y-95945000D01*
X189013796Y-95969504D01*
X189010196Y-95993773D01*
X189004235Y-96017571D01*
X188995970Y-96040671D01*
X188985480Y-96062849D01*
X188972867Y-96083893D01*
X188958253Y-96103598D01*
X188941777Y-96121777D01*
X188923598Y-96138253D01*
X188903893Y-96152867D01*
X188882849Y-96165480D01*
X188860671Y-96175970D01*
X188837571Y-96184235D01*
X188813773Y-96190196D01*
X188789504Y-96193796D01*
X188765000Y-96195000D01*
X188195000Y-96195000D01*
X188170496Y-96193796D01*
X188146227Y-96190196D01*
X188122429Y-96184235D01*
X188099329Y-96175970D01*
X188077151Y-96165480D01*
X188056107Y-96152867D01*
X188036402Y-96138253D01*
X188018223Y-96121777D01*
X188001747Y-96103598D01*
X187987133Y-96083893D01*
X187974520Y-96062849D01*
X187964030Y-96040671D01*
X187955765Y-96017571D01*
X187949804Y-95993773D01*
X187946204Y-95969504D01*
X187945000Y-95945000D01*
X187945000Y-95375000D01*
X187946204Y-95350496D01*
X187949804Y-95326227D01*
X187955765Y-95302429D01*
X187964030Y-95279329D01*
X187974520Y-95257151D01*
X187987133Y-95236107D01*
X188001747Y-95216402D01*
X188018223Y-95198223D01*
X188036402Y-95181747D01*
X188056107Y-95167133D01*
X188077151Y-95154520D01*
X188099329Y-95144030D01*
X188122429Y-95135765D01*
X188146227Y-95129804D01*
X188170496Y-95126204D01*
X188195000Y-95125000D01*
X188765000Y-95125000D01*
X188789504Y-95126204D01*
G37*
G36*
X188789504Y-96446204D02*
G01*
X188813773Y-96449804D01*
X188837571Y-96455765D01*
X188860671Y-96464030D01*
X188882849Y-96474520D01*
X188903893Y-96487133D01*
X188923598Y-96501747D01*
X188941777Y-96518223D01*
X188958253Y-96536402D01*
X188972867Y-96556107D01*
X188985480Y-96577151D01*
X188995970Y-96599329D01*
X189004235Y-96622429D01*
X189010196Y-96646227D01*
X189013796Y-96670496D01*
X189015000Y-96695000D01*
X189015000Y-97265000D01*
X189013796Y-97289504D01*
X189010196Y-97313773D01*
X189004235Y-97337571D01*
X188995970Y-97360671D01*
X188985480Y-97382849D01*
X188972867Y-97403893D01*
X188958253Y-97423598D01*
X188941777Y-97441777D01*
X188923598Y-97458253D01*
X188903893Y-97472867D01*
X188882849Y-97485480D01*
X188860671Y-97495970D01*
X188837571Y-97504235D01*
X188813773Y-97510196D01*
X188789504Y-97513796D01*
X188765000Y-97515000D01*
X188195000Y-97515000D01*
X188170496Y-97513796D01*
X188146227Y-97510196D01*
X188122429Y-97504235D01*
X188099329Y-97495970D01*
X188077151Y-97485480D01*
X188056107Y-97472867D01*
X188036402Y-97458253D01*
X188018223Y-97441777D01*
X188001747Y-97423598D01*
X187987133Y-97403893D01*
X187974520Y-97382849D01*
X187964030Y-97360671D01*
X187955765Y-97337571D01*
X187949804Y-97313773D01*
X187946204Y-97289504D01*
X187945000Y-97265000D01*
X187945000Y-96695000D01*
X187946204Y-96670496D01*
X187949804Y-96646227D01*
X187955765Y-96622429D01*
X187964030Y-96599329D01*
X187974520Y-96577151D01*
X187987133Y-96556107D01*
X188001747Y-96536402D01*
X188018223Y-96518223D01*
X188036402Y-96501747D01*
X188056107Y-96487133D01*
X188077151Y-96474520D01*
X188099329Y-96464030D01*
X188122429Y-96455765D01*
X188146227Y-96449804D01*
X188170496Y-96446204D01*
X188195000Y-96445000D01*
X188765000Y-96445000D01*
X188789504Y-96446204D01*
G37*
G36*
X183393626Y-92125301D02*
G01*
X183399693Y-92126201D01*
X183405643Y-92127691D01*
X183411418Y-92129758D01*
X183416962Y-92132380D01*
X183422223Y-92135533D01*
X183427150Y-92139187D01*
X183431694Y-92143306D01*
X183435813Y-92147850D01*
X183439467Y-92152777D01*
X183442620Y-92158038D01*
X183445242Y-92163582D01*
X183447309Y-92169357D01*
X183448799Y-92175307D01*
X183449699Y-92181374D01*
X183450000Y-92187500D01*
X183450000Y-92312500D01*
X183449699Y-92318626D01*
X183448799Y-92324693D01*
X183447309Y-92330643D01*
X183445242Y-92336418D01*
X183442620Y-92341962D01*
X183439467Y-92347223D01*
X183435813Y-92352150D01*
X183431694Y-92356694D01*
X183427150Y-92360813D01*
X183422223Y-92364467D01*
X183416962Y-92367620D01*
X183411418Y-92370242D01*
X183405643Y-92372309D01*
X183399693Y-92373799D01*
X183393626Y-92374699D01*
X183387500Y-92375000D01*
X182712500Y-92375000D01*
X182706374Y-92374699D01*
X182700307Y-92373799D01*
X182694357Y-92372309D01*
X182688582Y-92370242D01*
X182683038Y-92367620D01*
X182677777Y-92364467D01*
X182672850Y-92360813D01*
X182668306Y-92356694D01*
X182664187Y-92352150D01*
X182660533Y-92347223D01*
X182657380Y-92341962D01*
X182654758Y-92336418D01*
X182652691Y-92330643D01*
X182651201Y-92324693D01*
X182650301Y-92318626D01*
X182650000Y-92312500D01*
X182650000Y-92187500D01*
X182650301Y-92181374D01*
X182651201Y-92175307D01*
X182652691Y-92169357D01*
X182654758Y-92163582D01*
X182657380Y-92158038D01*
X182660533Y-92152777D01*
X182664187Y-92147850D01*
X182668306Y-92143306D01*
X182672850Y-92139187D01*
X182677777Y-92135533D01*
X182683038Y-92132380D01*
X182688582Y-92129758D01*
X182694357Y-92127691D01*
X182700307Y-92126201D01*
X182706374Y-92125301D01*
X182712500Y-92125000D01*
X183387500Y-92125000D01*
X183393626Y-92125301D01*
G37*
G36*
X183393626Y-92625301D02*
G01*
X183399693Y-92626201D01*
X183405643Y-92627691D01*
X183411418Y-92629758D01*
X183416962Y-92632380D01*
X183422223Y-92635533D01*
X183427150Y-92639187D01*
X183431694Y-92643306D01*
X183435813Y-92647850D01*
X183439467Y-92652777D01*
X183442620Y-92658038D01*
X183445242Y-92663582D01*
X183447309Y-92669357D01*
X183448799Y-92675307D01*
X183449699Y-92681374D01*
X183450000Y-92687500D01*
X183450000Y-92812500D01*
X183449699Y-92818626D01*
X183448799Y-92824693D01*
X183447309Y-92830643D01*
X183445242Y-92836418D01*
X183442620Y-92841962D01*
X183439467Y-92847223D01*
X183435813Y-92852150D01*
X183431694Y-92856694D01*
X183427150Y-92860813D01*
X183422223Y-92864467D01*
X183416962Y-92867620D01*
X183411418Y-92870242D01*
X183405643Y-92872309D01*
X183399693Y-92873799D01*
X183393626Y-92874699D01*
X183387500Y-92875000D01*
X182712500Y-92875000D01*
X182706374Y-92874699D01*
X182700307Y-92873799D01*
X182694357Y-92872309D01*
X182688582Y-92870242D01*
X182683038Y-92867620D01*
X182677777Y-92864467D01*
X182672850Y-92860813D01*
X182668306Y-92856694D01*
X182664187Y-92852150D01*
X182660533Y-92847223D01*
X182657380Y-92841962D01*
X182654758Y-92836418D01*
X182652691Y-92830643D01*
X182651201Y-92824693D01*
X182650301Y-92818626D01*
X182650000Y-92812500D01*
X182650000Y-92687500D01*
X182650301Y-92681374D01*
X182651201Y-92675307D01*
X182652691Y-92669357D01*
X182654758Y-92663582D01*
X182657380Y-92658038D01*
X182660533Y-92652777D01*
X182664187Y-92647850D01*
X182668306Y-92643306D01*
X182672850Y-92639187D01*
X182677777Y-92635533D01*
X182683038Y-92632380D01*
X182688582Y-92629758D01*
X182694357Y-92627691D01*
X182700307Y-92626201D01*
X182706374Y-92625301D01*
X182712500Y-92625000D01*
X183387500Y-92625000D01*
X183393626Y-92625301D01*
G37*
G36*
X183393626Y-93125301D02*
G01*
X183399693Y-93126201D01*
X183405643Y-93127691D01*
X183411418Y-93129758D01*
X183416962Y-93132380D01*
X183422223Y-93135533D01*
X183427150Y-93139187D01*
X183431694Y-93143306D01*
X183435813Y-93147850D01*
X183439467Y-93152777D01*
X183442620Y-93158038D01*
X183445242Y-93163582D01*
X183447309Y-93169357D01*
X183448799Y-93175307D01*
X183449699Y-93181374D01*
X183450000Y-93187500D01*
X183450000Y-93312500D01*
X183449699Y-93318626D01*
X183448799Y-93324693D01*
X183447309Y-93330643D01*
X183445242Y-93336418D01*
X183442620Y-93341962D01*
X183439467Y-93347223D01*
X183435813Y-93352150D01*
X183431694Y-93356694D01*
X183427150Y-93360813D01*
X183422223Y-93364467D01*
X183416962Y-93367620D01*
X183411418Y-93370242D01*
X183405643Y-93372309D01*
X183399693Y-93373799D01*
X183393626Y-93374699D01*
X183387500Y-93375000D01*
X182712500Y-93375000D01*
X182706374Y-93374699D01*
X182700307Y-93373799D01*
X182694357Y-93372309D01*
X182688582Y-93370242D01*
X182683038Y-93367620D01*
X182677777Y-93364467D01*
X182672850Y-93360813D01*
X182668306Y-93356694D01*
X182664187Y-93352150D01*
X182660533Y-93347223D01*
X182657380Y-93341962D01*
X182654758Y-93336418D01*
X182652691Y-93330643D01*
X182651201Y-93324693D01*
X182650301Y-93318626D01*
X182650000Y-93312500D01*
X182650000Y-93187500D01*
X182650301Y-93181374D01*
X182651201Y-93175307D01*
X182652691Y-93169357D01*
X182654758Y-93163582D01*
X182657380Y-93158038D01*
X182660533Y-93152777D01*
X182664187Y-93147850D01*
X182668306Y-93143306D01*
X182672850Y-93139187D01*
X182677777Y-93135533D01*
X182683038Y-93132380D01*
X182688582Y-93129758D01*
X182694357Y-93127691D01*
X182700307Y-93126201D01*
X182706374Y-93125301D01*
X182712500Y-93125000D01*
X183387500Y-93125000D01*
X183393626Y-93125301D01*
G37*
G36*
X183393626Y-93625301D02*
G01*
X183399693Y-93626201D01*
X183405643Y-93627691D01*
X183411418Y-93629758D01*
X183416962Y-93632380D01*
X183422223Y-93635533D01*
X183427150Y-93639187D01*
X183431694Y-93643306D01*
X183435813Y-93647850D01*
X183439467Y-93652777D01*
X183442620Y-93658038D01*
X183445242Y-93663582D01*
X183447309Y-93669357D01*
X183448799Y-93675307D01*
X183449699Y-93681374D01*
X183450000Y-93687500D01*
X183450000Y-93812500D01*
X183449699Y-93818626D01*
X183448799Y-93824693D01*
X183447309Y-93830643D01*
X183445242Y-93836418D01*
X183442620Y-93841962D01*
X183439467Y-93847223D01*
X183435813Y-93852150D01*
X183431694Y-93856694D01*
X183427150Y-93860813D01*
X183422223Y-93864467D01*
X183416962Y-93867620D01*
X183411418Y-93870242D01*
X183405643Y-93872309D01*
X183399693Y-93873799D01*
X183393626Y-93874699D01*
X183387500Y-93875000D01*
X182712500Y-93875000D01*
X182706374Y-93874699D01*
X182700307Y-93873799D01*
X182694357Y-93872309D01*
X182688582Y-93870242D01*
X182683038Y-93867620D01*
X182677777Y-93864467D01*
X182672850Y-93860813D01*
X182668306Y-93856694D01*
X182664187Y-93852150D01*
X182660533Y-93847223D01*
X182657380Y-93841962D01*
X182654758Y-93836418D01*
X182652691Y-93830643D01*
X182651201Y-93824693D01*
X182650301Y-93818626D01*
X182650000Y-93812500D01*
X182650000Y-93687500D01*
X182650301Y-93681374D01*
X182651201Y-93675307D01*
X182652691Y-93669357D01*
X182654758Y-93663582D01*
X182657380Y-93658038D01*
X182660533Y-93652777D01*
X182664187Y-93647850D01*
X182668306Y-93643306D01*
X182672850Y-93639187D01*
X182677777Y-93635533D01*
X182683038Y-93632380D01*
X182688582Y-93629758D01*
X182694357Y-93627691D01*
X182700307Y-93626201D01*
X182706374Y-93625301D01*
X182712500Y-93625000D01*
X183387500Y-93625000D01*
X183393626Y-93625301D01*
G37*
G36*
X183393626Y-94125301D02*
G01*
X183399693Y-94126201D01*
X183405643Y-94127691D01*
X183411418Y-94129758D01*
X183416962Y-94132380D01*
X183422223Y-94135533D01*
X183427150Y-94139187D01*
X183431694Y-94143306D01*
X183435813Y-94147850D01*
X183439467Y-94152777D01*
X183442620Y-94158038D01*
X183445242Y-94163582D01*
X183447309Y-94169357D01*
X183448799Y-94175307D01*
X183449699Y-94181374D01*
X183450000Y-94187500D01*
X183450000Y-94312500D01*
X183449699Y-94318626D01*
X183448799Y-94324693D01*
X183447309Y-94330643D01*
X183445242Y-94336418D01*
X183442620Y-94341962D01*
X183439467Y-94347223D01*
X183435813Y-94352150D01*
X183431694Y-94356694D01*
X183427150Y-94360813D01*
X183422223Y-94364467D01*
X183416962Y-94367620D01*
X183411418Y-94370242D01*
X183405643Y-94372309D01*
X183399693Y-94373799D01*
X183393626Y-94374699D01*
X183387500Y-94375000D01*
X182712500Y-94375000D01*
X182706374Y-94374699D01*
X182700307Y-94373799D01*
X182694357Y-94372309D01*
X182688582Y-94370242D01*
X182683038Y-94367620D01*
X182677777Y-94364467D01*
X182672850Y-94360813D01*
X182668306Y-94356694D01*
X182664187Y-94352150D01*
X182660533Y-94347223D01*
X182657380Y-94341962D01*
X182654758Y-94336418D01*
X182652691Y-94330643D01*
X182651201Y-94324693D01*
X182650301Y-94318626D01*
X182650000Y-94312500D01*
X182650000Y-94187500D01*
X182650301Y-94181374D01*
X182651201Y-94175307D01*
X182652691Y-94169357D01*
X182654758Y-94163582D01*
X182657380Y-94158038D01*
X182660533Y-94152777D01*
X182664187Y-94147850D01*
X182668306Y-94143306D01*
X182672850Y-94139187D01*
X182677777Y-94135533D01*
X182683038Y-94132380D01*
X182688582Y-94129758D01*
X182694357Y-94127691D01*
X182700307Y-94126201D01*
X182706374Y-94125301D01*
X182712500Y-94125000D01*
X183387500Y-94125000D01*
X183393626Y-94125301D01*
G37*
G36*
X183393626Y-94625301D02*
G01*
X183399693Y-94626201D01*
X183405643Y-94627691D01*
X183411418Y-94629758D01*
X183416962Y-94632380D01*
X183422223Y-94635533D01*
X183427150Y-94639187D01*
X183431694Y-94643306D01*
X183435813Y-94647850D01*
X183439467Y-94652777D01*
X183442620Y-94658038D01*
X183445242Y-94663582D01*
X183447309Y-94669357D01*
X183448799Y-94675307D01*
X183449699Y-94681374D01*
X183450000Y-94687500D01*
X183450000Y-94812500D01*
X183449699Y-94818626D01*
X183448799Y-94824693D01*
X183447309Y-94830643D01*
X183445242Y-94836418D01*
X183442620Y-94841962D01*
X183439467Y-94847223D01*
X183435813Y-94852150D01*
X183431694Y-94856694D01*
X183427150Y-94860813D01*
X183422223Y-94864467D01*
X183416962Y-94867620D01*
X183411418Y-94870242D01*
X183405643Y-94872309D01*
X183399693Y-94873799D01*
X183393626Y-94874699D01*
X183387500Y-94875000D01*
X182712500Y-94875000D01*
X182706374Y-94874699D01*
X182700307Y-94873799D01*
X182694357Y-94872309D01*
X182688582Y-94870242D01*
X182683038Y-94867620D01*
X182677777Y-94864467D01*
X182672850Y-94860813D01*
X182668306Y-94856694D01*
X182664187Y-94852150D01*
X182660533Y-94847223D01*
X182657380Y-94841962D01*
X182654758Y-94836418D01*
X182652691Y-94830643D01*
X182651201Y-94824693D01*
X182650301Y-94818626D01*
X182650000Y-94812500D01*
X182650000Y-94687500D01*
X182650301Y-94681374D01*
X182651201Y-94675307D01*
X182652691Y-94669357D01*
X182654758Y-94663582D01*
X182657380Y-94658038D01*
X182660533Y-94652777D01*
X182664187Y-94647850D01*
X182668306Y-94643306D01*
X182672850Y-94639187D01*
X182677777Y-94635533D01*
X182683038Y-94632380D01*
X182688582Y-94629758D01*
X182694357Y-94627691D01*
X182700307Y-94626201D01*
X182706374Y-94625301D01*
X182712500Y-94625000D01*
X183387500Y-94625000D01*
X183393626Y-94625301D01*
G37*
G36*
X183393626Y-95125301D02*
G01*
X183399693Y-95126201D01*
X183405643Y-95127691D01*
X183411418Y-95129758D01*
X183416962Y-95132380D01*
X183422223Y-95135533D01*
X183427150Y-95139187D01*
X183431694Y-95143306D01*
X183435813Y-95147850D01*
X183439467Y-95152777D01*
X183442620Y-95158038D01*
X183445242Y-95163582D01*
X183447309Y-95169357D01*
X183448799Y-95175307D01*
X183449699Y-95181374D01*
X183450000Y-95187500D01*
X183450000Y-95312500D01*
X183449699Y-95318626D01*
X183448799Y-95324693D01*
X183447309Y-95330643D01*
X183445242Y-95336418D01*
X183442620Y-95341962D01*
X183439467Y-95347223D01*
X183435813Y-95352150D01*
X183431694Y-95356694D01*
X183427150Y-95360813D01*
X183422223Y-95364467D01*
X183416962Y-95367620D01*
X183411418Y-95370242D01*
X183405643Y-95372309D01*
X183399693Y-95373799D01*
X183393626Y-95374699D01*
X183387500Y-95375000D01*
X182712500Y-95375000D01*
X182706374Y-95374699D01*
X182700307Y-95373799D01*
X182694357Y-95372309D01*
X182688582Y-95370242D01*
X182683038Y-95367620D01*
X182677777Y-95364467D01*
X182672850Y-95360813D01*
X182668306Y-95356694D01*
X182664187Y-95352150D01*
X182660533Y-95347223D01*
X182657380Y-95341962D01*
X182654758Y-95336418D01*
X182652691Y-95330643D01*
X182651201Y-95324693D01*
X182650301Y-95318626D01*
X182650000Y-95312500D01*
X182650000Y-95187500D01*
X182650301Y-95181374D01*
X182651201Y-95175307D01*
X182652691Y-95169357D01*
X182654758Y-95163582D01*
X182657380Y-95158038D01*
X182660533Y-95152777D01*
X182664187Y-95147850D01*
X182668306Y-95143306D01*
X182672850Y-95139187D01*
X182677777Y-95135533D01*
X182683038Y-95132380D01*
X182688582Y-95129758D01*
X182694357Y-95127691D01*
X182700307Y-95126201D01*
X182706374Y-95125301D01*
X182712500Y-95125000D01*
X183387500Y-95125000D01*
X183393626Y-95125301D01*
G37*
G36*
X183393626Y-95625301D02*
G01*
X183399693Y-95626201D01*
X183405643Y-95627691D01*
X183411418Y-95629758D01*
X183416962Y-95632380D01*
X183422223Y-95635533D01*
X183427150Y-95639187D01*
X183431694Y-95643306D01*
X183435813Y-95647850D01*
X183439467Y-95652777D01*
X183442620Y-95658038D01*
X183445242Y-95663582D01*
X183447309Y-95669357D01*
X183448799Y-95675307D01*
X183449699Y-95681374D01*
X183450000Y-95687500D01*
X183450000Y-95812500D01*
X183449699Y-95818626D01*
X183448799Y-95824693D01*
X183447309Y-95830643D01*
X183445242Y-95836418D01*
X183442620Y-95841962D01*
X183439467Y-95847223D01*
X183435813Y-95852150D01*
X183431694Y-95856694D01*
X183427150Y-95860813D01*
X183422223Y-95864467D01*
X183416962Y-95867620D01*
X183411418Y-95870242D01*
X183405643Y-95872309D01*
X183399693Y-95873799D01*
X183393626Y-95874699D01*
X183387500Y-95875000D01*
X182712500Y-95875000D01*
X182706374Y-95874699D01*
X182700307Y-95873799D01*
X182694357Y-95872309D01*
X182688582Y-95870242D01*
X182683038Y-95867620D01*
X182677777Y-95864467D01*
X182672850Y-95860813D01*
X182668306Y-95856694D01*
X182664187Y-95852150D01*
X182660533Y-95847223D01*
X182657380Y-95841962D01*
X182654758Y-95836418D01*
X182652691Y-95830643D01*
X182651201Y-95824693D01*
X182650301Y-95818626D01*
X182650000Y-95812500D01*
X182650000Y-95687500D01*
X182650301Y-95681374D01*
X182651201Y-95675307D01*
X182652691Y-95669357D01*
X182654758Y-95663582D01*
X182657380Y-95658038D01*
X182660533Y-95652777D01*
X182664187Y-95647850D01*
X182668306Y-95643306D01*
X182672850Y-95639187D01*
X182677777Y-95635533D01*
X182683038Y-95632380D01*
X182688582Y-95629758D01*
X182694357Y-95627691D01*
X182700307Y-95626201D01*
X182706374Y-95625301D01*
X182712500Y-95625000D01*
X183387500Y-95625000D01*
X183393626Y-95625301D01*
G37*
G36*
X183393626Y-96125301D02*
G01*
X183399693Y-96126201D01*
X183405643Y-96127691D01*
X183411418Y-96129758D01*
X183416962Y-96132380D01*
X183422223Y-96135533D01*
X183427150Y-96139187D01*
X183431694Y-96143306D01*
X183435813Y-96147850D01*
X183439467Y-96152777D01*
X183442620Y-96158038D01*
X183445242Y-96163582D01*
X183447309Y-96169357D01*
X183448799Y-96175307D01*
X183449699Y-96181374D01*
X183450000Y-96187500D01*
X183450000Y-96312500D01*
X183449699Y-96318626D01*
X183448799Y-96324693D01*
X183447309Y-96330643D01*
X183445242Y-96336418D01*
X183442620Y-96341962D01*
X183439467Y-96347223D01*
X183435813Y-96352150D01*
X183431694Y-96356694D01*
X183427150Y-96360813D01*
X183422223Y-96364467D01*
X183416962Y-96367620D01*
X183411418Y-96370242D01*
X183405643Y-96372309D01*
X183399693Y-96373799D01*
X183393626Y-96374699D01*
X183387500Y-96375000D01*
X182712500Y-96375000D01*
X182706374Y-96374699D01*
X182700307Y-96373799D01*
X182694357Y-96372309D01*
X182688582Y-96370242D01*
X182683038Y-96367620D01*
X182677777Y-96364467D01*
X182672850Y-96360813D01*
X182668306Y-96356694D01*
X182664187Y-96352150D01*
X182660533Y-96347223D01*
X182657380Y-96341962D01*
X182654758Y-96336418D01*
X182652691Y-96330643D01*
X182651201Y-96324693D01*
X182650301Y-96318626D01*
X182650000Y-96312500D01*
X182650000Y-96187500D01*
X182650301Y-96181374D01*
X182651201Y-96175307D01*
X182652691Y-96169357D01*
X182654758Y-96163582D01*
X182657380Y-96158038D01*
X182660533Y-96152777D01*
X182664187Y-96147850D01*
X182668306Y-96143306D01*
X182672850Y-96139187D01*
X182677777Y-96135533D01*
X182683038Y-96132380D01*
X182688582Y-96129758D01*
X182694357Y-96127691D01*
X182700307Y-96126201D01*
X182706374Y-96125301D01*
X182712500Y-96125000D01*
X183387500Y-96125000D01*
X183393626Y-96125301D01*
G37*
G36*
X183393626Y-96625301D02*
G01*
X183399693Y-96626201D01*
X183405643Y-96627691D01*
X183411418Y-96629758D01*
X183416962Y-96632380D01*
X183422223Y-96635533D01*
X183427150Y-96639187D01*
X183431694Y-96643306D01*
X183435813Y-96647850D01*
X183439467Y-96652777D01*
X183442620Y-96658038D01*
X183445242Y-96663582D01*
X183447309Y-96669357D01*
X183448799Y-96675307D01*
X183449699Y-96681374D01*
X183450000Y-96687500D01*
X183450000Y-96812500D01*
X183449699Y-96818626D01*
X183448799Y-96824693D01*
X183447309Y-96830643D01*
X183445242Y-96836418D01*
X183442620Y-96841962D01*
X183439467Y-96847223D01*
X183435813Y-96852150D01*
X183431694Y-96856694D01*
X183427150Y-96860813D01*
X183422223Y-96864467D01*
X183416962Y-96867620D01*
X183411418Y-96870242D01*
X183405643Y-96872309D01*
X183399693Y-96873799D01*
X183393626Y-96874699D01*
X183387500Y-96875000D01*
X182712500Y-96875000D01*
X182706374Y-96874699D01*
X182700307Y-96873799D01*
X182694357Y-96872309D01*
X182688582Y-96870242D01*
X182683038Y-96867620D01*
X182677777Y-96864467D01*
X182672850Y-96860813D01*
X182668306Y-96856694D01*
X182664187Y-96852150D01*
X182660533Y-96847223D01*
X182657380Y-96841962D01*
X182654758Y-96836418D01*
X182652691Y-96830643D01*
X182651201Y-96824693D01*
X182650301Y-96818626D01*
X182650000Y-96812500D01*
X182650000Y-96687500D01*
X182650301Y-96681374D01*
X182651201Y-96675307D01*
X182652691Y-96669357D01*
X182654758Y-96663582D01*
X182657380Y-96658038D01*
X182660533Y-96652777D01*
X182664187Y-96647850D01*
X182668306Y-96643306D01*
X182672850Y-96639187D01*
X182677777Y-96635533D01*
X182683038Y-96632380D01*
X182688582Y-96629758D01*
X182694357Y-96627691D01*
X182700307Y-96626201D01*
X182706374Y-96625301D01*
X182712500Y-96625000D01*
X183387500Y-96625000D01*
X183393626Y-96625301D01*
G37*
G36*
X183393626Y-97125301D02*
G01*
X183399693Y-97126201D01*
X183405643Y-97127691D01*
X183411418Y-97129758D01*
X183416962Y-97132380D01*
X183422223Y-97135533D01*
X183427150Y-97139187D01*
X183431694Y-97143306D01*
X183435813Y-97147850D01*
X183439467Y-97152777D01*
X183442620Y-97158038D01*
X183445242Y-97163582D01*
X183447309Y-97169357D01*
X183448799Y-97175307D01*
X183449699Y-97181374D01*
X183450000Y-97187500D01*
X183450000Y-97312500D01*
X183449699Y-97318626D01*
X183448799Y-97324693D01*
X183447309Y-97330643D01*
X183445242Y-97336418D01*
X183442620Y-97341962D01*
X183439467Y-97347223D01*
X183435813Y-97352150D01*
X183431694Y-97356694D01*
X183427150Y-97360813D01*
X183422223Y-97364467D01*
X183416962Y-97367620D01*
X183411418Y-97370242D01*
X183405643Y-97372309D01*
X183399693Y-97373799D01*
X183393626Y-97374699D01*
X183387500Y-97375000D01*
X182712500Y-97375000D01*
X182706374Y-97374699D01*
X182700307Y-97373799D01*
X182694357Y-97372309D01*
X182688582Y-97370242D01*
X182683038Y-97367620D01*
X182677777Y-97364467D01*
X182672850Y-97360813D01*
X182668306Y-97356694D01*
X182664187Y-97352150D01*
X182660533Y-97347223D01*
X182657380Y-97341962D01*
X182654758Y-97336418D01*
X182652691Y-97330643D01*
X182651201Y-97324693D01*
X182650301Y-97318626D01*
X182650000Y-97312500D01*
X182650000Y-97187500D01*
X182650301Y-97181374D01*
X182651201Y-97175307D01*
X182652691Y-97169357D01*
X182654758Y-97163582D01*
X182657380Y-97158038D01*
X182660533Y-97152777D01*
X182664187Y-97147850D01*
X182668306Y-97143306D01*
X182672850Y-97139187D01*
X182677777Y-97135533D01*
X182683038Y-97132380D01*
X182688582Y-97129758D01*
X182694357Y-97127691D01*
X182700307Y-97126201D01*
X182706374Y-97125301D01*
X182712500Y-97125000D01*
X183387500Y-97125000D01*
X183393626Y-97125301D01*
G37*
G36*
X183393626Y-97625301D02*
G01*
X183399693Y-97626201D01*
X183405643Y-97627691D01*
X183411418Y-97629758D01*
X183416962Y-97632380D01*
X183422223Y-97635533D01*
X183427150Y-97639187D01*
X183431694Y-97643306D01*
X183435813Y-97647850D01*
X183439467Y-97652777D01*
X183442620Y-97658038D01*
X183445242Y-97663582D01*
X183447309Y-97669357D01*
X183448799Y-97675307D01*
X183449699Y-97681374D01*
X183450000Y-97687500D01*
X183450000Y-97812500D01*
X183449699Y-97818626D01*
X183448799Y-97824693D01*
X183447309Y-97830643D01*
X183445242Y-97836418D01*
X183442620Y-97841962D01*
X183439467Y-97847223D01*
X183435813Y-97852150D01*
X183431694Y-97856694D01*
X183427150Y-97860813D01*
X183422223Y-97864467D01*
X183416962Y-97867620D01*
X183411418Y-97870242D01*
X183405643Y-97872309D01*
X183399693Y-97873799D01*
X183393626Y-97874699D01*
X183387500Y-97875000D01*
X182712500Y-97875000D01*
X182706374Y-97874699D01*
X182700307Y-97873799D01*
X182694357Y-97872309D01*
X182688582Y-97870242D01*
X182683038Y-97867620D01*
X182677777Y-97864467D01*
X182672850Y-97860813D01*
X182668306Y-97856694D01*
X182664187Y-97852150D01*
X182660533Y-97847223D01*
X182657380Y-97841962D01*
X182654758Y-97836418D01*
X182652691Y-97830643D01*
X182651201Y-97824693D01*
X182650301Y-97818626D01*
X182650000Y-97812500D01*
X182650000Y-97687500D01*
X182650301Y-97681374D01*
X182651201Y-97675307D01*
X182652691Y-97669357D01*
X182654758Y-97663582D01*
X182657380Y-97658038D01*
X182660533Y-97652777D01*
X182664187Y-97647850D01*
X182668306Y-97643306D01*
X182672850Y-97639187D01*
X182677777Y-97635533D01*
X182683038Y-97632380D01*
X182688582Y-97629758D01*
X182694357Y-97627691D01*
X182700307Y-97626201D01*
X182706374Y-97625301D01*
X182712500Y-97625000D01*
X183387500Y-97625000D01*
X183393626Y-97625301D01*
G37*
G36*
X183818626Y-98050301D02*
G01*
X183824693Y-98051201D01*
X183830643Y-98052691D01*
X183836418Y-98054758D01*
X183841962Y-98057380D01*
X183847223Y-98060533D01*
X183852150Y-98064187D01*
X183856694Y-98068306D01*
X183860813Y-98072850D01*
X183864467Y-98077777D01*
X183867620Y-98083038D01*
X183870242Y-98088582D01*
X183872309Y-98094357D01*
X183873799Y-98100307D01*
X183874699Y-98106374D01*
X183875000Y-98112500D01*
X183875000Y-98787500D01*
X183874699Y-98793626D01*
X183873799Y-98799693D01*
X183872309Y-98805643D01*
X183870242Y-98811418D01*
X183867620Y-98816962D01*
X183864467Y-98822223D01*
X183860813Y-98827150D01*
X183856694Y-98831694D01*
X183852150Y-98835813D01*
X183847223Y-98839467D01*
X183841962Y-98842620D01*
X183836418Y-98845242D01*
X183830643Y-98847309D01*
X183824693Y-98848799D01*
X183818626Y-98849699D01*
X183812500Y-98850000D01*
X183687500Y-98850000D01*
X183681374Y-98849699D01*
X183675307Y-98848799D01*
X183669357Y-98847309D01*
X183663582Y-98845242D01*
X183658038Y-98842620D01*
X183652777Y-98839467D01*
X183647850Y-98835813D01*
X183643306Y-98831694D01*
X183639187Y-98827150D01*
X183635533Y-98822223D01*
X183632380Y-98816962D01*
X183629758Y-98811418D01*
X183627691Y-98805643D01*
X183626201Y-98799693D01*
X183625301Y-98793626D01*
X183625000Y-98787500D01*
X183625000Y-98112500D01*
X183625301Y-98106374D01*
X183626201Y-98100307D01*
X183627691Y-98094357D01*
X183629758Y-98088582D01*
X183632380Y-98083038D01*
X183635533Y-98077777D01*
X183639187Y-98072850D01*
X183643306Y-98068306D01*
X183647850Y-98064187D01*
X183652777Y-98060533D01*
X183658038Y-98057380D01*
X183663582Y-98054758D01*
X183669357Y-98052691D01*
X183675307Y-98051201D01*
X183681374Y-98050301D01*
X183687500Y-98050000D01*
X183812500Y-98050000D01*
X183818626Y-98050301D01*
G37*
G36*
X184318626Y-98050301D02*
G01*
X184324693Y-98051201D01*
X184330643Y-98052691D01*
X184336418Y-98054758D01*
X184341962Y-98057380D01*
X184347223Y-98060533D01*
X184352150Y-98064187D01*
X184356694Y-98068306D01*
X184360813Y-98072850D01*
X184364467Y-98077777D01*
X184367620Y-98083038D01*
X184370242Y-98088582D01*
X184372309Y-98094357D01*
X184373799Y-98100307D01*
X184374699Y-98106374D01*
X184375000Y-98112500D01*
X184375000Y-98787500D01*
X184374699Y-98793626D01*
X184373799Y-98799693D01*
X184372309Y-98805643D01*
X184370242Y-98811418D01*
X184367620Y-98816962D01*
X184364467Y-98822223D01*
X184360813Y-98827150D01*
X184356694Y-98831694D01*
X184352150Y-98835813D01*
X184347223Y-98839467D01*
X184341962Y-98842620D01*
X184336418Y-98845242D01*
X184330643Y-98847309D01*
X184324693Y-98848799D01*
X184318626Y-98849699D01*
X184312500Y-98850000D01*
X184187500Y-98850000D01*
X184181374Y-98849699D01*
X184175307Y-98848799D01*
X184169357Y-98847309D01*
X184163582Y-98845242D01*
X184158038Y-98842620D01*
X184152777Y-98839467D01*
X184147850Y-98835813D01*
X184143306Y-98831694D01*
X184139187Y-98827150D01*
X184135533Y-98822223D01*
X184132380Y-98816962D01*
X184129758Y-98811418D01*
X184127691Y-98805643D01*
X184126201Y-98799693D01*
X184125301Y-98793626D01*
X184125000Y-98787500D01*
X184125000Y-98112500D01*
X184125301Y-98106374D01*
X184126201Y-98100307D01*
X184127691Y-98094357D01*
X184129758Y-98088582D01*
X184132380Y-98083038D01*
X184135533Y-98077777D01*
X184139187Y-98072850D01*
X184143306Y-98068306D01*
X184147850Y-98064187D01*
X184152777Y-98060533D01*
X184158038Y-98057380D01*
X184163582Y-98054758D01*
X184169357Y-98052691D01*
X184175307Y-98051201D01*
X184181374Y-98050301D01*
X184187500Y-98050000D01*
X184312500Y-98050000D01*
X184318626Y-98050301D01*
G37*
G36*
X184818626Y-98050301D02*
G01*
X184824693Y-98051201D01*
X184830643Y-98052691D01*
X184836418Y-98054758D01*
X184841962Y-98057380D01*
X184847223Y-98060533D01*
X184852150Y-98064187D01*
X184856694Y-98068306D01*
X184860813Y-98072850D01*
X184864467Y-98077777D01*
X184867620Y-98083038D01*
X184870242Y-98088582D01*
X184872309Y-98094357D01*
X184873799Y-98100307D01*
X184874699Y-98106374D01*
X184875000Y-98112500D01*
X184875000Y-98787500D01*
X184874699Y-98793626D01*
X184873799Y-98799693D01*
X184872309Y-98805643D01*
X184870242Y-98811418D01*
X184867620Y-98816962D01*
X184864467Y-98822223D01*
X184860813Y-98827150D01*
X184856694Y-98831694D01*
X184852150Y-98835813D01*
X184847223Y-98839467D01*
X184841962Y-98842620D01*
X184836418Y-98845242D01*
X184830643Y-98847309D01*
X184824693Y-98848799D01*
X184818626Y-98849699D01*
X184812500Y-98850000D01*
X184687500Y-98850000D01*
X184681374Y-98849699D01*
X184675307Y-98848799D01*
X184669357Y-98847309D01*
X184663582Y-98845242D01*
X184658038Y-98842620D01*
X184652777Y-98839467D01*
X184647850Y-98835813D01*
X184643306Y-98831694D01*
X184639187Y-98827150D01*
X184635533Y-98822223D01*
X184632380Y-98816962D01*
X184629758Y-98811418D01*
X184627691Y-98805643D01*
X184626201Y-98799693D01*
X184625301Y-98793626D01*
X184625000Y-98787500D01*
X184625000Y-98112500D01*
X184625301Y-98106374D01*
X184626201Y-98100307D01*
X184627691Y-98094357D01*
X184629758Y-98088582D01*
X184632380Y-98083038D01*
X184635533Y-98077777D01*
X184639187Y-98072850D01*
X184643306Y-98068306D01*
X184647850Y-98064187D01*
X184652777Y-98060533D01*
X184658038Y-98057380D01*
X184663582Y-98054758D01*
X184669357Y-98052691D01*
X184675307Y-98051201D01*
X184681374Y-98050301D01*
X184687500Y-98050000D01*
X184812500Y-98050000D01*
X184818626Y-98050301D01*
G37*
G36*
X185318626Y-98050301D02*
G01*
X185324693Y-98051201D01*
X185330643Y-98052691D01*
X185336418Y-98054758D01*
X185341962Y-98057380D01*
X185347223Y-98060533D01*
X185352150Y-98064187D01*
X185356694Y-98068306D01*
X185360813Y-98072850D01*
X185364467Y-98077777D01*
X185367620Y-98083038D01*
X185370242Y-98088582D01*
X185372309Y-98094357D01*
X185373799Y-98100307D01*
X185374699Y-98106374D01*
X185375000Y-98112500D01*
X185375000Y-98787500D01*
X185374699Y-98793626D01*
X185373799Y-98799693D01*
X185372309Y-98805643D01*
X185370242Y-98811418D01*
X185367620Y-98816962D01*
X185364467Y-98822223D01*
X185360813Y-98827150D01*
X185356694Y-98831694D01*
X185352150Y-98835813D01*
X185347223Y-98839467D01*
X185341962Y-98842620D01*
X185336418Y-98845242D01*
X185330643Y-98847309D01*
X185324693Y-98848799D01*
X185318626Y-98849699D01*
X185312500Y-98850000D01*
X185187500Y-98850000D01*
X185181374Y-98849699D01*
X185175307Y-98848799D01*
X185169357Y-98847309D01*
X185163582Y-98845242D01*
X185158038Y-98842620D01*
X185152777Y-98839467D01*
X185147850Y-98835813D01*
X185143306Y-98831694D01*
X185139187Y-98827150D01*
X185135533Y-98822223D01*
X185132380Y-98816962D01*
X185129758Y-98811418D01*
X185127691Y-98805643D01*
X185126201Y-98799693D01*
X185125301Y-98793626D01*
X185125000Y-98787500D01*
X185125000Y-98112500D01*
X185125301Y-98106374D01*
X185126201Y-98100307D01*
X185127691Y-98094357D01*
X185129758Y-98088582D01*
X185132380Y-98083038D01*
X185135533Y-98077777D01*
X185139187Y-98072850D01*
X185143306Y-98068306D01*
X185147850Y-98064187D01*
X185152777Y-98060533D01*
X185158038Y-98057380D01*
X185163582Y-98054758D01*
X185169357Y-98052691D01*
X185175307Y-98051201D01*
X185181374Y-98050301D01*
X185187500Y-98050000D01*
X185312500Y-98050000D01*
X185318626Y-98050301D01*
G37*
G36*
X185818626Y-98050301D02*
G01*
X185824693Y-98051201D01*
X185830643Y-98052691D01*
X185836418Y-98054758D01*
X185841962Y-98057380D01*
X185847223Y-98060533D01*
X185852150Y-98064187D01*
X185856694Y-98068306D01*
X185860813Y-98072850D01*
X185864467Y-98077777D01*
X185867620Y-98083038D01*
X185870242Y-98088582D01*
X185872309Y-98094357D01*
X185873799Y-98100307D01*
X185874699Y-98106374D01*
X185875000Y-98112500D01*
X185875000Y-98787500D01*
X185874699Y-98793626D01*
X185873799Y-98799693D01*
X185872309Y-98805643D01*
X185870242Y-98811418D01*
X185867620Y-98816962D01*
X185864467Y-98822223D01*
X185860813Y-98827150D01*
X185856694Y-98831694D01*
X185852150Y-98835813D01*
X185847223Y-98839467D01*
X185841962Y-98842620D01*
X185836418Y-98845242D01*
X185830643Y-98847309D01*
X185824693Y-98848799D01*
X185818626Y-98849699D01*
X185812500Y-98850000D01*
X185687500Y-98850000D01*
X185681374Y-98849699D01*
X185675307Y-98848799D01*
X185669357Y-98847309D01*
X185663582Y-98845242D01*
X185658038Y-98842620D01*
X185652777Y-98839467D01*
X185647850Y-98835813D01*
X185643306Y-98831694D01*
X185639187Y-98827150D01*
X185635533Y-98822223D01*
X185632380Y-98816962D01*
X185629758Y-98811418D01*
X185627691Y-98805643D01*
X185626201Y-98799693D01*
X185625301Y-98793626D01*
X185625000Y-98787500D01*
X185625000Y-98112500D01*
X185625301Y-98106374D01*
X185626201Y-98100307D01*
X185627691Y-98094357D01*
X185629758Y-98088582D01*
X185632380Y-98083038D01*
X185635533Y-98077777D01*
X185639187Y-98072850D01*
X185643306Y-98068306D01*
X185647850Y-98064187D01*
X185652777Y-98060533D01*
X185658038Y-98057380D01*
X185663582Y-98054758D01*
X185669357Y-98052691D01*
X185675307Y-98051201D01*
X185681374Y-98050301D01*
X185687500Y-98050000D01*
X185812500Y-98050000D01*
X185818626Y-98050301D01*
G37*
G36*
X186318626Y-98050301D02*
G01*
X186324693Y-98051201D01*
X186330643Y-98052691D01*
X186336418Y-98054758D01*
X186341962Y-98057380D01*
X186347223Y-98060533D01*
X186352150Y-98064187D01*
X186356694Y-98068306D01*
X186360813Y-98072850D01*
X186364467Y-98077777D01*
X186367620Y-98083038D01*
X186370242Y-98088582D01*
X186372309Y-98094357D01*
X186373799Y-98100307D01*
X186374699Y-98106374D01*
X186375000Y-98112500D01*
X186375000Y-98787500D01*
X186374699Y-98793626D01*
X186373799Y-98799693D01*
X186372309Y-98805643D01*
X186370242Y-98811418D01*
X186367620Y-98816962D01*
X186364467Y-98822223D01*
X186360813Y-98827150D01*
X186356694Y-98831694D01*
X186352150Y-98835813D01*
X186347223Y-98839467D01*
X186341962Y-98842620D01*
X186336418Y-98845242D01*
X186330643Y-98847309D01*
X186324693Y-98848799D01*
X186318626Y-98849699D01*
X186312500Y-98850000D01*
X186187500Y-98850000D01*
X186181374Y-98849699D01*
X186175307Y-98848799D01*
X186169357Y-98847309D01*
X186163582Y-98845242D01*
X186158038Y-98842620D01*
X186152777Y-98839467D01*
X186147850Y-98835813D01*
X186143306Y-98831694D01*
X186139187Y-98827150D01*
X186135533Y-98822223D01*
X186132380Y-98816962D01*
X186129758Y-98811418D01*
X186127691Y-98805643D01*
X186126201Y-98799693D01*
X186125301Y-98793626D01*
X186125000Y-98787500D01*
X186125000Y-98112500D01*
X186125301Y-98106374D01*
X186126201Y-98100307D01*
X186127691Y-98094357D01*
X186129758Y-98088582D01*
X186132380Y-98083038D01*
X186135533Y-98077777D01*
X186139187Y-98072850D01*
X186143306Y-98068306D01*
X186147850Y-98064187D01*
X186152777Y-98060533D01*
X186158038Y-98057380D01*
X186163582Y-98054758D01*
X186169357Y-98052691D01*
X186175307Y-98051201D01*
X186181374Y-98050301D01*
X186187500Y-98050000D01*
X186312500Y-98050000D01*
X186318626Y-98050301D01*
G37*
G36*
X186818626Y-98050301D02*
G01*
X186824693Y-98051201D01*
X186830643Y-98052691D01*
X186836418Y-98054758D01*
X186841962Y-98057380D01*
X186847223Y-98060533D01*
X186852150Y-98064187D01*
X186856694Y-98068306D01*
X186860813Y-98072850D01*
X186864467Y-98077777D01*
X186867620Y-98083038D01*
X186870242Y-98088582D01*
X186872309Y-98094357D01*
X186873799Y-98100307D01*
X186874699Y-98106374D01*
X186875000Y-98112500D01*
X186875000Y-98787500D01*
X186874699Y-98793626D01*
X186873799Y-98799693D01*
X186872309Y-98805643D01*
X186870242Y-98811418D01*
X186867620Y-98816962D01*
X186864467Y-98822223D01*
X186860813Y-98827150D01*
X186856694Y-98831694D01*
X186852150Y-98835813D01*
X186847223Y-98839467D01*
X186841962Y-98842620D01*
X186836418Y-98845242D01*
X186830643Y-98847309D01*
X186824693Y-98848799D01*
X186818626Y-98849699D01*
X186812500Y-98850000D01*
X186687500Y-98850000D01*
X186681374Y-98849699D01*
X186675307Y-98848799D01*
X186669357Y-98847309D01*
X186663582Y-98845242D01*
X186658038Y-98842620D01*
X186652777Y-98839467D01*
X186647850Y-98835813D01*
X186643306Y-98831694D01*
X186639187Y-98827150D01*
X186635533Y-98822223D01*
X186632380Y-98816962D01*
X186629758Y-98811418D01*
X186627691Y-98805643D01*
X186626201Y-98799693D01*
X186625301Y-98793626D01*
X186625000Y-98787500D01*
X186625000Y-98112500D01*
X186625301Y-98106374D01*
X186626201Y-98100307D01*
X186627691Y-98094357D01*
X186629758Y-98088582D01*
X186632380Y-98083038D01*
X186635533Y-98077777D01*
X186639187Y-98072850D01*
X186643306Y-98068306D01*
X186647850Y-98064187D01*
X186652777Y-98060533D01*
X186658038Y-98057380D01*
X186663582Y-98054758D01*
X186669357Y-98052691D01*
X186675307Y-98051201D01*
X186681374Y-98050301D01*
X186687500Y-98050000D01*
X186812500Y-98050000D01*
X186818626Y-98050301D01*
G37*
G36*
X187318626Y-98050301D02*
G01*
X187324693Y-98051201D01*
X187330643Y-98052691D01*
X187336418Y-98054758D01*
X187341962Y-98057380D01*
X187347223Y-98060533D01*
X187352150Y-98064187D01*
X187356694Y-98068306D01*
X187360813Y-98072850D01*
X187364467Y-98077777D01*
X187367620Y-98083038D01*
X187370242Y-98088582D01*
X187372309Y-98094357D01*
X187373799Y-98100307D01*
X187374699Y-98106374D01*
X187375000Y-98112500D01*
X187375000Y-98787500D01*
X187374699Y-98793626D01*
X187373799Y-98799693D01*
X187372309Y-98805643D01*
X187370242Y-98811418D01*
X187367620Y-98816962D01*
X187364467Y-98822223D01*
X187360813Y-98827150D01*
X187356694Y-98831694D01*
X187352150Y-98835813D01*
X187347223Y-98839467D01*
X187341962Y-98842620D01*
X187336418Y-98845242D01*
X187330643Y-98847309D01*
X187324693Y-98848799D01*
X187318626Y-98849699D01*
X187312500Y-98850000D01*
X187187500Y-98850000D01*
X187181374Y-98849699D01*
X187175307Y-98848799D01*
X187169357Y-98847309D01*
X187163582Y-98845242D01*
X187158038Y-98842620D01*
X187152777Y-98839467D01*
X187147850Y-98835813D01*
X187143306Y-98831694D01*
X187139187Y-98827150D01*
X187135533Y-98822223D01*
X187132380Y-98816962D01*
X187129758Y-98811418D01*
X187127691Y-98805643D01*
X187126201Y-98799693D01*
X187125301Y-98793626D01*
X187125000Y-98787500D01*
X187125000Y-98112500D01*
X187125301Y-98106374D01*
X187126201Y-98100307D01*
X187127691Y-98094357D01*
X187129758Y-98088582D01*
X187132380Y-98083038D01*
X187135533Y-98077777D01*
X187139187Y-98072850D01*
X187143306Y-98068306D01*
X187147850Y-98064187D01*
X187152777Y-98060533D01*
X187158038Y-98057380D01*
X187163582Y-98054758D01*
X187169357Y-98052691D01*
X187175307Y-98051201D01*
X187181374Y-98050301D01*
X187187500Y-98050000D01*
X187312500Y-98050000D01*
X187318626Y-98050301D01*
G37*
G36*
X187818626Y-98050301D02*
G01*
X187824693Y-98051201D01*
X187830643Y-98052691D01*
X187836418Y-98054758D01*
X187841962Y-98057380D01*
X187847223Y-98060533D01*
X187852150Y-98064187D01*
X187856694Y-98068306D01*
X187860813Y-98072850D01*
X187864467Y-98077777D01*
X187867620Y-98083038D01*
X187870242Y-98088582D01*
X187872309Y-98094357D01*
X187873799Y-98100307D01*
X187874699Y-98106374D01*
X187875000Y-98112500D01*
X187875000Y-98787500D01*
X187874699Y-98793626D01*
X187873799Y-98799693D01*
X187872309Y-98805643D01*
X187870242Y-98811418D01*
X187867620Y-98816962D01*
X187864467Y-98822223D01*
X187860813Y-98827150D01*
X187856694Y-98831694D01*
X187852150Y-98835813D01*
X187847223Y-98839467D01*
X187841962Y-98842620D01*
X187836418Y-98845242D01*
X187830643Y-98847309D01*
X187824693Y-98848799D01*
X187818626Y-98849699D01*
X187812500Y-98850000D01*
X187687500Y-98850000D01*
X187681374Y-98849699D01*
X187675307Y-98848799D01*
X187669357Y-98847309D01*
X187663582Y-98845242D01*
X187658038Y-98842620D01*
X187652777Y-98839467D01*
X187647850Y-98835813D01*
X187643306Y-98831694D01*
X187639187Y-98827150D01*
X187635533Y-98822223D01*
X187632380Y-98816962D01*
X187629758Y-98811418D01*
X187627691Y-98805643D01*
X187626201Y-98799693D01*
X187625301Y-98793626D01*
X187625000Y-98787500D01*
X187625000Y-98112500D01*
X187625301Y-98106374D01*
X187626201Y-98100307D01*
X187627691Y-98094357D01*
X187629758Y-98088582D01*
X187632380Y-98083038D01*
X187635533Y-98077777D01*
X187639187Y-98072850D01*
X187643306Y-98068306D01*
X187647850Y-98064187D01*
X187652777Y-98060533D01*
X187658038Y-98057380D01*
X187663582Y-98054758D01*
X187669357Y-98052691D01*
X187675307Y-98051201D01*
X187681374Y-98050301D01*
X187687500Y-98050000D01*
X187812500Y-98050000D01*
X187818626Y-98050301D01*
G37*
G36*
X188318626Y-98050301D02*
G01*
X188324693Y-98051201D01*
X188330643Y-98052691D01*
X188336418Y-98054758D01*
X188341962Y-98057380D01*
X188347223Y-98060533D01*
X188352150Y-98064187D01*
X188356694Y-98068306D01*
X188360813Y-98072850D01*
X188364467Y-98077777D01*
X188367620Y-98083038D01*
X188370242Y-98088582D01*
X188372309Y-98094357D01*
X188373799Y-98100307D01*
X188374699Y-98106374D01*
X188375000Y-98112500D01*
X188375000Y-98787500D01*
X188374699Y-98793626D01*
X188373799Y-98799693D01*
X188372309Y-98805643D01*
X188370242Y-98811418D01*
X188367620Y-98816962D01*
X188364467Y-98822223D01*
X188360813Y-98827150D01*
X188356694Y-98831694D01*
X188352150Y-98835813D01*
X188347223Y-98839467D01*
X188341962Y-98842620D01*
X188336418Y-98845242D01*
X188330643Y-98847309D01*
X188324693Y-98848799D01*
X188318626Y-98849699D01*
X188312500Y-98850000D01*
X188187500Y-98850000D01*
X188181374Y-98849699D01*
X188175307Y-98848799D01*
X188169357Y-98847309D01*
X188163582Y-98845242D01*
X188158038Y-98842620D01*
X188152777Y-98839467D01*
X188147850Y-98835813D01*
X188143306Y-98831694D01*
X188139187Y-98827150D01*
X188135533Y-98822223D01*
X188132380Y-98816962D01*
X188129758Y-98811418D01*
X188127691Y-98805643D01*
X188126201Y-98799693D01*
X188125301Y-98793626D01*
X188125000Y-98787500D01*
X188125000Y-98112500D01*
X188125301Y-98106374D01*
X188126201Y-98100307D01*
X188127691Y-98094357D01*
X188129758Y-98088582D01*
X188132380Y-98083038D01*
X188135533Y-98077777D01*
X188139187Y-98072850D01*
X188143306Y-98068306D01*
X188147850Y-98064187D01*
X188152777Y-98060533D01*
X188158038Y-98057380D01*
X188163582Y-98054758D01*
X188169357Y-98052691D01*
X188175307Y-98051201D01*
X188181374Y-98050301D01*
X188187500Y-98050000D01*
X188312500Y-98050000D01*
X188318626Y-98050301D01*
G37*
G36*
X188818626Y-98050301D02*
G01*
X188824693Y-98051201D01*
X188830643Y-98052691D01*
X188836418Y-98054758D01*
X188841962Y-98057380D01*
X188847223Y-98060533D01*
X188852150Y-98064187D01*
X188856694Y-98068306D01*
X188860813Y-98072850D01*
X188864467Y-98077777D01*
X188867620Y-98083038D01*
X188870242Y-98088582D01*
X188872309Y-98094357D01*
X188873799Y-98100307D01*
X188874699Y-98106374D01*
X188875000Y-98112500D01*
X188875000Y-98787500D01*
X188874699Y-98793626D01*
X188873799Y-98799693D01*
X188872309Y-98805643D01*
X188870242Y-98811418D01*
X188867620Y-98816962D01*
X188864467Y-98822223D01*
X188860813Y-98827150D01*
X188856694Y-98831694D01*
X188852150Y-98835813D01*
X188847223Y-98839467D01*
X188841962Y-98842620D01*
X188836418Y-98845242D01*
X188830643Y-98847309D01*
X188824693Y-98848799D01*
X188818626Y-98849699D01*
X188812500Y-98850000D01*
X188687500Y-98850000D01*
X188681374Y-98849699D01*
X188675307Y-98848799D01*
X188669357Y-98847309D01*
X188663582Y-98845242D01*
X188658038Y-98842620D01*
X188652777Y-98839467D01*
X188647850Y-98835813D01*
X188643306Y-98831694D01*
X188639187Y-98827150D01*
X188635533Y-98822223D01*
X188632380Y-98816962D01*
X188629758Y-98811418D01*
X188627691Y-98805643D01*
X188626201Y-98799693D01*
X188625301Y-98793626D01*
X188625000Y-98787500D01*
X188625000Y-98112500D01*
X188625301Y-98106374D01*
X188626201Y-98100307D01*
X188627691Y-98094357D01*
X188629758Y-98088582D01*
X188632380Y-98083038D01*
X188635533Y-98077777D01*
X188639187Y-98072850D01*
X188643306Y-98068306D01*
X188647850Y-98064187D01*
X188652777Y-98060533D01*
X188658038Y-98057380D01*
X188663582Y-98054758D01*
X188669357Y-98052691D01*
X188675307Y-98051201D01*
X188681374Y-98050301D01*
X188687500Y-98050000D01*
X188812500Y-98050000D01*
X188818626Y-98050301D01*
G37*
G36*
X189318626Y-98050301D02*
G01*
X189324693Y-98051201D01*
X189330643Y-98052691D01*
X189336418Y-98054758D01*
X189341962Y-98057380D01*
X189347223Y-98060533D01*
X189352150Y-98064187D01*
X189356694Y-98068306D01*
X189360813Y-98072850D01*
X189364467Y-98077777D01*
X189367620Y-98083038D01*
X189370242Y-98088582D01*
X189372309Y-98094357D01*
X189373799Y-98100307D01*
X189374699Y-98106374D01*
X189375000Y-98112500D01*
X189375000Y-98787500D01*
X189374699Y-98793626D01*
X189373799Y-98799693D01*
X189372309Y-98805643D01*
X189370242Y-98811418D01*
X189367620Y-98816962D01*
X189364467Y-98822223D01*
X189360813Y-98827150D01*
X189356694Y-98831694D01*
X189352150Y-98835813D01*
X189347223Y-98839467D01*
X189341962Y-98842620D01*
X189336418Y-98845242D01*
X189330643Y-98847309D01*
X189324693Y-98848799D01*
X189318626Y-98849699D01*
X189312500Y-98850000D01*
X189187500Y-98850000D01*
X189181374Y-98849699D01*
X189175307Y-98848799D01*
X189169357Y-98847309D01*
X189163582Y-98845242D01*
X189158038Y-98842620D01*
X189152777Y-98839467D01*
X189147850Y-98835813D01*
X189143306Y-98831694D01*
X189139187Y-98827150D01*
X189135533Y-98822223D01*
X189132380Y-98816962D01*
X189129758Y-98811418D01*
X189127691Y-98805643D01*
X189126201Y-98799693D01*
X189125301Y-98793626D01*
X189125000Y-98787500D01*
X189125000Y-98112500D01*
X189125301Y-98106374D01*
X189126201Y-98100307D01*
X189127691Y-98094357D01*
X189129758Y-98088582D01*
X189132380Y-98083038D01*
X189135533Y-98077777D01*
X189139187Y-98072850D01*
X189143306Y-98068306D01*
X189147850Y-98064187D01*
X189152777Y-98060533D01*
X189158038Y-98057380D01*
X189163582Y-98054758D01*
X189169357Y-98052691D01*
X189175307Y-98051201D01*
X189181374Y-98050301D01*
X189187500Y-98050000D01*
X189312500Y-98050000D01*
X189318626Y-98050301D01*
G37*
G36*
X190293626Y-97625301D02*
G01*
X190299693Y-97626201D01*
X190305643Y-97627691D01*
X190311418Y-97629758D01*
X190316962Y-97632380D01*
X190322223Y-97635533D01*
X190327150Y-97639187D01*
X190331694Y-97643306D01*
X190335813Y-97647850D01*
X190339467Y-97652777D01*
X190342620Y-97658038D01*
X190345242Y-97663582D01*
X190347309Y-97669357D01*
X190348799Y-97675307D01*
X190349699Y-97681374D01*
X190350000Y-97687500D01*
X190350000Y-97812500D01*
X190349699Y-97818626D01*
X190348799Y-97824693D01*
X190347309Y-97830643D01*
X190345242Y-97836418D01*
X190342620Y-97841962D01*
X190339467Y-97847223D01*
X190335813Y-97852150D01*
X190331694Y-97856694D01*
X190327150Y-97860813D01*
X190322223Y-97864467D01*
X190316962Y-97867620D01*
X190311418Y-97870242D01*
X190305643Y-97872309D01*
X190299693Y-97873799D01*
X190293626Y-97874699D01*
X190287500Y-97875000D01*
X189612500Y-97875000D01*
X189606374Y-97874699D01*
X189600307Y-97873799D01*
X189594357Y-97872309D01*
X189588582Y-97870242D01*
X189583038Y-97867620D01*
X189577777Y-97864467D01*
X189572850Y-97860813D01*
X189568306Y-97856694D01*
X189564187Y-97852150D01*
X189560533Y-97847223D01*
X189557380Y-97841962D01*
X189554758Y-97836418D01*
X189552691Y-97830643D01*
X189551201Y-97824693D01*
X189550301Y-97818626D01*
X189550000Y-97812500D01*
X189550000Y-97687500D01*
X189550301Y-97681374D01*
X189551201Y-97675307D01*
X189552691Y-97669357D01*
X189554758Y-97663582D01*
X189557380Y-97658038D01*
X189560533Y-97652777D01*
X189564187Y-97647850D01*
X189568306Y-97643306D01*
X189572850Y-97639187D01*
X189577777Y-97635533D01*
X189583038Y-97632380D01*
X189588582Y-97629758D01*
X189594357Y-97627691D01*
X189600307Y-97626201D01*
X189606374Y-97625301D01*
X189612500Y-97625000D01*
X190287500Y-97625000D01*
X190293626Y-97625301D01*
G37*
G36*
X190293626Y-97125301D02*
G01*
X190299693Y-97126201D01*
X190305643Y-97127691D01*
X190311418Y-97129758D01*
X190316962Y-97132380D01*
X190322223Y-97135533D01*
X190327150Y-97139187D01*
X190331694Y-97143306D01*
X190335813Y-97147850D01*
X190339467Y-97152777D01*
X190342620Y-97158038D01*
X190345242Y-97163582D01*
X190347309Y-97169357D01*
X190348799Y-97175307D01*
X190349699Y-97181374D01*
X190350000Y-97187500D01*
X190350000Y-97312500D01*
X190349699Y-97318626D01*
X190348799Y-97324693D01*
X190347309Y-97330643D01*
X190345242Y-97336418D01*
X190342620Y-97341962D01*
X190339467Y-97347223D01*
X190335813Y-97352150D01*
X190331694Y-97356694D01*
X190327150Y-97360813D01*
X190322223Y-97364467D01*
X190316962Y-97367620D01*
X190311418Y-97370242D01*
X190305643Y-97372309D01*
X190299693Y-97373799D01*
X190293626Y-97374699D01*
X190287500Y-97375000D01*
X189612500Y-97375000D01*
X189606374Y-97374699D01*
X189600307Y-97373799D01*
X189594357Y-97372309D01*
X189588582Y-97370242D01*
X189583038Y-97367620D01*
X189577777Y-97364467D01*
X189572850Y-97360813D01*
X189568306Y-97356694D01*
X189564187Y-97352150D01*
X189560533Y-97347223D01*
X189557380Y-97341962D01*
X189554758Y-97336418D01*
X189552691Y-97330643D01*
X189551201Y-97324693D01*
X189550301Y-97318626D01*
X189550000Y-97312500D01*
X189550000Y-97187500D01*
X189550301Y-97181374D01*
X189551201Y-97175307D01*
X189552691Y-97169357D01*
X189554758Y-97163582D01*
X189557380Y-97158038D01*
X189560533Y-97152777D01*
X189564187Y-97147850D01*
X189568306Y-97143306D01*
X189572850Y-97139187D01*
X189577777Y-97135533D01*
X189583038Y-97132380D01*
X189588582Y-97129758D01*
X189594357Y-97127691D01*
X189600307Y-97126201D01*
X189606374Y-97125301D01*
X189612500Y-97125000D01*
X190287500Y-97125000D01*
X190293626Y-97125301D01*
G37*
G36*
X190293626Y-96625301D02*
G01*
X190299693Y-96626201D01*
X190305643Y-96627691D01*
X190311418Y-96629758D01*
X190316962Y-96632380D01*
X190322223Y-96635533D01*
X190327150Y-96639187D01*
X190331694Y-96643306D01*
X190335813Y-96647850D01*
X190339467Y-96652777D01*
X190342620Y-96658038D01*
X190345242Y-96663582D01*
X190347309Y-96669357D01*
X190348799Y-96675307D01*
X190349699Y-96681374D01*
X190350000Y-96687500D01*
X190350000Y-96812500D01*
X190349699Y-96818626D01*
X190348799Y-96824693D01*
X190347309Y-96830643D01*
X190345242Y-96836418D01*
X190342620Y-96841962D01*
X190339467Y-96847223D01*
X190335813Y-96852150D01*
X190331694Y-96856694D01*
X190327150Y-96860813D01*
X190322223Y-96864467D01*
X190316962Y-96867620D01*
X190311418Y-96870242D01*
X190305643Y-96872309D01*
X190299693Y-96873799D01*
X190293626Y-96874699D01*
X190287500Y-96875000D01*
X189612500Y-96875000D01*
X189606374Y-96874699D01*
X189600307Y-96873799D01*
X189594357Y-96872309D01*
X189588582Y-96870242D01*
X189583038Y-96867620D01*
X189577777Y-96864467D01*
X189572850Y-96860813D01*
X189568306Y-96856694D01*
X189564187Y-96852150D01*
X189560533Y-96847223D01*
X189557380Y-96841962D01*
X189554758Y-96836418D01*
X189552691Y-96830643D01*
X189551201Y-96824693D01*
X189550301Y-96818626D01*
X189550000Y-96812500D01*
X189550000Y-96687500D01*
X189550301Y-96681374D01*
X189551201Y-96675307D01*
X189552691Y-96669357D01*
X189554758Y-96663582D01*
X189557380Y-96658038D01*
X189560533Y-96652777D01*
X189564187Y-96647850D01*
X189568306Y-96643306D01*
X189572850Y-96639187D01*
X189577777Y-96635533D01*
X189583038Y-96632380D01*
X189588582Y-96629758D01*
X189594357Y-96627691D01*
X189600307Y-96626201D01*
X189606374Y-96625301D01*
X189612500Y-96625000D01*
X190287500Y-96625000D01*
X190293626Y-96625301D01*
G37*
G36*
X190293626Y-96125301D02*
G01*
X190299693Y-96126201D01*
X190305643Y-96127691D01*
X190311418Y-96129758D01*
X190316962Y-96132380D01*
X190322223Y-96135533D01*
X190327150Y-96139187D01*
X190331694Y-96143306D01*
X190335813Y-96147850D01*
X190339467Y-96152777D01*
X190342620Y-96158038D01*
X190345242Y-96163582D01*
X190347309Y-96169357D01*
X190348799Y-96175307D01*
X190349699Y-96181374D01*
X190350000Y-96187500D01*
X190350000Y-96312500D01*
X190349699Y-96318626D01*
X190348799Y-96324693D01*
X190347309Y-96330643D01*
X190345242Y-96336418D01*
X190342620Y-96341962D01*
X190339467Y-96347223D01*
X190335813Y-96352150D01*
X190331694Y-96356694D01*
X190327150Y-96360813D01*
X190322223Y-96364467D01*
X190316962Y-96367620D01*
X190311418Y-96370242D01*
X190305643Y-96372309D01*
X190299693Y-96373799D01*
X190293626Y-96374699D01*
X190287500Y-96375000D01*
X189612500Y-96375000D01*
X189606374Y-96374699D01*
X189600307Y-96373799D01*
X189594357Y-96372309D01*
X189588582Y-96370242D01*
X189583038Y-96367620D01*
X189577777Y-96364467D01*
X189572850Y-96360813D01*
X189568306Y-96356694D01*
X189564187Y-96352150D01*
X189560533Y-96347223D01*
X189557380Y-96341962D01*
X189554758Y-96336418D01*
X189552691Y-96330643D01*
X189551201Y-96324693D01*
X189550301Y-96318626D01*
X189550000Y-96312500D01*
X189550000Y-96187500D01*
X189550301Y-96181374D01*
X189551201Y-96175307D01*
X189552691Y-96169357D01*
X189554758Y-96163582D01*
X189557380Y-96158038D01*
X189560533Y-96152777D01*
X189564187Y-96147850D01*
X189568306Y-96143306D01*
X189572850Y-96139187D01*
X189577777Y-96135533D01*
X189583038Y-96132380D01*
X189588582Y-96129758D01*
X189594357Y-96127691D01*
X189600307Y-96126201D01*
X189606374Y-96125301D01*
X189612500Y-96125000D01*
X190287500Y-96125000D01*
X190293626Y-96125301D01*
G37*
G36*
X190293626Y-95625301D02*
G01*
X190299693Y-95626201D01*
X190305643Y-95627691D01*
X190311418Y-95629758D01*
X190316962Y-95632380D01*
X190322223Y-95635533D01*
X190327150Y-95639187D01*
X190331694Y-95643306D01*
X190335813Y-95647850D01*
X190339467Y-95652777D01*
X190342620Y-95658038D01*
X190345242Y-95663582D01*
X190347309Y-95669357D01*
X190348799Y-95675307D01*
X190349699Y-95681374D01*
X190350000Y-95687500D01*
X190350000Y-95812500D01*
X190349699Y-95818626D01*
X190348799Y-95824693D01*
X190347309Y-95830643D01*
X190345242Y-95836418D01*
X190342620Y-95841962D01*
X190339467Y-95847223D01*
X190335813Y-95852150D01*
X190331694Y-95856694D01*
X190327150Y-95860813D01*
X190322223Y-95864467D01*
X190316962Y-95867620D01*
X190311418Y-95870242D01*
X190305643Y-95872309D01*
X190299693Y-95873799D01*
X190293626Y-95874699D01*
X190287500Y-95875000D01*
X189612500Y-95875000D01*
X189606374Y-95874699D01*
X189600307Y-95873799D01*
X189594357Y-95872309D01*
X189588582Y-95870242D01*
X189583038Y-95867620D01*
X189577777Y-95864467D01*
X189572850Y-95860813D01*
X189568306Y-95856694D01*
X189564187Y-95852150D01*
X189560533Y-95847223D01*
X189557380Y-95841962D01*
X189554758Y-95836418D01*
X189552691Y-95830643D01*
X189551201Y-95824693D01*
X189550301Y-95818626D01*
X189550000Y-95812500D01*
X189550000Y-95687500D01*
X189550301Y-95681374D01*
X189551201Y-95675307D01*
X189552691Y-95669357D01*
X189554758Y-95663582D01*
X189557380Y-95658038D01*
X189560533Y-95652777D01*
X189564187Y-95647850D01*
X189568306Y-95643306D01*
X189572850Y-95639187D01*
X189577777Y-95635533D01*
X189583038Y-95632380D01*
X189588582Y-95629758D01*
X189594357Y-95627691D01*
X189600307Y-95626201D01*
X189606374Y-95625301D01*
X189612500Y-95625000D01*
X190287500Y-95625000D01*
X190293626Y-95625301D01*
G37*
G36*
X190293626Y-95125301D02*
G01*
X190299693Y-95126201D01*
X190305643Y-95127691D01*
X190311418Y-95129758D01*
X190316962Y-95132380D01*
X190322223Y-95135533D01*
X190327150Y-95139187D01*
X190331694Y-95143306D01*
X190335813Y-95147850D01*
X190339467Y-95152777D01*
X190342620Y-95158038D01*
X190345242Y-95163582D01*
X190347309Y-95169357D01*
X190348799Y-95175307D01*
X190349699Y-95181374D01*
X190350000Y-95187500D01*
X190350000Y-95312500D01*
X190349699Y-95318626D01*
X190348799Y-95324693D01*
X190347309Y-95330643D01*
X190345242Y-95336418D01*
X190342620Y-95341962D01*
X190339467Y-95347223D01*
X190335813Y-95352150D01*
X190331694Y-95356694D01*
X190327150Y-95360813D01*
X190322223Y-95364467D01*
X190316962Y-95367620D01*
X190311418Y-95370242D01*
X190305643Y-95372309D01*
X190299693Y-95373799D01*
X190293626Y-95374699D01*
X190287500Y-95375000D01*
X189612500Y-95375000D01*
X189606374Y-95374699D01*
X189600307Y-95373799D01*
X189594357Y-95372309D01*
X189588582Y-95370242D01*
X189583038Y-95367620D01*
X189577777Y-95364467D01*
X189572850Y-95360813D01*
X189568306Y-95356694D01*
X189564187Y-95352150D01*
X189560533Y-95347223D01*
X189557380Y-95341962D01*
X189554758Y-95336418D01*
X189552691Y-95330643D01*
X189551201Y-95324693D01*
X189550301Y-95318626D01*
X189550000Y-95312500D01*
X189550000Y-95187500D01*
X189550301Y-95181374D01*
X189551201Y-95175307D01*
X189552691Y-95169357D01*
X189554758Y-95163582D01*
X189557380Y-95158038D01*
X189560533Y-95152777D01*
X189564187Y-95147850D01*
X189568306Y-95143306D01*
X189572850Y-95139187D01*
X189577777Y-95135533D01*
X189583038Y-95132380D01*
X189588582Y-95129758D01*
X189594357Y-95127691D01*
X189600307Y-95126201D01*
X189606374Y-95125301D01*
X189612500Y-95125000D01*
X190287500Y-95125000D01*
X190293626Y-95125301D01*
G37*
G36*
X190293626Y-94625301D02*
G01*
X190299693Y-94626201D01*
X190305643Y-94627691D01*
X190311418Y-94629758D01*
X190316962Y-94632380D01*
X190322223Y-94635533D01*
X190327150Y-94639187D01*
X190331694Y-94643306D01*
X190335813Y-94647850D01*
X190339467Y-94652777D01*
X190342620Y-94658038D01*
X190345242Y-94663582D01*
X190347309Y-94669357D01*
X190348799Y-94675307D01*
X190349699Y-94681374D01*
X190350000Y-94687500D01*
X190350000Y-94812500D01*
X190349699Y-94818626D01*
X190348799Y-94824693D01*
X190347309Y-94830643D01*
X190345242Y-94836418D01*
X190342620Y-94841962D01*
X190339467Y-94847223D01*
X190335813Y-94852150D01*
X190331694Y-94856694D01*
X190327150Y-94860813D01*
X190322223Y-94864467D01*
X190316962Y-94867620D01*
X190311418Y-94870242D01*
X190305643Y-94872309D01*
X190299693Y-94873799D01*
X190293626Y-94874699D01*
X190287500Y-94875000D01*
X189612500Y-94875000D01*
X189606374Y-94874699D01*
X189600307Y-94873799D01*
X189594357Y-94872309D01*
X189588582Y-94870242D01*
X189583038Y-94867620D01*
X189577777Y-94864467D01*
X189572850Y-94860813D01*
X189568306Y-94856694D01*
X189564187Y-94852150D01*
X189560533Y-94847223D01*
X189557380Y-94841962D01*
X189554758Y-94836418D01*
X189552691Y-94830643D01*
X189551201Y-94824693D01*
X189550301Y-94818626D01*
X189550000Y-94812500D01*
X189550000Y-94687500D01*
X189550301Y-94681374D01*
X189551201Y-94675307D01*
X189552691Y-94669357D01*
X189554758Y-94663582D01*
X189557380Y-94658038D01*
X189560533Y-94652777D01*
X189564187Y-94647850D01*
X189568306Y-94643306D01*
X189572850Y-94639187D01*
X189577777Y-94635533D01*
X189583038Y-94632380D01*
X189588582Y-94629758D01*
X189594357Y-94627691D01*
X189600307Y-94626201D01*
X189606374Y-94625301D01*
X189612500Y-94625000D01*
X190287500Y-94625000D01*
X190293626Y-94625301D01*
G37*
G36*
X190293626Y-94125301D02*
G01*
X190299693Y-94126201D01*
X190305643Y-94127691D01*
X190311418Y-94129758D01*
X190316962Y-94132380D01*
X190322223Y-94135533D01*
X190327150Y-94139187D01*
X190331694Y-94143306D01*
X190335813Y-94147850D01*
X190339467Y-94152777D01*
X190342620Y-94158038D01*
X190345242Y-94163582D01*
X190347309Y-94169357D01*
X190348799Y-94175307D01*
X190349699Y-94181374D01*
X190350000Y-94187500D01*
X190350000Y-94312500D01*
X190349699Y-94318626D01*
X190348799Y-94324693D01*
X190347309Y-94330643D01*
X190345242Y-94336418D01*
X190342620Y-94341962D01*
X190339467Y-94347223D01*
X190335813Y-94352150D01*
X190331694Y-94356694D01*
X190327150Y-94360813D01*
X190322223Y-94364467D01*
X190316962Y-94367620D01*
X190311418Y-94370242D01*
X190305643Y-94372309D01*
X190299693Y-94373799D01*
X190293626Y-94374699D01*
X190287500Y-94375000D01*
X189612500Y-94375000D01*
X189606374Y-94374699D01*
X189600307Y-94373799D01*
X189594357Y-94372309D01*
X189588582Y-94370242D01*
X189583038Y-94367620D01*
X189577777Y-94364467D01*
X189572850Y-94360813D01*
X189568306Y-94356694D01*
X189564187Y-94352150D01*
X189560533Y-94347223D01*
X189557380Y-94341962D01*
X189554758Y-94336418D01*
X189552691Y-94330643D01*
X189551201Y-94324693D01*
X189550301Y-94318626D01*
X189550000Y-94312500D01*
X189550000Y-94187500D01*
X189550301Y-94181374D01*
X189551201Y-94175307D01*
X189552691Y-94169357D01*
X189554758Y-94163582D01*
X189557380Y-94158038D01*
X189560533Y-94152777D01*
X189564187Y-94147850D01*
X189568306Y-94143306D01*
X189572850Y-94139187D01*
X189577777Y-94135533D01*
X189583038Y-94132380D01*
X189588582Y-94129758D01*
X189594357Y-94127691D01*
X189600307Y-94126201D01*
X189606374Y-94125301D01*
X189612500Y-94125000D01*
X190287500Y-94125000D01*
X190293626Y-94125301D01*
G37*
G36*
X190293626Y-93625301D02*
G01*
X190299693Y-93626201D01*
X190305643Y-93627691D01*
X190311418Y-93629758D01*
X190316962Y-93632380D01*
X190322223Y-93635533D01*
X190327150Y-93639187D01*
X190331694Y-93643306D01*
X190335813Y-93647850D01*
X190339467Y-93652777D01*
X190342620Y-93658038D01*
X190345242Y-93663582D01*
X190347309Y-93669357D01*
X190348799Y-93675307D01*
X190349699Y-93681374D01*
X190350000Y-93687500D01*
X190350000Y-93812500D01*
X190349699Y-93818626D01*
X190348799Y-93824693D01*
X190347309Y-93830643D01*
X190345242Y-93836418D01*
X190342620Y-93841962D01*
X190339467Y-93847223D01*
X190335813Y-93852150D01*
X190331694Y-93856694D01*
X190327150Y-93860813D01*
X190322223Y-93864467D01*
X190316962Y-93867620D01*
X190311418Y-93870242D01*
X190305643Y-93872309D01*
X190299693Y-93873799D01*
X190293626Y-93874699D01*
X190287500Y-93875000D01*
X189612500Y-93875000D01*
X189606374Y-93874699D01*
X189600307Y-93873799D01*
X189594357Y-93872309D01*
X189588582Y-93870242D01*
X189583038Y-93867620D01*
X189577777Y-93864467D01*
X189572850Y-93860813D01*
X189568306Y-93856694D01*
X189564187Y-93852150D01*
X189560533Y-93847223D01*
X189557380Y-93841962D01*
X189554758Y-93836418D01*
X189552691Y-93830643D01*
X189551201Y-93824693D01*
X189550301Y-93818626D01*
X189550000Y-93812500D01*
X189550000Y-93687500D01*
X189550301Y-93681374D01*
X189551201Y-93675307D01*
X189552691Y-93669357D01*
X189554758Y-93663582D01*
X189557380Y-93658038D01*
X189560533Y-93652777D01*
X189564187Y-93647850D01*
X189568306Y-93643306D01*
X189572850Y-93639187D01*
X189577777Y-93635533D01*
X189583038Y-93632380D01*
X189588582Y-93629758D01*
X189594357Y-93627691D01*
X189600307Y-93626201D01*
X189606374Y-93625301D01*
X189612500Y-93625000D01*
X190287500Y-93625000D01*
X190293626Y-93625301D01*
G37*
G36*
X190293626Y-93125301D02*
G01*
X190299693Y-93126201D01*
X190305643Y-93127691D01*
X190311418Y-93129758D01*
X190316962Y-93132380D01*
X190322223Y-93135533D01*
X190327150Y-93139187D01*
X190331694Y-93143306D01*
X190335813Y-93147850D01*
X190339467Y-93152777D01*
X190342620Y-93158038D01*
X190345242Y-93163582D01*
X190347309Y-93169357D01*
X190348799Y-93175307D01*
X190349699Y-93181374D01*
X190350000Y-93187500D01*
X190350000Y-93312500D01*
X190349699Y-93318626D01*
X190348799Y-93324693D01*
X190347309Y-93330643D01*
X190345242Y-93336418D01*
X190342620Y-93341962D01*
X190339467Y-93347223D01*
X190335813Y-93352150D01*
X190331694Y-93356694D01*
X190327150Y-93360813D01*
X190322223Y-93364467D01*
X190316962Y-93367620D01*
X190311418Y-93370242D01*
X190305643Y-93372309D01*
X190299693Y-93373799D01*
X190293626Y-93374699D01*
X190287500Y-93375000D01*
X189612500Y-93375000D01*
X189606374Y-93374699D01*
X189600307Y-93373799D01*
X189594357Y-93372309D01*
X189588582Y-93370242D01*
X189583038Y-93367620D01*
X189577777Y-93364467D01*
X189572850Y-93360813D01*
X189568306Y-93356694D01*
X189564187Y-93352150D01*
X189560533Y-93347223D01*
X189557380Y-93341962D01*
X189554758Y-93336418D01*
X189552691Y-93330643D01*
X189551201Y-93324693D01*
X189550301Y-93318626D01*
X189550000Y-93312500D01*
X189550000Y-93187500D01*
X189550301Y-93181374D01*
X189551201Y-93175307D01*
X189552691Y-93169357D01*
X189554758Y-93163582D01*
X189557380Y-93158038D01*
X189560533Y-93152777D01*
X189564187Y-93147850D01*
X189568306Y-93143306D01*
X189572850Y-93139187D01*
X189577777Y-93135533D01*
X189583038Y-93132380D01*
X189588582Y-93129758D01*
X189594357Y-93127691D01*
X189600307Y-93126201D01*
X189606374Y-93125301D01*
X189612500Y-93125000D01*
X190287500Y-93125000D01*
X190293626Y-93125301D01*
G37*
G36*
X190293626Y-92625301D02*
G01*
X190299693Y-92626201D01*
X190305643Y-92627691D01*
X190311418Y-92629758D01*
X190316962Y-92632380D01*
X190322223Y-92635533D01*
X190327150Y-92639187D01*
X190331694Y-92643306D01*
X190335813Y-92647850D01*
X190339467Y-92652777D01*
X190342620Y-92658038D01*
X190345242Y-92663582D01*
X190347309Y-92669357D01*
X190348799Y-92675307D01*
X190349699Y-92681374D01*
X190350000Y-92687500D01*
X190350000Y-92812500D01*
X190349699Y-92818626D01*
X190348799Y-92824693D01*
X190347309Y-92830643D01*
X190345242Y-92836418D01*
X190342620Y-92841962D01*
X190339467Y-92847223D01*
X190335813Y-92852150D01*
X190331694Y-92856694D01*
X190327150Y-92860813D01*
X190322223Y-92864467D01*
X190316962Y-92867620D01*
X190311418Y-92870242D01*
X190305643Y-92872309D01*
X190299693Y-92873799D01*
X190293626Y-92874699D01*
X190287500Y-92875000D01*
X189612500Y-92875000D01*
X189606374Y-92874699D01*
X189600307Y-92873799D01*
X189594357Y-92872309D01*
X189588582Y-92870242D01*
X189583038Y-92867620D01*
X189577777Y-92864467D01*
X189572850Y-92860813D01*
X189568306Y-92856694D01*
X189564187Y-92852150D01*
X189560533Y-92847223D01*
X189557380Y-92841962D01*
X189554758Y-92836418D01*
X189552691Y-92830643D01*
X189551201Y-92824693D01*
X189550301Y-92818626D01*
X189550000Y-92812500D01*
X189550000Y-92687500D01*
X189550301Y-92681374D01*
X189551201Y-92675307D01*
X189552691Y-92669357D01*
X189554758Y-92663582D01*
X189557380Y-92658038D01*
X189560533Y-92652777D01*
X189564187Y-92647850D01*
X189568306Y-92643306D01*
X189572850Y-92639187D01*
X189577777Y-92635533D01*
X189583038Y-92632380D01*
X189588582Y-92629758D01*
X189594357Y-92627691D01*
X189600307Y-92626201D01*
X189606374Y-92625301D01*
X189612500Y-92625000D01*
X190287500Y-92625000D01*
X190293626Y-92625301D01*
G37*
G36*
X190293626Y-92125301D02*
G01*
X190299693Y-92126201D01*
X190305643Y-92127691D01*
X190311418Y-92129758D01*
X190316962Y-92132380D01*
X190322223Y-92135533D01*
X190327150Y-92139187D01*
X190331694Y-92143306D01*
X190335813Y-92147850D01*
X190339467Y-92152777D01*
X190342620Y-92158038D01*
X190345242Y-92163582D01*
X190347309Y-92169357D01*
X190348799Y-92175307D01*
X190349699Y-92181374D01*
X190350000Y-92187500D01*
X190350000Y-92312500D01*
X190349699Y-92318626D01*
X190348799Y-92324693D01*
X190347309Y-92330643D01*
X190345242Y-92336418D01*
X190342620Y-92341962D01*
X190339467Y-92347223D01*
X190335813Y-92352150D01*
X190331694Y-92356694D01*
X190327150Y-92360813D01*
X190322223Y-92364467D01*
X190316962Y-92367620D01*
X190311418Y-92370242D01*
X190305643Y-92372309D01*
X190299693Y-92373799D01*
X190293626Y-92374699D01*
X190287500Y-92375000D01*
X189612500Y-92375000D01*
X189606374Y-92374699D01*
X189600307Y-92373799D01*
X189594357Y-92372309D01*
X189588582Y-92370242D01*
X189583038Y-92367620D01*
X189577777Y-92364467D01*
X189572850Y-92360813D01*
X189568306Y-92356694D01*
X189564187Y-92352150D01*
X189560533Y-92347223D01*
X189557380Y-92341962D01*
X189554758Y-92336418D01*
X189552691Y-92330643D01*
X189551201Y-92324693D01*
X189550301Y-92318626D01*
X189550000Y-92312500D01*
X189550000Y-92187500D01*
X189550301Y-92181374D01*
X189551201Y-92175307D01*
X189552691Y-92169357D01*
X189554758Y-92163582D01*
X189557380Y-92158038D01*
X189560533Y-92152777D01*
X189564187Y-92147850D01*
X189568306Y-92143306D01*
X189572850Y-92139187D01*
X189577777Y-92135533D01*
X189583038Y-92132380D01*
X189588582Y-92129758D01*
X189594357Y-92127691D01*
X189600307Y-92126201D01*
X189606374Y-92125301D01*
X189612500Y-92125000D01*
X190287500Y-92125000D01*
X190293626Y-92125301D01*
G37*
G36*
X189318626Y-91150301D02*
G01*
X189324693Y-91151201D01*
X189330643Y-91152691D01*
X189336418Y-91154758D01*
X189341962Y-91157380D01*
X189347223Y-91160533D01*
X189352150Y-91164187D01*
X189356694Y-91168306D01*
X189360813Y-91172850D01*
X189364467Y-91177777D01*
X189367620Y-91183038D01*
X189370242Y-91188582D01*
X189372309Y-91194357D01*
X189373799Y-91200307D01*
X189374699Y-91206374D01*
X189375000Y-91212500D01*
X189375000Y-91887500D01*
X189374699Y-91893626D01*
X189373799Y-91899693D01*
X189372309Y-91905643D01*
X189370242Y-91911418D01*
X189367620Y-91916962D01*
X189364467Y-91922223D01*
X189360813Y-91927150D01*
X189356694Y-91931694D01*
X189352150Y-91935813D01*
X189347223Y-91939467D01*
X189341962Y-91942620D01*
X189336418Y-91945242D01*
X189330643Y-91947309D01*
X189324693Y-91948799D01*
X189318626Y-91949699D01*
X189312500Y-91950000D01*
X189187500Y-91950000D01*
X189181374Y-91949699D01*
X189175307Y-91948799D01*
X189169357Y-91947309D01*
X189163582Y-91945242D01*
X189158038Y-91942620D01*
X189152777Y-91939467D01*
X189147850Y-91935813D01*
X189143306Y-91931694D01*
X189139187Y-91927150D01*
X189135533Y-91922223D01*
X189132380Y-91916962D01*
X189129758Y-91911418D01*
X189127691Y-91905643D01*
X189126201Y-91899693D01*
X189125301Y-91893626D01*
X189125000Y-91887500D01*
X189125000Y-91212500D01*
X189125301Y-91206374D01*
X189126201Y-91200307D01*
X189127691Y-91194357D01*
X189129758Y-91188582D01*
X189132380Y-91183038D01*
X189135533Y-91177777D01*
X189139187Y-91172850D01*
X189143306Y-91168306D01*
X189147850Y-91164187D01*
X189152777Y-91160533D01*
X189158038Y-91157380D01*
X189163582Y-91154758D01*
X189169357Y-91152691D01*
X189175307Y-91151201D01*
X189181374Y-91150301D01*
X189187500Y-91150000D01*
X189312500Y-91150000D01*
X189318626Y-91150301D01*
G37*
G36*
X188818626Y-91150301D02*
G01*
X188824693Y-91151201D01*
X188830643Y-91152691D01*
X188836418Y-91154758D01*
X188841962Y-91157380D01*
X188847223Y-91160533D01*
X188852150Y-91164187D01*
X188856694Y-91168306D01*
X188860813Y-91172850D01*
X188864467Y-91177777D01*
X188867620Y-91183038D01*
X188870242Y-91188582D01*
X188872309Y-91194357D01*
X188873799Y-91200307D01*
X188874699Y-91206374D01*
X188875000Y-91212500D01*
X188875000Y-91887500D01*
X188874699Y-91893626D01*
X188873799Y-91899693D01*
X188872309Y-91905643D01*
X188870242Y-91911418D01*
X188867620Y-91916962D01*
X188864467Y-91922223D01*
X188860813Y-91927150D01*
X188856694Y-91931694D01*
X188852150Y-91935813D01*
X188847223Y-91939467D01*
X188841962Y-91942620D01*
X188836418Y-91945242D01*
X188830643Y-91947309D01*
X188824693Y-91948799D01*
X188818626Y-91949699D01*
X188812500Y-91950000D01*
X188687500Y-91950000D01*
X188681374Y-91949699D01*
X188675307Y-91948799D01*
X188669357Y-91947309D01*
X188663582Y-91945242D01*
X188658038Y-91942620D01*
X188652777Y-91939467D01*
X188647850Y-91935813D01*
X188643306Y-91931694D01*
X188639187Y-91927150D01*
X188635533Y-91922223D01*
X188632380Y-91916962D01*
X188629758Y-91911418D01*
X188627691Y-91905643D01*
X188626201Y-91899693D01*
X188625301Y-91893626D01*
X188625000Y-91887500D01*
X188625000Y-91212500D01*
X188625301Y-91206374D01*
X188626201Y-91200307D01*
X188627691Y-91194357D01*
X188629758Y-91188582D01*
X188632380Y-91183038D01*
X188635533Y-91177777D01*
X188639187Y-91172850D01*
X188643306Y-91168306D01*
X188647850Y-91164187D01*
X188652777Y-91160533D01*
X188658038Y-91157380D01*
X188663582Y-91154758D01*
X188669357Y-91152691D01*
X188675307Y-91151201D01*
X188681374Y-91150301D01*
X188687500Y-91150000D01*
X188812500Y-91150000D01*
X188818626Y-91150301D01*
G37*
G36*
X188318626Y-91150301D02*
G01*
X188324693Y-91151201D01*
X188330643Y-91152691D01*
X188336418Y-91154758D01*
X188341962Y-91157380D01*
X188347223Y-91160533D01*
X188352150Y-91164187D01*
X188356694Y-91168306D01*
X188360813Y-91172850D01*
X188364467Y-91177777D01*
X188367620Y-91183038D01*
X188370242Y-91188582D01*
X188372309Y-91194357D01*
X188373799Y-91200307D01*
X188374699Y-91206374D01*
X188375000Y-91212500D01*
X188375000Y-91887500D01*
X188374699Y-91893626D01*
X188373799Y-91899693D01*
X188372309Y-91905643D01*
X188370242Y-91911418D01*
X188367620Y-91916962D01*
X188364467Y-91922223D01*
X188360813Y-91927150D01*
X188356694Y-91931694D01*
X188352150Y-91935813D01*
X188347223Y-91939467D01*
X188341962Y-91942620D01*
X188336418Y-91945242D01*
X188330643Y-91947309D01*
X188324693Y-91948799D01*
X188318626Y-91949699D01*
X188312500Y-91950000D01*
X188187500Y-91950000D01*
X188181374Y-91949699D01*
X188175307Y-91948799D01*
X188169357Y-91947309D01*
X188163582Y-91945242D01*
X188158038Y-91942620D01*
X188152777Y-91939467D01*
X188147850Y-91935813D01*
X188143306Y-91931694D01*
X188139187Y-91927150D01*
X188135533Y-91922223D01*
X188132380Y-91916962D01*
X188129758Y-91911418D01*
X188127691Y-91905643D01*
X188126201Y-91899693D01*
X188125301Y-91893626D01*
X188125000Y-91887500D01*
X188125000Y-91212500D01*
X188125301Y-91206374D01*
X188126201Y-91200307D01*
X188127691Y-91194357D01*
X188129758Y-91188582D01*
X188132380Y-91183038D01*
X188135533Y-91177777D01*
X188139187Y-91172850D01*
X188143306Y-91168306D01*
X188147850Y-91164187D01*
X188152777Y-91160533D01*
X188158038Y-91157380D01*
X188163582Y-91154758D01*
X188169357Y-91152691D01*
X188175307Y-91151201D01*
X188181374Y-91150301D01*
X188187500Y-91150000D01*
X188312500Y-91150000D01*
X188318626Y-91150301D01*
G37*
G36*
X187818626Y-91150301D02*
G01*
X187824693Y-91151201D01*
X187830643Y-91152691D01*
X187836418Y-91154758D01*
X187841962Y-91157380D01*
X187847223Y-91160533D01*
X187852150Y-91164187D01*
X187856694Y-91168306D01*
X187860813Y-91172850D01*
X187864467Y-91177777D01*
X187867620Y-91183038D01*
X187870242Y-91188582D01*
X187872309Y-91194357D01*
X187873799Y-91200307D01*
X187874699Y-91206374D01*
X187875000Y-91212500D01*
X187875000Y-91887500D01*
X187874699Y-91893626D01*
X187873799Y-91899693D01*
X187872309Y-91905643D01*
X187870242Y-91911418D01*
X187867620Y-91916962D01*
X187864467Y-91922223D01*
X187860813Y-91927150D01*
X187856694Y-91931694D01*
X187852150Y-91935813D01*
X187847223Y-91939467D01*
X187841962Y-91942620D01*
X187836418Y-91945242D01*
X187830643Y-91947309D01*
X187824693Y-91948799D01*
X187818626Y-91949699D01*
X187812500Y-91950000D01*
X187687500Y-91950000D01*
X187681374Y-91949699D01*
X187675307Y-91948799D01*
X187669357Y-91947309D01*
X187663582Y-91945242D01*
X187658038Y-91942620D01*
X187652777Y-91939467D01*
X187647850Y-91935813D01*
X187643306Y-91931694D01*
X187639187Y-91927150D01*
X187635533Y-91922223D01*
X187632380Y-91916962D01*
X187629758Y-91911418D01*
X187627691Y-91905643D01*
X187626201Y-91899693D01*
X187625301Y-91893626D01*
X187625000Y-91887500D01*
X187625000Y-91212500D01*
X187625301Y-91206374D01*
X187626201Y-91200307D01*
X187627691Y-91194357D01*
X187629758Y-91188582D01*
X187632380Y-91183038D01*
X187635533Y-91177777D01*
X187639187Y-91172850D01*
X187643306Y-91168306D01*
X187647850Y-91164187D01*
X187652777Y-91160533D01*
X187658038Y-91157380D01*
X187663582Y-91154758D01*
X187669357Y-91152691D01*
X187675307Y-91151201D01*
X187681374Y-91150301D01*
X187687500Y-91150000D01*
X187812500Y-91150000D01*
X187818626Y-91150301D01*
G37*
G36*
X187318626Y-91150301D02*
G01*
X187324693Y-91151201D01*
X187330643Y-91152691D01*
X187336418Y-91154758D01*
X187341962Y-91157380D01*
X187347223Y-91160533D01*
X187352150Y-91164187D01*
X187356694Y-91168306D01*
X187360813Y-91172850D01*
X187364467Y-91177777D01*
X187367620Y-91183038D01*
X187370242Y-91188582D01*
X187372309Y-91194357D01*
X187373799Y-91200307D01*
X187374699Y-91206374D01*
X187375000Y-91212500D01*
X187375000Y-91887500D01*
X187374699Y-91893626D01*
X187373799Y-91899693D01*
X187372309Y-91905643D01*
X187370242Y-91911418D01*
X187367620Y-91916962D01*
X187364467Y-91922223D01*
X187360813Y-91927150D01*
X187356694Y-91931694D01*
X187352150Y-91935813D01*
X187347223Y-91939467D01*
X187341962Y-91942620D01*
X187336418Y-91945242D01*
X187330643Y-91947309D01*
X187324693Y-91948799D01*
X187318626Y-91949699D01*
X187312500Y-91950000D01*
X187187500Y-91950000D01*
X187181374Y-91949699D01*
X187175307Y-91948799D01*
X187169357Y-91947309D01*
X187163582Y-91945242D01*
X187158038Y-91942620D01*
X187152777Y-91939467D01*
X187147850Y-91935813D01*
X187143306Y-91931694D01*
X187139187Y-91927150D01*
X187135533Y-91922223D01*
X187132380Y-91916962D01*
X187129758Y-91911418D01*
X187127691Y-91905643D01*
X187126201Y-91899693D01*
X187125301Y-91893626D01*
X187125000Y-91887500D01*
X187125000Y-91212500D01*
X187125301Y-91206374D01*
X187126201Y-91200307D01*
X187127691Y-91194357D01*
X187129758Y-91188582D01*
X187132380Y-91183038D01*
X187135533Y-91177777D01*
X187139187Y-91172850D01*
X187143306Y-91168306D01*
X187147850Y-91164187D01*
X187152777Y-91160533D01*
X187158038Y-91157380D01*
X187163582Y-91154758D01*
X187169357Y-91152691D01*
X187175307Y-91151201D01*
X187181374Y-91150301D01*
X187187500Y-91150000D01*
X187312500Y-91150000D01*
X187318626Y-91150301D01*
G37*
G36*
X186818626Y-91150301D02*
G01*
X186824693Y-91151201D01*
X186830643Y-91152691D01*
X186836418Y-91154758D01*
X186841962Y-91157380D01*
X186847223Y-91160533D01*
X186852150Y-91164187D01*
X186856694Y-91168306D01*
X186860813Y-91172850D01*
X186864467Y-91177777D01*
X186867620Y-91183038D01*
X186870242Y-91188582D01*
X186872309Y-91194357D01*
X186873799Y-91200307D01*
X186874699Y-91206374D01*
X186875000Y-91212500D01*
X186875000Y-91887500D01*
X186874699Y-91893626D01*
X186873799Y-91899693D01*
X186872309Y-91905643D01*
X186870242Y-91911418D01*
X186867620Y-91916962D01*
X186864467Y-91922223D01*
X186860813Y-91927150D01*
X186856694Y-91931694D01*
X186852150Y-91935813D01*
X186847223Y-91939467D01*
X186841962Y-91942620D01*
X186836418Y-91945242D01*
X186830643Y-91947309D01*
X186824693Y-91948799D01*
X186818626Y-91949699D01*
X186812500Y-91950000D01*
X186687500Y-91950000D01*
X186681374Y-91949699D01*
X186675307Y-91948799D01*
X186669357Y-91947309D01*
X186663582Y-91945242D01*
X186658038Y-91942620D01*
X186652777Y-91939467D01*
X186647850Y-91935813D01*
X186643306Y-91931694D01*
X186639187Y-91927150D01*
X186635533Y-91922223D01*
X186632380Y-91916962D01*
X186629758Y-91911418D01*
X186627691Y-91905643D01*
X186626201Y-91899693D01*
X186625301Y-91893626D01*
X186625000Y-91887500D01*
X186625000Y-91212500D01*
X186625301Y-91206374D01*
X186626201Y-91200307D01*
X186627691Y-91194357D01*
X186629758Y-91188582D01*
X186632380Y-91183038D01*
X186635533Y-91177777D01*
X186639187Y-91172850D01*
X186643306Y-91168306D01*
X186647850Y-91164187D01*
X186652777Y-91160533D01*
X186658038Y-91157380D01*
X186663582Y-91154758D01*
X186669357Y-91152691D01*
X186675307Y-91151201D01*
X186681374Y-91150301D01*
X186687500Y-91150000D01*
X186812500Y-91150000D01*
X186818626Y-91150301D01*
G37*
G36*
X186318626Y-91150301D02*
G01*
X186324693Y-91151201D01*
X186330643Y-91152691D01*
X186336418Y-91154758D01*
X186341962Y-91157380D01*
X186347223Y-91160533D01*
X186352150Y-91164187D01*
X186356694Y-91168306D01*
X186360813Y-91172850D01*
X186364467Y-91177777D01*
X186367620Y-91183038D01*
X186370242Y-91188582D01*
X186372309Y-91194357D01*
X186373799Y-91200307D01*
X186374699Y-91206374D01*
X186375000Y-91212500D01*
X186375000Y-91887500D01*
X186374699Y-91893626D01*
X186373799Y-91899693D01*
X186372309Y-91905643D01*
X186370242Y-91911418D01*
X186367620Y-91916962D01*
X186364467Y-91922223D01*
X186360813Y-91927150D01*
X186356694Y-91931694D01*
X186352150Y-91935813D01*
X186347223Y-91939467D01*
X186341962Y-91942620D01*
X186336418Y-91945242D01*
X186330643Y-91947309D01*
X186324693Y-91948799D01*
X186318626Y-91949699D01*
X186312500Y-91950000D01*
X186187500Y-91950000D01*
X186181374Y-91949699D01*
X186175307Y-91948799D01*
X186169357Y-91947309D01*
X186163582Y-91945242D01*
X186158038Y-91942620D01*
X186152777Y-91939467D01*
X186147850Y-91935813D01*
X186143306Y-91931694D01*
X186139187Y-91927150D01*
X186135533Y-91922223D01*
X186132380Y-91916962D01*
X186129758Y-91911418D01*
X186127691Y-91905643D01*
X186126201Y-91899693D01*
X186125301Y-91893626D01*
X186125000Y-91887500D01*
X186125000Y-91212500D01*
X186125301Y-91206374D01*
X186126201Y-91200307D01*
X186127691Y-91194357D01*
X186129758Y-91188582D01*
X186132380Y-91183038D01*
X186135533Y-91177777D01*
X186139187Y-91172850D01*
X186143306Y-91168306D01*
X186147850Y-91164187D01*
X186152777Y-91160533D01*
X186158038Y-91157380D01*
X186163582Y-91154758D01*
X186169357Y-91152691D01*
X186175307Y-91151201D01*
X186181374Y-91150301D01*
X186187500Y-91150000D01*
X186312500Y-91150000D01*
X186318626Y-91150301D01*
G37*
G36*
X185818626Y-91150301D02*
G01*
X185824693Y-91151201D01*
X185830643Y-91152691D01*
X185836418Y-91154758D01*
X185841962Y-91157380D01*
X185847223Y-91160533D01*
X185852150Y-91164187D01*
X185856694Y-91168306D01*
X185860813Y-91172850D01*
X185864467Y-91177777D01*
X185867620Y-91183038D01*
X185870242Y-91188582D01*
X185872309Y-91194357D01*
X185873799Y-91200307D01*
X185874699Y-91206374D01*
X185875000Y-91212500D01*
X185875000Y-91887500D01*
X185874699Y-91893626D01*
X185873799Y-91899693D01*
X185872309Y-91905643D01*
X185870242Y-91911418D01*
X185867620Y-91916962D01*
X185864467Y-91922223D01*
X185860813Y-91927150D01*
X185856694Y-91931694D01*
X185852150Y-91935813D01*
X185847223Y-91939467D01*
X185841962Y-91942620D01*
X185836418Y-91945242D01*
X185830643Y-91947309D01*
X185824693Y-91948799D01*
X185818626Y-91949699D01*
X185812500Y-91950000D01*
X185687500Y-91950000D01*
X185681374Y-91949699D01*
X185675307Y-91948799D01*
X185669357Y-91947309D01*
X185663582Y-91945242D01*
X185658038Y-91942620D01*
X185652777Y-91939467D01*
X185647850Y-91935813D01*
X185643306Y-91931694D01*
X185639187Y-91927150D01*
X185635533Y-91922223D01*
X185632380Y-91916962D01*
X185629758Y-91911418D01*
X185627691Y-91905643D01*
X185626201Y-91899693D01*
X185625301Y-91893626D01*
X185625000Y-91887500D01*
X185625000Y-91212500D01*
X185625301Y-91206374D01*
X185626201Y-91200307D01*
X185627691Y-91194357D01*
X185629758Y-91188582D01*
X185632380Y-91183038D01*
X185635533Y-91177777D01*
X185639187Y-91172850D01*
X185643306Y-91168306D01*
X185647850Y-91164187D01*
X185652777Y-91160533D01*
X185658038Y-91157380D01*
X185663582Y-91154758D01*
X185669357Y-91152691D01*
X185675307Y-91151201D01*
X185681374Y-91150301D01*
X185687500Y-91150000D01*
X185812500Y-91150000D01*
X185818626Y-91150301D01*
G37*
G36*
X185318626Y-91150301D02*
G01*
X185324693Y-91151201D01*
X185330643Y-91152691D01*
X185336418Y-91154758D01*
X185341962Y-91157380D01*
X185347223Y-91160533D01*
X185352150Y-91164187D01*
X185356694Y-91168306D01*
X185360813Y-91172850D01*
X185364467Y-91177777D01*
X185367620Y-91183038D01*
X185370242Y-91188582D01*
X185372309Y-91194357D01*
X185373799Y-91200307D01*
X185374699Y-91206374D01*
X185375000Y-91212500D01*
X185375000Y-91887500D01*
X185374699Y-91893626D01*
X185373799Y-91899693D01*
X185372309Y-91905643D01*
X185370242Y-91911418D01*
X185367620Y-91916962D01*
X185364467Y-91922223D01*
X185360813Y-91927150D01*
X185356694Y-91931694D01*
X185352150Y-91935813D01*
X185347223Y-91939467D01*
X185341962Y-91942620D01*
X185336418Y-91945242D01*
X185330643Y-91947309D01*
X185324693Y-91948799D01*
X185318626Y-91949699D01*
X185312500Y-91950000D01*
X185187500Y-91950000D01*
X185181374Y-91949699D01*
X185175307Y-91948799D01*
X185169357Y-91947309D01*
X185163582Y-91945242D01*
X185158038Y-91942620D01*
X185152777Y-91939467D01*
X185147850Y-91935813D01*
X185143306Y-91931694D01*
X185139187Y-91927150D01*
X185135533Y-91922223D01*
X185132380Y-91916962D01*
X185129758Y-91911418D01*
X185127691Y-91905643D01*
X185126201Y-91899693D01*
X185125301Y-91893626D01*
X185125000Y-91887500D01*
X185125000Y-91212500D01*
X185125301Y-91206374D01*
X185126201Y-91200307D01*
X185127691Y-91194357D01*
X185129758Y-91188582D01*
X185132380Y-91183038D01*
X185135533Y-91177777D01*
X185139187Y-91172850D01*
X185143306Y-91168306D01*
X185147850Y-91164187D01*
X185152777Y-91160533D01*
X185158038Y-91157380D01*
X185163582Y-91154758D01*
X185169357Y-91152691D01*
X185175307Y-91151201D01*
X185181374Y-91150301D01*
X185187500Y-91150000D01*
X185312500Y-91150000D01*
X185318626Y-91150301D01*
G37*
G36*
X184818626Y-91150301D02*
G01*
X184824693Y-91151201D01*
X184830643Y-91152691D01*
X184836418Y-91154758D01*
X184841962Y-91157380D01*
X184847223Y-91160533D01*
X184852150Y-91164187D01*
X184856694Y-91168306D01*
X184860813Y-91172850D01*
X184864467Y-91177777D01*
X184867620Y-91183038D01*
X184870242Y-91188582D01*
X184872309Y-91194357D01*
X184873799Y-91200307D01*
X184874699Y-91206374D01*
X184875000Y-91212500D01*
X184875000Y-91887500D01*
X184874699Y-91893626D01*
X184873799Y-91899693D01*
X184872309Y-91905643D01*
X184870242Y-91911418D01*
X184867620Y-91916962D01*
X184864467Y-91922223D01*
X184860813Y-91927150D01*
X184856694Y-91931694D01*
X184852150Y-91935813D01*
X184847223Y-91939467D01*
X184841962Y-91942620D01*
X184836418Y-91945242D01*
X184830643Y-91947309D01*
X184824693Y-91948799D01*
X184818626Y-91949699D01*
X184812500Y-91950000D01*
X184687500Y-91950000D01*
X184681374Y-91949699D01*
X184675307Y-91948799D01*
X184669357Y-91947309D01*
X184663582Y-91945242D01*
X184658038Y-91942620D01*
X184652777Y-91939467D01*
X184647850Y-91935813D01*
X184643306Y-91931694D01*
X184639187Y-91927150D01*
X184635533Y-91922223D01*
X184632380Y-91916962D01*
X184629758Y-91911418D01*
X184627691Y-91905643D01*
X184626201Y-91899693D01*
X184625301Y-91893626D01*
X184625000Y-91887500D01*
X184625000Y-91212500D01*
X184625301Y-91206374D01*
X184626201Y-91200307D01*
X184627691Y-91194357D01*
X184629758Y-91188582D01*
X184632380Y-91183038D01*
X184635533Y-91177777D01*
X184639187Y-91172850D01*
X184643306Y-91168306D01*
X184647850Y-91164187D01*
X184652777Y-91160533D01*
X184658038Y-91157380D01*
X184663582Y-91154758D01*
X184669357Y-91152691D01*
X184675307Y-91151201D01*
X184681374Y-91150301D01*
X184687500Y-91150000D01*
X184812500Y-91150000D01*
X184818626Y-91150301D01*
G37*
G36*
X184318626Y-91150301D02*
G01*
X184324693Y-91151201D01*
X184330643Y-91152691D01*
X184336418Y-91154758D01*
X184341962Y-91157380D01*
X184347223Y-91160533D01*
X184352150Y-91164187D01*
X184356694Y-91168306D01*
X184360813Y-91172850D01*
X184364467Y-91177777D01*
X184367620Y-91183038D01*
X184370242Y-91188582D01*
X184372309Y-91194357D01*
X184373799Y-91200307D01*
X184374699Y-91206374D01*
X184375000Y-91212500D01*
X184375000Y-91887500D01*
X184374699Y-91893626D01*
X184373799Y-91899693D01*
X184372309Y-91905643D01*
X184370242Y-91911418D01*
X184367620Y-91916962D01*
X184364467Y-91922223D01*
X184360813Y-91927150D01*
X184356694Y-91931694D01*
X184352150Y-91935813D01*
X184347223Y-91939467D01*
X184341962Y-91942620D01*
X184336418Y-91945242D01*
X184330643Y-91947309D01*
X184324693Y-91948799D01*
X184318626Y-91949699D01*
X184312500Y-91950000D01*
X184187500Y-91950000D01*
X184181374Y-91949699D01*
X184175307Y-91948799D01*
X184169357Y-91947309D01*
X184163582Y-91945242D01*
X184158038Y-91942620D01*
X184152777Y-91939467D01*
X184147850Y-91935813D01*
X184143306Y-91931694D01*
X184139187Y-91927150D01*
X184135533Y-91922223D01*
X184132380Y-91916962D01*
X184129758Y-91911418D01*
X184127691Y-91905643D01*
X184126201Y-91899693D01*
X184125301Y-91893626D01*
X184125000Y-91887500D01*
X184125000Y-91212500D01*
X184125301Y-91206374D01*
X184126201Y-91200307D01*
X184127691Y-91194357D01*
X184129758Y-91188582D01*
X184132380Y-91183038D01*
X184135533Y-91177777D01*
X184139187Y-91172850D01*
X184143306Y-91168306D01*
X184147850Y-91164187D01*
X184152777Y-91160533D01*
X184158038Y-91157380D01*
X184163582Y-91154758D01*
X184169357Y-91152691D01*
X184175307Y-91151201D01*
X184181374Y-91150301D01*
X184187500Y-91150000D01*
X184312500Y-91150000D01*
X184318626Y-91150301D01*
G37*
G36*
X183818626Y-91150301D02*
G01*
X183824693Y-91151201D01*
X183830643Y-91152691D01*
X183836418Y-91154758D01*
X183841962Y-91157380D01*
X183847223Y-91160533D01*
X183852150Y-91164187D01*
X183856694Y-91168306D01*
X183860813Y-91172850D01*
X183864467Y-91177777D01*
X183867620Y-91183038D01*
X183870242Y-91188582D01*
X183872309Y-91194357D01*
X183873799Y-91200307D01*
X183874699Y-91206374D01*
X183875000Y-91212500D01*
X183875000Y-91887500D01*
X183874699Y-91893626D01*
X183873799Y-91899693D01*
X183872309Y-91905643D01*
X183870242Y-91911418D01*
X183867620Y-91916962D01*
X183864467Y-91922223D01*
X183860813Y-91927150D01*
X183856694Y-91931694D01*
X183852150Y-91935813D01*
X183847223Y-91939467D01*
X183841962Y-91942620D01*
X183836418Y-91945242D01*
X183830643Y-91947309D01*
X183824693Y-91948799D01*
X183818626Y-91949699D01*
X183812500Y-91950000D01*
X183687500Y-91950000D01*
X183681374Y-91949699D01*
X183675307Y-91948799D01*
X183669357Y-91947309D01*
X183663582Y-91945242D01*
X183658038Y-91942620D01*
X183652777Y-91939467D01*
X183647850Y-91935813D01*
X183643306Y-91931694D01*
X183639187Y-91927150D01*
X183635533Y-91922223D01*
X183632380Y-91916962D01*
X183629758Y-91911418D01*
X183627691Y-91905643D01*
X183626201Y-91899693D01*
X183625301Y-91893626D01*
X183625000Y-91887500D01*
X183625000Y-91212500D01*
X183625301Y-91206374D01*
X183626201Y-91200307D01*
X183627691Y-91194357D01*
X183629758Y-91188582D01*
X183632380Y-91183038D01*
X183635533Y-91177777D01*
X183639187Y-91172850D01*
X183643306Y-91168306D01*
X183647850Y-91164187D01*
X183652777Y-91160533D01*
X183658038Y-91157380D01*
X183663582Y-91154758D01*
X183669357Y-91152691D01*
X183675307Y-91151201D01*
X183681374Y-91150301D01*
X183687500Y-91150000D01*
X183812500Y-91150000D01*
X183818626Y-91150301D01*
G37*
G36*
X174824505Y-88301204D02*
G01*
X174848773Y-88304804D01*
X174872572Y-88310765D01*
X174895671Y-88319030D01*
X174917850Y-88329520D01*
X174938893Y-88342132D01*
X174958599Y-88356747D01*
X174976777Y-88373223D01*
X174993253Y-88391401D01*
X175007868Y-88411107D01*
X175020480Y-88432150D01*
X175030970Y-88454329D01*
X175039235Y-88477428D01*
X175045196Y-88501227D01*
X175048796Y-88525495D01*
X175050000Y-88549999D01*
X175050000Y-89450001D01*
X175048796Y-89474505D01*
X175045196Y-89498773D01*
X175039235Y-89522572D01*
X175030970Y-89545671D01*
X175020480Y-89567850D01*
X175007868Y-89588893D01*
X174993253Y-89608599D01*
X174976777Y-89626777D01*
X174958599Y-89643253D01*
X174938893Y-89657868D01*
X174917850Y-89670480D01*
X174895671Y-89680970D01*
X174872572Y-89689235D01*
X174848773Y-89695196D01*
X174824505Y-89698796D01*
X174800001Y-89700000D01*
X174149999Y-89700000D01*
X174125495Y-89698796D01*
X174101227Y-89695196D01*
X174077428Y-89689235D01*
X174054329Y-89680970D01*
X174032150Y-89670480D01*
X174011107Y-89657868D01*
X173991401Y-89643253D01*
X173973223Y-89626777D01*
X173956747Y-89608599D01*
X173942132Y-89588893D01*
X173929520Y-89567850D01*
X173919030Y-89545671D01*
X173910765Y-89522572D01*
X173904804Y-89498773D01*
X173901204Y-89474505D01*
X173900000Y-89450001D01*
X173900000Y-88549999D01*
X173901204Y-88525495D01*
X173904804Y-88501227D01*
X173910765Y-88477428D01*
X173919030Y-88454329D01*
X173929520Y-88432150D01*
X173942132Y-88411107D01*
X173956747Y-88391401D01*
X173973223Y-88373223D01*
X173991401Y-88356747D01*
X174011107Y-88342132D01*
X174032150Y-88329520D01*
X174054329Y-88319030D01*
X174077428Y-88310765D01*
X174101227Y-88304804D01*
X174125495Y-88301204D01*
X174149999Y-88300000D01*
X174800001Y-88300000D01*
X174824505Y-88301204D01*
G37*
G36*
X176874505Y-88301204D02*
G01*
X176898773Y-88304804D01*
X176922572Y-88310765D01*
X176945671Y-88319030D01*
X176967850Y-88329520D01*
X176988893Y-88342132D01*
X177008599Y-88356747D01*
X177026777Y-88373223D01*
X177043253Y-88391401D01*
X177057868Y-88411107D01*
X177070480Y-88432150D01*
X177080970Y-88454329D01*
X177089235Y-88477428D01*
X177095196Y-88501227D01*
X177098796Y-88525495D01*
X177100000Y-88549999D01*
X177100000Y-89450001D01*
X177098796Y-89474505D01*
X177095196Y-89498773D01*
X177089235Y-89522572D01*
X177080970Y-89545671D01*
X177070480Y-89567850D01*
X177057868Y-89588893D01*
X177043253Y-89608599D01*
X177026777Y-89626777D01*
X177008599Y-89643253D01*
X176988893Y-89657868D01*
X176967850Y-89670480D01*
X176945671Y-89680970D01*
X176922572Y-89689235D01*
X176898773Y-89695196D01*
X176874505Y-89698796D01*
X176850001Y-89700000D01*
X176199999Y-89700000D01*
X176175495Y-89698796D01*
X176151227Y-89695196D01*
X176127428Y-89689235D01*
X176104329Y-89680970D01*
X176082150Y-89670480D01*
X176061107Y-89657868D01*
X176041401Y-89643253D01*
X176023223Y-89626777D01*
X176006747Y-89608599D01*
X175992132Y-89588893D01*
X175979520Y-89567850D01*
X175969030Y-89545671D01*
X175960765Y-89522572D01*
X175954804Y-89498773D01*
X175951204Y-89474505D01*
X175950000Y-89450001D01*
X175950000Y-88549999D01*
X175951204Y-88525495D01*
X175954804Y-88501227D01*
X175960765Y-88477428D01*
X175969030Y-88454329D01*
X175979520Y-88432150D01*
X175992132Y-88411107D01*
X176006747Y-88391401D01*
X176023223Y-88373223D01*
X176041401Y-88356747D01*
X176061107Y-88342132D01*
X176082150Y-88329520D01*
X176104329Y-88319030D01*
X176127428Y-88310765D01*
X176151227Y-88304804D01*
X176175495Y-88301204D01*
X176199999Y-88300000D01*
X176850001Y-88300000D01*
X176874505Y-88301204D01*
G37*
G36*
X181974505Y-81951204D02*
G01*
X181998773Y-81954804D01*
X182022572Y-81960765D01*
X182045671Y-81969030D01*
X182067850Y-81979520D01*
X182088893Y-81992132D01*
X182108599Y-82006747D01*
X182126777Y-82023223D01*
X182143253Y-82041401D01*
X182157868Y-82061107D01*
X182170480Y-82082150D01*
X182180970Y-82104329D01*
X182189235Y-82127428D01*
X182195196Y-82151227D01*
X182198796Y-82175495D01*
X182200000Y-82199999D01*
X182200000Y-82850001D01*
X182198796Y-82874505D01*
X182195196Y-82898773D01*
X182189235Y-82922572D01*
X182180970Y-82945671D01*
X182170480Y-82967850D01*
X182157868Y-82988893D01*
X182143253Y-83008599D01*
X182126777Y-83026777D01*
X182108599Y-83043253D01*
X182088893Y-83057868D01*
X182067850Y-83070480D01*
X182045671Y-83080970D01*
X182022572Y-83089235D01*
X181998773Y-83095196D01*
X181974505Y-83098796D01*
X181950001Y-83100000D01*
X181049999Y-83100000D01*
X181025495Y-83098796D01*
X181001227Y-83095196D01*
X180977428Y-83089235D01*
X180954329Y-83080970D01*
X180932150Y-83070480D01*
X180911107Y-83057868D01*
X180891401Y-83043253D01*
X180873223Y-83026777D01*
X180856747Y-83008599D01*
X180842132Y-82988893D01*
X180829520Y-82967850D01*
X180819030Y-82945671D01*
X180810765Y-82922572D01*
X180804804Y-82898773D01*
X180801204Y-82874505D01*
X180800000Y-82850001D01*
X180800000Y-82199999D01*
X180801204Y-82175495D01*
X180804804Y-82151227D01*
X180810765Y-82127428D01*
X180819030Y-82104329D01*
X180829520Y-82082150D01*
X180842132Y-82061107D01*
X180856747Y-82041401D01*
X180873223Y-82023223D01*
X180891401Y-82006747D01*
X180911107Y-81992132D01*
X180932150Y-81979520D01*
X180954329Y-81969030D01*
X180977428Y-81960765D01*
X181001227Y-81954804D01*
X181025495Y-81951204D01*
X181049999Y-81950000D01*
X181950001Y-81950000D01*
X181974505Y-81951204D01*
G37*
G36*
X181974505Y-79901204D02*
G01*
X181998773Y-79904804D01*
X182022572Y-79910765D01*
X182045671Y-79919030D01*
X182067850Y-79929520D01*
X182088893Y-79942132D01*
X182108599Y-79956747D01*
X182126777Y-79973223D01*
X182143253Y-79991401D01*
X182157868Y-80011107D01*
X182170480Y-80032150D01*
X182180970Y-80054329D01*
X182189235Y-80077428D01*
X182195196Y-80101227D01*
X182198796Y-80125495D01*
X182200000Y-80149999D01*
X182200000Y-80800001D01*
X182198796Y-80824505D01*
X182195196Y-80848773D01*
X182189235Y-80872572D01*
X182180970Y-80895671D01*
X182170480Y-80917850D01*
X182157868Y-80938893D01*
X182143253Y-80958599D01*
X182126777Y-80976777D01*
X182108599Y-80993253D01*
X182088893Y-81007868D01*
X182067850Y-81020480D01*
X182045671Y-81030970D01*
X182022572Y-81039235D01*
X181998773Y-81045196D01*
X181974505Y-81048796D01*
X181950001Y-81050000D01*
X181049999Y-81050000D01*
X181025495Y-81048796D01*
X181001227Y-81045196D01*
X180977428Y-81039235D01*
X180954329Y-81030970D01*
X180932150Y-81020480D01*
X180911107Y-81007868D01*
X180891401Y-80993253D01*
X180873223Y-80976777D01*
X180856747Y-80958599D01*
X180842132Y-80938893D01*
X180829520Y-80917850D01*
X180819030Y-80895671D01*
X180810765Y-80872572D01*
X180804804Y-80848773D01*
X180801204Y-80824505D01*
X180800000Y-80800001D01*
X180800000Y-80149999D01*
X180801204Y-80125495D01*
X180804804Y-80101227D01*
X180810765Y-80077428D01*
X180819030Y-80054329D01*
X180829520Y-80032150D01*
X180842132Y-80011107D01*
X180856747Y-79991401D01*
X180873223Y-79973223D01*
X180891401Y-79956747D01*
X180911107Y-79942132D01*
X180932150Y-79929520D01*
X180954329Y-79919030D01*
X180977428Y-79910765D01*
X181001227Y-79904804D01*
X181025495Y-79901204D01*
X181049999Y-79900000D01*
X181950001Y-79900000D01*
X181974505Y-79901204D01*
G37*
G36*
X178474505Y-79901204D02*
G01*
X178498773Y-79904804D01*
X178522572Y-79910765D01*
X178545671Y-79919030D01*
X178567850Y-79929520D01*
X178588893Y-79942132D01*
X178608599Y-79956747D01*
X178626777Y-79973223D01*
X178643253Y-79991401D01*
X178657868Y-80011107D01*
X178670480Y-80032150D01*
X178680970Y-80054329D01*
X178689235Y-80077428D01*
X178695196Y-80101227D01*
X178698796Y-80125495D01*
X178700000Y-80149999D01*
X178700000Y-80800001D01*
X178698796Y-80824505D01*
X178695196Y-80848773D01*
X178689235Y-80872572D01*
X178680970Y-80895671D01*
X178670480Y-80917850D01*
X178657868Y-80938893D01*
X178643253Y-80958599D01*
X178626777Y-80976777D01*
X178608599Y-80993253D01*
X178588893Y-81007868D01*
X178567850Y-81020480D01*
X178545671Y-81030970D01*
X178522572Y-81039235D01*
X178498773Y-81045196D01*
X178474505Y-81048796D01*
X178450001Y-81050000D01*
X177549999Y-81050000D01*
X177525495Y-81048796D01*
X177501227Y-81045196D01*
X177477428Y-81039235D01*
X177454329Y-81030970D01*
X177432150Y-81020480D01*
X177411107Y-81007868D01*
X177391401Y-80993253D01*
X177373223Y-80976777D01*
X177356747Y-80958599D01*
X177342132Y-80938893D01*
X177329520Y-80917850D01*
X177319030Y-80895671D01*
X177310765Y-80872572D01*
X177304804Y-80848773D01*
X177301204Y-80824505D01*
X177300000Y-80800001D01*
X177300000Y-80149999D01*
X177301204Y-80125495D01*
X177304804Y-80101227D01*
X177310765Y-80077428D01*
X177319030Y-80054329D01*
X177329520Y-80032150D01*
X177342132Y-80011107D01*
X177356747Y-79991401D01*
X177373223Y-79973223D01*
X177391401Y-79956747D01*
X177411107Y-79942132D01*
X177432150Y-79929520D01*
X177454329Y-79919030D01*
X177477428Y-79910765D01*
X177501227Y-79904804D01*
X177525495Y-79901204D01*
X177549999Y-79900000D01*
X178450001Y-79900000D01*
X178474505Y-79901204D01*
G37*
G36*
X178474505Y-81951204D02*
G01*
X178498773Y-81954804D01*
X178522572Y-81960765D01*
X178545671Y-81969030D01*
X178567850Y-81979520D01*
X178588893Y-81992132D01*
X178608599Y-82006747D01*
X178626777Y-82023223D01*
X178643253Y-82041401D01*
X178657868Y-82061107D01*
X178670480Y-82082150D01*
X178680970Y-82104329D01*
X178689235Y-82127428D01*
X178695196Y-82151227D01*
X178698796Y-82175495D01*
X178700000Y-82199999D01*
X178700000Y-82850001D01*
X178698796Y-82874505D01*
X178695196Y-82898773D01*
X178689235Y-82922572D01*
X178680970Y-82945671D01*
X178670480Y-82967850D01*
X178657868Y-82988893D01*
X178643253Y-83008599D01*
X178626777Y-83026777D01*
X178608599Y-83043253D01*
X178588893Y-83057868D01*
X178567850Y-83070480D01*
X178545671Y-83080970D01*
X178522572Y-83089235D01*
X178498773Y-83095196D01*
X178474505Y-83098796D01*
X178450001Y-83100000D01*
X177549999Y-83100000D01*
X177525495Y-83098796D01*
X177501227Y-83095196D01*
X177477428Y-83089235D01*
X177454329Y-83080970D01*
X177432150Y-83070480D01*
X177411107Y-83057868D01*
X177391401Y-83043253D01*
X177373223Y-83026777D01*
X177356747Y-83008599D01*
X177342132Y-82988893D01*
X177329520Y-82967850D01*
X177319030Y-82945671D01*
X177310765Y-82922572D01*
X177304804Y-82898773D01*
X177301204Y-82874505D01*
X177300000Y-82850001D01*
X177300000Y-82199999D01*
X177301204Y-82175495D01*
X177304804Y-82151227D01*
X177310765Y-82127428D01*
X177319030Y-82104329D01*
X177329520Y-82082150D01*
X177342132Y-82061107D01*
X177356747Y-82041401D01*
X177373223Y-82023223D01*
X177391401Y-82006747D01*
X177411107Y-81992132D01*
X177432150Y-81979520D01*
X177454329Y-81969030D01*
X177477428Y-81960765D01*
X177501227Y-81954804D01*
X177525495Y-81951204D01*
X177549999Y-81950000D01*
X178450001Y-81950000D01*
X178474505Y-81951204D01*
G37*
G36*
X190974505Y-80401204D02*
G01*
X190998773Y-80404804D01*
X191022572Y-80410765D01*
X191045671Y-80419030D01*
X191067850Y-80429520D01*
X191088893Y-80442132D01*
X191108599Y-80456747D01*
X191126777Y-80473223D01*
X191143253Y-80491401D01*
X191157868Y-80511107D01*
X191170480Y-80532150D01*
X191180970Y-80554329D01*
X191189235Y-80577428D01*
X191195196Y-80601227D01*
X191198796Y-80625495D01*
X191200000Y-80649999D01*
X191200000Y-81300001D01*
X191198796Y-81324505D01*
X191195196Y-81348773D01*
X191189235Y-81372572D01*
X191180970Y-81395671D01*
X191170480Y-81417850D01*
X191157868Y-81438893D01*
X191143253Y-81458599D01*
X191126777Y-81476777D01*
X191108599Y-81493253D01*
X191088893Y-81507868D01*
X191067850Y-81520480D01*
X191045671Y-81530970D01*
X191022572Y-81539235D01*
X190998773Y-81545196D01*
X190974505Y-81548796D01*
X190950001Y-81550000D01*
X190049999Y-81550000D01*
X190025495Y-81548796D01*
X190001227Y-81545196D01*
X189977428Y-81539235D01*
X189954329Y-81530970D01*
X189932150Y-81520480D01*
X189911107Y-81507868D01*
X189891401Y-81493253D01*
X189873223Y-81476777D01*
X189856747Y-81458599D01*
X189842132Y-81438893D01*
X189829520Y-81417850D01*
X189819030Y-81395671D01*
X189810765Y-81372572D01*
X189804804Y-81348773D01*
X189801204Y-81324505D01*
X189800000Y-81300001D01*
X189800000Y-80649999D01*
X189801204Y-80625495D01*
X189804804Y-80601227D01*
X189810765Y-80577428D01*
X189819030Y-80554329D01*
X189829520Y-80532150D01*
X189842132Y-80511107D01*
X189856747Y-80491401D01*
X189873223Y-80473223D01*
X189891401Y-80456747D01*
X189911107Y-80442132D01*
X189932150Y-80429520D01*
X189954329Y-80419030D01*
X189977428Y-80410765D01*
X190001227Y-80404804D01*
X190025495Y-80401204D01*
X190049999Y-80400000D01*
X190950001Y-80400000D01*
X190974505Y-80401204D01*
G37*
G36*
X190974505Y-82451204D02*
G01*
X190998773Y-82454804D01*
X191022572Y-82460765D01*
X191045671Y-82469030D01*
X191067850Y-82479520D01*
X191088893Y-82492132D01*
X191108599Y-82506747D01*
X191126777Y-82523223D01*
X191143253Y-82541401D01*
X191157868Y-82561107D01*
X191170480Y-82582150D01*
X191180970Y-82604329D01*
X191189235Y-82627428D01*
X191195196Y-82651227D01*
X191198796Y-82675495D01*
X191200000Y-82699999D01*
X191200000Y-83350001D01*
X191198796Y-83374505D01*
X191195196Y-83398773D01*
X191189235Y-83422572D01*
X191180970Y-83445671D01*
X191170480Y-83467850D01*
X191157868Y-83488893D01*
X191143253Y-83508599D01*
X191126777Y-83526777D01*
X191108599Y-83543253D01*
X191088893Y-83557868D01*
X191067850Y-83570480D01*
X191045671Y-83580970D01*
X191022572Y-83589235D01*
X190998773Y-83595196D01*
X190974505Y-83598796D01*
X190950001Y-83600000D01*
X190049999Y-83600000D01*
X190025495Y-83598796D01*
X190001227Y-83595196D01*
X189977428Y-83589235D01*
X189954329Y-83580970D01*
X189932150Y-83570480D01*
X189911107Y-83557868D01*
X189891401Y-83543253D01*
X189873223Y-83526777D01*
X189856747Y-83508599D01*
X189842132Y-83488893D01*
X189829520Y-83467850D01*
X189819030Y-83445671D01*
X189810765Y-83422572D01*
X189804804Y-83398773D01*
X189801204Y-83374505D01*
X189800000Y-83350001D01*
X189800000Y-82699999D01*
X189801204Y-82675495D01*
X189804804Y-82651227D01*
X189810765Y-82627428D01*
X189819030Y-82604329D01*
X189829520Y-82582150D01*
X189842132Y-82561107D01*
X189856747Y-82541401D01*
X189873223Y-82523223D01*
X189891401Y-82506747D01*
X189911107Y-82492132D01*
X189932150Y-82479520D01*
X189954329Y-82469030D01*
X189977428Y-82460765D01*
X190001227Y-82454804D01*
X190025495Y-82451204D01*
X190049999Y-82450000D01*
X190950001Y-82450000D01*
X190974505Y-82451204D01*
G37*
G36*
X174974505Y-95401204D02*
G01*
X174998773Y-95404804D01*
X175022572Y-95410765D01*
X175045671Y-95419030D01*
X175067850Y-95429520D01*
X175088893Y-95442132D01*
X175108599Y-95456747D01*
X175126777Y-95473223D01*
X175143253Y-95491401D01*
X175157868Y-95511107D01*
X175170480Y-95532150D01*
X175180970Y-95554329D01*
X175189235Y-95577428D01*
X175195196Y-95601227D01*
X175198796Y-95625495D01*
X175200000Y-95649999D01*
X175200000Y-96300001D01*
X175198796Y-96324505D01*
X175195196Y-96348773D01*
X175189235Y-96372572D01*
X175180970Y-96395671D01*
X175170480Y-96417850D01*
X175157868Y-96438893D01*
X175143253Y-96458599D01*
X175126777Y-96476777D01*
X175108599Y-96493253D01*
X175088893Y-96507868D01*
X175067850Y-96520480D01*
X175045671Y-96530970D01*
X175022572Y-96539235D01*
X174998773Y-96545196D01*
X174974505Y-96548796D01*
X174950001Y-96550000D01*
X174049999Y-96550000D01*
X174025495Y-96548796D01*
X174001227Y-96545196D01*
X173977428Y-96539235D01*
X173954329Y-96530970D01*
X173932150Y-96520480D01*
X173911107Y-96507868D01*
X173891401Y-96493253D01*
X173873223Y-96476777D01*
X173856747Y-96458599D01*
X173842132Y-96438893D01*
X173829520Y-96417850D01*
X173819030Y-96395671D01*
X173810765Y-96372572D01*
X173804804Y-96348773D01*
X173801204Y-96324505D01*
X173800000Y-96300001D01*
X173800000Y-95649999D01*
X173801204Y-95625495D01*
X173804804Y-95601227D01*
X173810765Y-95577428D01*
X173819030Y-95554329D01*
X173829520Y-95532150D01*
X173842132Y-95511107D01*
X173856747Y-95491401D01*
X173873223Y-95473223D01*
X173891401Y-95456747D01*
X173911107Y-95442132D01*
X173932150Y-95429520D01*
X173954329Y-95419030D01*
X173977428Y-95410765D01*
X174001227Y-95404804D01*
X174025495Y-95401204D01*
X174049999Y-95400000D01*
X174950001Y-95400000D01*
X174974505Y-95401204D01*
G37*
G36*
X174974505Y-97451204D02*
G01*
X174998773Y-97454804D01*
X175022572Y-97460765D01*
X175045671Y-97469030D01*
X175067850Y-97479520D01*
X175088893Y-97492132D01*
X175108599Y-97506747D01*
X175126777Y-97523223D01*
X175143253Y-97541401D01*
X175157868Y-97561107D01*
X175170480Y-97582150D01*
X175180970Y-97604329D01*
X175189235Y-97627428D01*
X175195196Y-97651227D01*
X175198796Y-97675495D01*
X175200000Y-97699999D01*
X175200000Y-98350001D01*
X175198796Y-98374505D01*
X175195196Y-98398773D01*
X175189235Y-98422572D01*
X175180970Y-98445671D01*
X175170480Y-98467850D01*
X175157868Y-98488893D01*
X175143253Y-98508599D01*
X175126777Y-98526777D01*
X175108599Y-98543253D01*
X175088893Y-98557868D01*
X175067850Y-98570480D01*
X175045671Y-98580970D01*
X175022572Y-98589235D01*
X174998773Y-98595196D01*
X174974505Y-98598796D01*
X174950001Y-98600000D01*
X174049999Y-98600000D01*
X174025495Y-98598796D01*
X174001227Y-98595196D01*
X173977428Y-98589235D01*
X173954329Y-98580970D01*
X173932150Y-98570480D01*
X173911107Y-98557868D01*
X173891401Y-98543253D01*
X173873223Y-98526777D01*
X173856747Y-98508599D01*
X173842132Y-98488893D01*
X173829520Y-98467850D01*
X173819030Y-98445671D01*
X173810765Y-98422572D01*
X173804804Y-98398773D01*
X173801204Y-98374505D01*
X173800000Y-98350001D01*
X173800000Y-97699999D01*
X173801204Y-97675495D01*
X173804804Y-97651227D01*
X173810765Y-97627428D01*
X173819030Y-97604329D01*
X173829520Y-97582150D01*
X173842132Y-97561107D01*
X173856747Y-97541401D01*
X173873223Y-97523223D01*
X173891401Y-97506747D01*
X173911107Y-97492132D01*
X173932150Y-97479520D01*
X173954329Y-97469030D01*
X173977428Y-97460765D01*
X174001227Y-97454804D01*
X174025495Y-97451204D01*
X174049999Y-97450000D01*
X174950001Y-97450000D01*
X174974505Y-97451204D01*
G37*
G36*
X174974505Y-90603204D02*
G01*
X174998773Y-90606804D01*
X175022572Y-90612765D01*
X175045671Y-90621030D01*
X175067850Y-90631520D01*
X175088893Y-90644132D01*
X175108599Y-90658747D01*
X175126777Y-90675223D01*
X175143253Y-90693401D01*
X175157868Y-90713107D01*
X175170480Y-90734150D01*
X175180970Y-90756329D01*
X175189235Y-90779428D01*
X175195196Y-90803227D01*
X175198796Y-90827495D01*
X175200000Y-90851999D01*
X175200000Y-91502001D01*
X175198796Y-91526505D01*
X175195196Y-91550773D01*
X175189235Y-91574572D01*
X175180970Y-91597671D01*
X175170480Y-91619850D01*
X175157868Y-91640893D01*
X175143253Y-91660599D01*
X175126777Y-91678777D01*
X175108599Y-91695253D01*
X175088893Y-91709868D01*
X175067850Y-91722480D01*
X175045671Y-91732970D01*
X175022572Y-91741235D01*
X174998773Y-91747196D01*
X174974505Y-91750796D01*
X174950001Y-91752000D01*
X174049999Y-91752000D01*
X174025495Y-91750796D01*
X174001227Y-91747196D01*
X173977428Y-91741235D01*
X173954329Y-91732970D01*
X173932150Y-91722480D01*
X173911107Y-91709868D01*
X173891401Y-91695253D01*
X173873223Y-91678777D01*
X173856747Y-91660599D01*
X173842132Y-91640893D01*
X173829520Y-91619850D01*
X173819030Y-91597671D01*
X173810765Y-91574572D01*
X173804804Y-91550773D01*
X173801204Y-91526505D01*
X173800000Y-91502001D01*
X173800000Y-90851999D01*
X173801204Y-90827495D01*
X173804804Y-90803227D01*
X173810765Y-90779428D01*
X173819030Y-90756329D01*
X173829520Y-90734150D01*
X173842132Y-90713107D01*
X173856747Y-90693401D01*
X173873223Y-90675223D01*
X173891401Y-90658747D01*
X173911107Y-90644132D01*
X173932150Y-90631520D01*
X173954329Y-90621030D01*
X173977428Y-90612765D01*
X174001227Y-90606804D01*
X174025495Y-90603204D01*
X174049999Y-90602000D01*
X174950001Y-90602000D01*
X174974505Y-90603204D01*
G37*
G36*
X174974505Y-92653204D02*
G01*
X174998773Y-92656804D01*
X175022572Y-92662765D01*
X175045671Y-92671030D01*
X175067850Y-92681520D01*
X175088893Y-92694132D01*
X175108599Y-92708747D01*
X175126777Y-92725223D01*
X175143253Y-92743401D01*
X175157868Y-92763107D01*
X175170480Y-92784150D01*
X175180970Y-92806329D01*
X175189235Y-92829428D01*
X175195196Y-92853227D01*
X175198796Y-92877495D01*
X175200000Y-92901999D01*
X175200000Y-93552001D01*
X175198796Y-93576505D01*
X175195196Y-93600773D01*
X175189235Y-93624572D01*
X175180970Y-93647671D01*
X175170480Y-93669850D01*
X175157868Y-93690893D01*
X175143253Y-93710599D01*
X175126777Y-93728777D01*
X175108599Y-93745253D01*
X175088893Y-93759868D01*
X175067850Y-93772480D01*
X175045671Y-93782970D01*
X175022572Y-93791235D01*
X174998773Y-93797196D01*
X174974505Y-93800796D01*
X174950001Y-93802000D01*
X174049999Y-93802000D01*
X174025495Y-93800796D01*
X174001227Y-93797196D01*
X173977428Y-93791235D01*
X173954329Y-93782970D01*
X173932150Y-93772480D01*
X173911107Y-93759868D01*
X173891401Y-93745253D01*
X173873223Y-93728777D01*
X173856747Y-93710599D01*
X173842132Y-93690893D01*
X173829520Y-93669850D01*
X173819030Y-93647671D01*
X173810765Y-93624572D01*
X173804804Y-93600773D01*
X173801204Y-93576505D01*
X173800000Y-93552001D01*
X173800000Y-92901999D01*
X173801204Y-92877495D01*
X173804804Y-92853227D01*
X173810765Y-92829428D01*
X173819030Y-92806329D01*
X173829520Y-92784150D01*
X173842132Y-92763107D01*
X173856747Y-92743401D01*
X173873223Y-92725223D01*
X173891401Y-92708747D01*
X173911107Y-92694132D01*
X173932150Y-92681520D01*
X173954329Y-92671030D01*
X173977428Y-92662765D01*
X174001227Y-92656804D01*
X174025495Y-92653204D01*
X174049999Y-92652000D01*
X174950001Y-92652000D01*
X174974505Y-92653204D01*
G37*
D13*
X166693000Y-97225000D03*
X166693000Y-91745000D03*
D14*
X167443000Y-91525000D03*
X167443000Y-97475000D03*
D11*
X168743000Y-91625000D03*
X168763000Y-97375000D03*
D15*
X168643000Y-93175000D03*
X168643000Y-93825000D03*
X168643000Y-94475000D03*
X168643000Y-95125000D03*
X168643000Y-95775000D03*
D16*
X165493000Y-93515000D03*
X165493000Y-95435000D03*
D12*
G36*
X174824505Y-100801204D02*
G01*
X174848773Y-100804804D01*
X174872572Y-100810765D01*
X174895671Y-100819030D01*
X174917850Y-100829520D01*
X174938893Y-100842132D01*
X174958599Y-100856747D01*
X174976777Y-100873223D01*
X174993253Y-100891401D01*
X175007868Y-100911107D01*
X175020480Y-100932150D01*
X175030970Y-100954329D01*
X175039235Y-100977428D01*
X175045196Y-101001227D01*
X175048796Y-101025495D01*
X175050000Y-101049999D01*
X175050000Y-101950001D01*
X175048796Y-101974505D01*
X175045196Y-101998773D01*
X175039235Y-102022572D01*
X175030970Y-102045671D01*
X175020480Y-102067850D01*
X175007868Y-102088893D01*
X174993253Y-102108599D01*
X174976777Y-102126777D01*
X174958599Y-102143253D01*
X174938893Y-102157868D01*
X174917850Y-102170480D01*
X174895671Y-102180970D01*
X174872572Y-102189235D01*
X174848773Y-102195196D01*
X174824505Y-102198796D01*
X174800001Y-102200000D01*
X174149999Y-102200000D01*
X174125495Y-102198796D01*
X174101227Y-102195196D01*
X174077428Y-102189235D01*
X174054329Y-102180970D01*
X174032150Y-102170480D01*
X174011107Y-102157868D01*
X173991401Y-102143253D01*
X173973223Y-102126777D01*
X173956747Y-102108599D01*
X173942132Y-102088893D01*
X173929520Y-102067850D01*
X173919030Y-102045671D01*
X173910765Y-102022572D01*
X173904804Y-101998773D01*
X173901204Y-101974505D01*
X173900000Y-101950001D01*
X173900000Y-101049999D01*
X173901204Y-101025495D01*
X173904804Y-101001227D01*
X173910765Y-100977428D01*
X173919030Y-100954329D01*
X173929520Y-100932150D01*
X173942132Y-100911107D01*
X173956747Y-100891401D01*
X173973223Y-100873223D01*
X173991401Y-100856747D01*
X174011107Y-100842132D01*
X174032150Y-100829520D01*
X174054329Y-100819030D01*
X174077428Y-100810765D01*
X174101227Y-100804804D01*
X174125495Y-100801204D01*
X174149999Y-100800000D01*
X174800001Y-100800000D01*
X174824505Y-100801204D01*
G37*
G36*
X176874505Y-100801204D02*
G01*
X176898773Y-100804804D01*
X176922572Y-100810765D01*
X176945671Y-100819030D01*
X176967850Y-100829520D01*
X176988893Y-100842132D01*
X177008599Y-100856747D01*
X177026777Y-100873223D01*
X177043253Y-100891401D01*
X177057868Y-100911107D01*
X177070480Y-100932150D01*
X177080970Y-100954329D01*
X177089235Y-100977428D01*
X177095196Y-101001227D01*
X177098796Y-101025495D01*
X177100000Y-101049999D01*
X177100000Y-101950001D01*
X177098796Y-101974505D01*
X177095196Y-101998773D01*
X177089235Y-102022572D01*
X177080970Y-102045671D01*
X177070480Y-102067850D01*
X177057868Y-102088893D01*
X177043253Y-102108599D01*
X177026777Y-102126777D01*
X177008599Y-102143253D01*
X176988893Y-102157868D01*
X176967850Y-102170480D01*
X176945671Y-102180970D01*
X176922572Y-102189235D01*
X176898773Y-102195196D01*
X176874505Y-102198796D01*
X176850001Y-102200000D01*
X176199999Y-102200000D01*
X176175495Y-102198796D01*
X176151227Y-102195196D01*
X176127428Y-102189235D01*
X176104329Y-102180970D01*
X176082150Y-102170480D01*
X176061107Y-102157868D01*
X176041401Y-102143253D01*
X176023223Y-102126777D01*
X176006747Y-102108599D01*
X175992132Y-102088893D01*
X175979520Y-102067850D01*
X175969030Y-102045671D01*
X175960765Y-102022572D01*
X175954804Y-101998773D01*
X175951204Y-101974505D01*
X175950000Y-101950001D01*
X175950000Y-101049999D01*
X175951204Y-101025495D01*
X175954804Y-101001227D01*
X175960765Y-100977428D01*
X175969030Y-100954329D01*
X175979520Y-100932150D01*
X175992132Y-100911107D01*
X176006747Y-100891401D01*
X176023223Y-100873223D01*
X176041401Y-100856747D01*
X176061107Y-100842132D01*
X176082150Y-100829520D01*
X176104329Y-100819030D01*
X176127428Y-100810765D01*
X176151227Y-100804804D01*
X176175495Y-100801204D01*
X176199999Y-100800000D01*
X176850001Y-100800000D01*
X176874505Y-100801204D01*
G37*
G36*
X185324505Y-100801204D02*
G01*
X185348773Y-100804804D01*
X185372572Y-100810765D01*
X185395671Y-100819030D01*
X185417850Y-100829520D01*
X185438893Y-100842132D01*
X185458599Y-100856747D01*
X185476777Y-100873223D01*
X185493253Y-100891401D01*
X185507868Y-100911107D01*
X185520480Y-100932150D01*
X185530970Y-100954329D01*
X185539235Y-100977428D01*
X185545196Y-101001227D01*
X185548796Y-101025495D01*
X185550000Y-101049999D01*
X185550000Y-101950001D01*
X185548796Y-101974505D01*
X185545196Y-101998773D01*
X185539235Y-102022572D01*
X185530970Y-102045671D01*
X185520480Y-102067850D01*
X185507868Y-102088893D01*
X185493253Y-102108599D01*
X185476777Y-102126777D01*
X185458599Y-102143253D01*
X185438893Y-102157868D01*
X185417850Y-102170480D01*
X185395671Y-102180970D01*
X185372572Y-102189235D01*
X185348773Y-102195196D01*
X185324505Y-102198796D01*
X185300001Y-102200000D01*
X184649999Y-102200000D01*
X184625495Y-102198796D01*
X184601227Y-102195196D01*
X184577428Y-102189235D01*
X184554329Y-102180970D01*
X184532150Y-102170480D01*
X184511107Y-102157868D01*
X184491401Y-102143253D01*
X184473223Y-102126777D01*
X184456747Y-102108599D01*
X184442132Y-102088893D01*
X184429520Y-102067850D01*
X184419030Y-102045671D01*
X184410765Y-102022572D01*
X184404804Y-101998773D01*
X184401204Y-101974505D01*
X184400000Y-101950001D01*
X184400000Y-101049999D01*
X184401204Y-101025495D01*
X184404804Y-101001227D01*
X184410765Y-100977428D01*
X184419030Y-100954329D01*
X184429520Y-100932150D01*
X184442132Y-100911107D01*
X184456747Y-100891401D01*
X184473223Y-100873223D01*
X184491401Y-100856747D01*
X184511107Y-100842132D01*
X184532150Y-100829520D01*
X184554329Y-100819030D01*
X184577428Y-100810765D01*
X184601227Y-100804804D01*
X184625495Y-100801204D01*
X184649999Y-100800000D01*
X185300001Y-100800000D01*
X185324505Y-100801204D01*
G37*
G36*
X187374505Y-100801204D02*
G01*
X187398773Y-100804804D01*
X187422572Y-100810765D01*
X187445671Y-100819030D01*
X187467850Y-100829520D01*
X187488893Y-100842132D01*
X187508599Y-100856747D01*
X187526777Y-100873223D01*
X187543253Y-100891401D01*
X187557868Y-100911107D01*
X187570480Y-100932150D01*
X187580970Y-100954329D01*
X187589235Y-100977428D01*
X187595196Y-101001227D01*
X187598796Y-101025495D01*
X187600000Y-101049999D01*
X187600000Y-101950001D01*
X187598796Y-101974505D01*
X187595196Y-101998773D01*
X187589235Y-102022572D01*
X187580970Y-102045671D01*
X187570480Y-102067850D01*
X187557868Y-102088893D01*
X187543253Y-102108599D01*
X187526777Y-102126777D01*
X187508599Y-102143253D01*
X187488893Y-102157868D01*
X187467850Y-102170480D01*
X187445671Y-102180970D01*
X187422572Y-102189235D01*
X187398773Y-102195196D01*
X187374505Y-102198796D01*
X187350001Y-102200000D01*
X186699999Y-102200000D01*
X186675495Y-102198796D01*
X186651227Y-102195196D01*
X186627428Y-102189235D01*
X186604329Y-102180970D01*
X186582150Y-102170480D01*
X186561107Y-102157868D01*
X186541401Y-102143253D01*
X186523223Y-102126777D01*
X186506747Y-102108599D01*
X186492132Y-102088893D01*
X186479520Y-102067850D01*
X186469030Y-102045671D01*
X186460765Y-102022572D01*
X186454804Y-101998773D01*
X186451204Y-101974505D01*
X186450000Y-101950001D01*
X186450000Y-101049999D01*
X186451204Y-101025495D01*
X186454804Y-101001227D01*
X186460765Y-100977428D01*
X186469030Y-100954329D01*
X186479520Y-100932150D01*
X186492132Y-100911107D01*
X186506747Y-100891401D01*
X186523223Y-100873223D01*
X186541401Y-100856747D01*
X186561107Y-100842132D01*
X186582150Y-100829520D01*
X186604329Y-100819030D01*
X186627428Y-100810765D01*
X186651227Y-100804804D01*
X186675495Y-100801204D01*
X186699999Y-100800000D01*
X187350001Y-100800000D01*
X187374505Y-100801204D01*
G37*
G36*
X190974505Y-86951204D02*
G01*
X190998773Y-86954804D01*
X191022572Y-86960765D01*
X191045671Y-86969030D01*
X191067850Y-86979520D01*
X191088893Y-86992132D01*
X191108599Y-87006747D01*
X191126777Y-87023223D01*
X191143253Y-87041401D01*
X191157868Y-87061107D01*
X191170480Y-87082150D01*
X191180970Y-87104329D01*
X191189235Y-87127428D01*
X191195196Y-87151227D01*
X191198796Y-87175495D01*
X191200000Y-87199999D01*
X191200000Y-87850001D01*
X191198796Y-87874505D01*
X191195196Y-87898773D01*
X191189235Y-87922572D01*
X191180970Y-87945671D01*
X191170480Y-87967850D01*
X191157868Y-87988893D01*
X191143253Y-88008599D01*
X191126777Y-88026777D01*
X191108599Y-88043253D01*
X191088893Y-88057868D01*
X191067850Y-88070480D01*
X191045671Y-88080970D01*
X191022572Y-88089235D01*
X190998773Y-88095196D01*
X190974505Y-88098796D01*
X190950001Y-88100000D01*
X190049999Y-88100000D01*
X190025495Y-88098796D01*
X190001227Y-88095196D01*
X189977428Y-88089235D01*
X189954329Y-88080970D01*
X189932150Y-88070480D01*
X189911107Y-88057868D01*
X189891401Y-88043253D01*
X189873223Y-88026777D01*
X189856747Y-88008599D01*
X189842132Y-87988893D01*
X189829520Y-87967850D01*
X189819030Y-87945671D01*
X189810765Y-87922572D01*
X189804804Y-87898773D01*
X189801204Y-87874505D01*
X189800000Y-87850001D01*
X189800000Y-87199999D01*
X189801204Y-87175495D01*
X189804804Y-87151227D01*
X189810765Y-87127428D01*
X189819030Y-87104329D01*
X189829520Y-87082150D01*
X189842132Y-87061107D01*
X189856747Y-87041401D01*
X189873223Y-87023223D01*
X189891401Y-87006747D01*
X189911107Y-86992132D01*
X189932150Y-86979520D01*
X189954329Y-86969030D01*
X189977428Y-86960765D01*
X190001227Y-86954804D01*
X190025495Y-86951204D01*
X190049999Y-86950000D01*
X190950001Y-86950000D01*
X190974505Y-86951204D01*
G37*
G36*
X190974505Y-84901204D02*
G01*
X190998773Y-84904804D01*
X191022572Y-84910765D01*
X191045671Y-84919030D01*
X191067850Y-84929520D01*
X191088893Y-84942132D01*
X191108599Y-84956747D01*
X191126777Y-84973223D01*
X191143253Y-84991401D01*
X191157868Y-85011107D01*
X191170480Y-85032150D01*
X191180970Y-85054329D01*
X191189235Y-85077428D01*
X191195196Y-85101227D01*
X191198796Y-85125495D01*
X191200000Y-85149999D01*
X191200000Y-85800001D01*
X191198796Y-85824505D01*
X191195196Y-85848773D01*
X191189235Y-85872572D01*
X191180970Y-85895671D01*
X191170480Y-85917850D01*
X191157868Y-85938893D01*
X191143253Y-85958599D01*
X191126777Y-85976777D01*
X191108599Y-85993253D01*
X191088893Y-86007868D01*
X191067850Y-86020480D01*
X191045671Y-86030970D01*
X191022572Y-86039235D01*
X190998773Y-86045196D01*
X190974505Y-86048796D01*
X190950001Y-86050000D01*
X190049999Y-86050000D01*
X190025495Y-86048796D01*
X190001227Y-86045196D01*
X189977428Y-86039235D01*
X189954329Y-86030970D01*
X189932150Y-86020480D01*
X189911107Y-86007868D01*
X189891401Y-85993253D01*
X189873223Y-85976777D01*
X189856747Y-85958599D01*
X189842132Y-85938893D01*
X189829520Y-85917850D01*
X189819030Y-85895671D01*
X189810765Y-85872572D01*
X189804804Y-85848773D01*
X189801204Y-85824505D01*
X189800000Y-85800001D01*
X189800000Y-85149999D01*
X189801204Y-85125495D01*
X189804804Y-85101227D01*
X189810765Y-85077428D01*
X189819030Y-85054329D01*
X189829520Y-85032150D01*
X189842132Y-85011107D01*
X189856747Y-84991401D01*
X189873223Y-84973223D01*
X189891401Y-84956747D01*
X189911107Y-84942132D01*
X189932150Y-84929520D01*
X189954329Y-84919030D01*
X189977428Y-84910765D01*
X190001227Y-84904804D01*
X190025495Y-84901204D01*
X190049999Y-84900000D01*
X190950001Y-84900000D01*
X190974505Y-84901204D01*
G37*
G36*
X182374505Y-100801204D02*
G01*
X182398773Y-100804804D01*
X182422572Y-100810765D01*
X182445671Y-100819030D01*
X182467850Y-100829520D01*
X182488893Y-100842132D01*
X182508599Y-100856747D01*
X182526777Y-100873223D01*
X182543253Y-100891401D01*
X182557868Y-100911107D01*
X182570480Y-100932150D01*
X182580970Y-100954329D01*
X182589235Y-100977428D01*
X182595196Y-101001227D01*
X182598796Y-101025495D01*
X182600000Y-101049999D01*
X182600000Y-101950001D01*
X182598796Y-101974505D01*
X182595196Y-101998773D01*
X182589235Y-102022572D01*
X182580970Y-102045671D01*
X182570480Y-102067850D01*
X182557868Y-102088893D01*
X182543253Y-102108599D01*
X182526777Y-102126777D01*
X182508599Y-102143253D01*
X182488893Y-102157868D01*
X182467850Y-102170480D01*
X182445671Y-102180970D01*
X182422572Y-102189235D01*
X182398773Y-102195196D01*
X182374505Y-102198796D01*
X182350001Y-102200000D01*
X181699999Y-102200000D01*
X181675495Y-102198796D01*
X181651227Y-102195196D01*
X181627428Y-102189235D01*
X181604329Y-102180970D01*
X181582150Y-102170480D01*
X181561107Y-102157868D01*
X181541401Y-102143253D01*
X181523223Y-102126777D01*
X181506747Y-102108599D01*
X181492132Y-102088893D01*
X181479520Y-102067850D01*
X181469030Y-102045671D01*
X181460765Y-102022572D01*
X181454804Y-101998773D01*
X181451204Y-101974505D01*
X181450000Y-101950001D01*
X181450000Y-101049999D01*
X181451204Y-101025495D01*
X181454804Y-101001227D01*
X181460765Y-100977428D01*
X181469030Y-100954329D01*
X181479520Y-100932150D01*
X181492132Y-100911107D01*
X181506747Y-100891401D01*
X181523223Y-100873223D01*
X181541401Y-100856747D01*
X181561107Y-100842132D01*
X181582150Y-100829520D01*
X181604329Y-100819030D01*
X181627428Y-100810765D01*
X181651227Y-100804804D01*
X181675495Y-100801204D01*
X181699999Y-100800000D01*
X182350001Y-100800000D01*
X182374505Y-100801204D01*
G37*
G36*
X180324505Y-100801204D02*
G01*
X180348773Y-100804804D01*
X180372572Y-100810765D01*
X180395671Y-100819030D01*
X180417850Y-100829520D01*
X180438893Y-100842132D01*
X180458599Y-100856747D01*
X180476777Y-100873223D01*
X180493253Y-100891401D01*
X180507868Y-100911107D01*
X180520480Y-100932150D01*
X180530970Y-100954329D01*
X180539235Y-100977428D01*
X180545196Y-101001227D01*
X180548796Y-101025495D01*
X180550000Y-101049999D01*
X180550000Y-101950001D01*
X180548796Y-101974505D01*
X180545196Y-101998773D01*
X180539235Y-102022572D01*
X180530970Y-102045671D01*
X180520480Y-102067850D01*
X180507868Y-102088893D01*
X180493253Y-102108599D01*
X180476777Y-102126777D01*
X180458599Y-102143253D01*
X180438893Y-102157868D01*
X180417850Y-102170480D01*
X180395671Y-102180970D01*
X180372572Y-102189235D01*
X180348773Y-102195196D01*
X180324505Y-102198796D01*
X180300001Y-102200000D01*
X179649999Y-102200000D01*
X179625495Y-102198796D01*
X179601227Y-102195196D01*
X179577428Y-102189235D01*
X179554329Y-102180970D01*
X179532150Y-102170480D01*
X179511107Y-102157868D01*
X179491401Y-102143253D01*
X179473223Y-102126777D01*
X179456747Y-102108599D01*
X179442132Y-102088893D01*
X179429520Y-102067850D01*
X179419030Y-102045671D01*
X179410765Y-102022572D01*
X179404804Y-101998773D01*
X179401204Y-101974505D01*
X179400000Y-101950001D01*
X179400000Y-101049999D01*
X179401204Y-101025495D01*
X179404804Y-101001227D01*
X179410765Y-100977428D01*
X179419030Y-100954329D01*
X179429520Y-100932150D01*
X179442132Y-100911107D01*
X179456747Y-100891401D01*
X179473223Y-100873223D01*
X179491401Y-100856747D01*
X179511107Y-100842132D01*
X179532150Y-100829520D01*
X179554329Y-100819030D01*
X179577428Y-100810765D01*
X179601227Y-100804804D01*
X179625495Y-100801204D01*
X179649999Y-100800000D01*
X180300001Y-100800000D01*
X180324505Y-100801204D01*
G37*
D17*
X174980000Y-104750000D03*
X174980000Y-109250000D03*
X167020000Y-109250000D03*
X167020000Y-104750000D03*
X184520000Y-104750000D03*
X184520000Y-109250000D03*
X192480000Y-109250000D03*
X192480000Y-104750000D03*
M02*
