G04 #@! TF.GenerationSoftware,KiCad,Pcbnew,(5.1.5)-3*
G04 #@! TF.CreationDate,2020-02-17T19:47:56+00:00*
G04 #@! TF.ProjectId,Pico-Telemetry,5069636f-2d54-4656-9c65-6d657472792e,rev?*
G04 #@! TF.SameCoordinates,Original*
G04 #@! TF.FileFunction,Soldermask,Bot*
G04 #@! TF.FilePolarity,Negative*
%FSLAX46Y46*%
G04 Gerber Fmt 4.6, Leading zero omitted, Abs format (unit mm)*
G04 Created by KiCad (PCBNEW (5.1.5)-3) date 2020-02-17 19:47:56*
%MOMM*%
%LPD*%
G04 APERTURE LIST*
%ADD10C,0.100000*%
G04 APERTURE END LIST*
D10*
G36*
X179842916Y-106207334D02*
G01*
X179951492Y-106240271D01*
X179951495Y-106240272D01*
X179987601Y-106259571D01*
X180051557Y-106293756D01*
X180139264Y-106365736D01*
X180202383Y-106442646D01*
X180219702Y-106459965D01*
X180240077Y-106473579D01*
X180262716Y-106482957D01*
X180286749Y-106487737D01*
X180311253Y-106487737D01*
X180335286Y-106482957D01*
X180357925Y-106473579D01*
X180378299Y-106459966D01*
X180395626Y-106442639D01*
X180409240Y-106422264D01*
X180418618Y-106399625D01*
X180423398Y-106375592D01*
X180424000Y-106363340D01*
X180424000Y-106199000D01*
X181576000Y-106199000D01*
X181576000Y-107801000D01*
X180424000Y-107801000D01*
X180424000Y-107636660D01*
X180421598Y-107612274D01*
X180414485Y-107588825D01*
X180402934Y-107567214D01*
X180387389Y-107548272D01*
X180368447Y-107532727D01*
X180346836Y-107521176D01*
X180323387Y-107514063D01*
X180299001Y-107511661D01*
X180274615Y-107514063D01*
X180251166Y-107521176D01*
X180229555Y-107532727D01*
X180202381Y-107557356D01*
X180139264Y-107634264D01*
X180051556Y-107706244D01*
X179987600Y-107740429D01*
X179951494Y-107759728D01*
X179951491Y-107759729D01*
X179842915Y-107792666D01*
X179730000Y-107803787D01*
X179617084Y-107792666D01*
X179508508Y-107759729D01*
X179508505Y-107759728D01*
X179472399Y-107740429D01*
X179408443Y-107706244D01*
X179320736Y-107634264D01*
X179248756Y-107546556D01*
X179205239Y-107465140D01*
X179191625Y-107444766D01*
X179174298Y-107427439D01*
X179153924Y-107413825D01*
X179131285Y-107404448D01*
X179107251Y-107399668D01*
X179082747Y-107399668D01*
X179058714Y-107404449D01*
X179036075Y-107413826D01*
X179015701Y-107427440D01*
X178998374Y-107444767D01*
X178984762Y-107465140D01*
X178941244Y-107546557D01*
X178869264Y-107634264D01*
X178781556Y-107706244D01*
X178717600Y-107740429D01*
X178681494Y-107759728D01*
X178681491Y-107759729D01*
X178572915Y-107792666D01*
X178460000Y-107803787D01*
X178347084Y-107792666D01*
X178238508Y-107759729D01*
X178238505Y-107759728D01*
X178202399Y-107740429D01*
X178138443Y-107706244D01*
X178050736Y-107634264D01*
X177978756Y-107546556D01*
X177935239Y-107465140D01*
X177925272Y-107446494D01*
X177919492Y-107427440D01*
X177892334Y-107337915D01*
X177884000Y-107253297D01*
X177884000Y-106746702D01*
X177892334Y-106662084D01*
X177925271Y-106553508D01*
X177925272Y-106553505D01*
X177978756Y-106453445D01*
X177978757Y-106453443D01*
X178050737Y-106365736D01*
X178138444Y-106293756D01*
X178202400Y-106259571D01*
X178238506Y-106240272D01*
X178238509Y-106240271D01*
X178347085Y-106207334D01*
X178460000Y-106196213D01*
X178572916Y-106207334D01*
X178681492Y-106240271D01*
X178681495Y-106240272D01*
X178717601Y-106259571D01*
X178781557Y-106293756D01*
X178869264Y-106365736D01*
X178941244Y-106453443D01*
X178957019Y-106482957D01*
X178984761Y-106534859D01*
X178998375Y-106555234D01*
X179015702Y-106572561D01*
X179036076Y-106586174D01*
X179058715Y-106595552D01*
X179082748Y-106600332D01*
X179107252Y-106600332D01*
X179131285Y-106595552D01*
X179153924Y-106586174D01*
X179174299Y-106572560D01*
X179191626Y-106555233D01*
X179205239Y-106534859D01*
X179248756Y-106453445D01*
X179248757Y-106453443D01*
X179320737Y-106365736D01*
X179408444Y-106293756D01*
X179472400Y-106259571D01*
X179508506Y-106240272D01*
X179508509Y-106240271D01*
X179617085Y-106207334D01*
X179730000Y-106196213D01*
X179842916Y-106207334D01*
G37*
G36*
X166009213Y-96482502D02*
G01*
X166080321Y-96489505D01*
X166217172Y-96531019D01*
X166217175Y-96531020D01*
X166343294Y-96598432D01*
X166453843Y-96689157D01*
X166544568Y-96799706D01*
X166611980Y-96925825D01*
X166611981Y-96925828D01*
X166653495Y-97062679D01*
X166667512Y-97205000D01*
X166653495Y-97347321D01*
X166638385Y-97397130D01*
X166611980Y-97484175D01*
X166544568Y-97610294D01*
X166453843Y-97720843D01*
X166343294Y-97811568D01*
X166217175Y-97878980D01*
X166217172Y-97878981D01*
X166080321Y-97920495D01*
X166009213Y-97927498D01*
X165973660Y-97931000D01*
X165552340Y-97931000D01*
X165516787Y-97927498D01*
X165445679Y-97920495D01*
X165308828Y-97878981D01*
X165308825Y-97878980D01*
X165182706Y-97811568D01*
X165072157Y-97720843D01*
X164981432Y-97610294D01*
X164914020Y-97484175D01*
X164887615Y-97397130D01*
X164872505Y-97347321D01*
X164858488Y-97205000D01*
X164872505Y-97062679D01*
X164914019Y-96925828D01*
X164914020Y-96925825D01*
X164981432Y-96799706D01*
X165072157Y-96689157D01*
X165182706Y-96598432D01*
X165308825Y-96531020D01*
X165308828Y-96531019D01*
X165445679Y-96489505D01*
X165516787Y-96482502D01*
X165552340Y-96479000D01*
X165973660Y-96479000D01*
X166009213Y-96482502D01*
G37*
G36*
X169080818Y-96302696D02*
G01*
X169194105Y-96337062D01*
X169298512Y-96392869D01*
X169390027Y-96467973D01*
X169465131Y-96559488D01*
X169520938Y-96663895D01*
X169555304Y-96777182D01*
X169566907Y-96895000D01*
X169555304Y-97012818D01*
X169520938Y-97126105D01*
X169465131Y-97230512D01*
X169390027Y-97322027D01*
X169298512Y-97397131D01*
X169194105Y-97452938D01*
X169080818Y-97487304D01*
X168992519Y-97496000D01*
X168533481Y-97496000D01*
X168445182Y-97487304D01*
X168331895Y-97452938D01*
X168227488Y-97397131D01*
X168135973Y-97322027D01*
X168060869Y-97230512D01*
X168005062Y-97126105D01*
X167970696Y-97012818D01*
X167959093Y-96895000D01*
X167970696Y-96777182D01*
X168005062Y-96663895D01*
X168060869Y-96559488D01*
X168135973Y-96467973D01*
X168227488Y-96392869D01*
X168331895Y-96337062D01*
X168445182Y-96302696D01*
X168533481Y-96294000D01*
X168992519Y-96294000D01*
X169080818Y-96302696D01*
G37*
G36*
X179226905Y-91208789D02*
G01*
X179525350Y-91268153D01*
X179853122Y-91403921D01*
X180148109Y-91601025D01*
X180398975Y-91851891D01*
X180596079Y-92146878D01*
X180731847Y-92474650D01*
X180801060Y-92822611D01*
X180801060Y-93177389D01*
X180731847Y-93525350D01*
X180596079Y-93853122D01*
X180398975Y-94148109D01*
X180148109Y-94398975D01*
X179853122Y-94596079D01*
X179525350Y-94731847D01*
X179226905Y-94791211D01*
X179177390Y-94801060D01*
X178822610Y-94801060D01*
X178773095Y-94791211D01*
X178474650Y-94731847D01*
X178146878Y-94596079D01*
X177851891Y-94398975D01*
X177601025Y-94148109D01*
X177403921Y-93853122D01*
X177268153Y-93525350D01*
X177198940Y-93177389D01*
X177198940Y-92822611D01*
X177268153Y-92474650D01*
X177403921Y-92146878D01*
X177601025Y-91851891D01*
X177851891Y-91601025D01*
X178146878Y-91403921D01*
X178474650Y-91268153D01*
X178773095Y-91208789D01*
X178822610Y-91198940D01*
X179177390Y-91198940D01*
X179226905Y-91208789D01*
G37*
G36*
X169080818Y-91462696D02*
G01*
X169194105Y-91497062D01*
X169298512Y-91552869D01*
X169390027Y-91627973D01*
X169465131Y-91719488D01*
X169520938Y-91823895D01*
X169555304Y-91937182D01*
X169566907Y-92055000D01*
X169555304Y-92172818D01*
X169520938Y-92286105D01*
X169465131Y-92390512D01*
X169390027Y-92482027D01*
X169298512Y-92557131D01*
X169194105Y-92612938D01*
X169080818Y-92647304D01*
X168992519Y-92656000D01*
X168533481Y-92656000D01*
X168445182Y-92647304D01*
X168331895Y-92612938D01*
X168227488Y-92557131D01*
X168135973Y-92482027D01*
X168060869Y-92390512D01*
X168005062Y-92286105D01*
X167970696Y-92172818D01*
X167959093Y-92055000D01*
X167970696Y-91937182D01*
X168005062Y-91823895D01*
X168060869Y-91719488D01*
X168135973Y-91627973D01*
X168227488Y-91552869D01*
X168331895Y-91497062D01*
X168445182Y-91462696D01*
X168533481Y-91454000D01*
X168992519Y-91454000D01*
X169080818Y-91462696D01*
G37*
G36*
X166009213Y-91022502D02*
G01*
X166080321Y-91029505D01*
X166217172Y-91071019D01*
X166217175Y-91071020D01*
X166343294Y-91138432D01*
X166453843Y-91229157D01*
X166544568Y-91339706D01*
X166611980Y-91465825D01*
X166611981Y-91465828D01*
X166653495Y-91602679D01*
X166667512Y-91745000D01*
X166653495Y-91887321D01*
X166638369Y-91937184D01*
X166611980Y-92024175D01*
X166544568Y-92150294D01*
X166453843Y-92260843D01*
X166343294Y-92351568D01*
X166217175Y-92418980D01*
X166217172Y-92418981D01*
X166080321Y-92460495D01*
X166009213Y-92467498D01*
X165973660Y-92471000D01*
X165552340Y-92471000D01*
X165516787Y-92467498D01*
X165445679Y-92460495D01*
X165308828Y-92418981D01*
X165308825Y-92418980D01*
X165182706Y-92351568D01*
X165072157Y-92260843D01*
X164981432Y-92150294D01*
X164914020Y-92024175D01*
X164887631Y-91937184D01*
X164872505Y-91887321D01*
X164858488Y-91745000D01*
X164872505Y-91602679D01*
X164914019Y-91465828D01*
X164914020Y-91465825D01*
X164981432Y-91339706D01*
X165072157Y-91229157D01*
X165182706Y-91138432D01*
X165308825Y-91071020D01*
X165308828Y-91071019D01*
X165445679Y-91029505D01*
X165516787Y-91022502D01*
X165552340Y-91019000D01*
X165973660Y-91019000D01*
X166009213Y-91022502D01*
G37*
G36*
X186401000Y-87401000D02*
G01*
X184599000Y-87401000D01*
X184599000Y-85599000D01*
X186401000Y-85599000D01*
X186401000Y-87401000D01*
G37*
G36*
X185613512Y-83063927D02*
G01*
X185762812Y-83093624D01*
X185926784Y-83161544D01*
X186074354Y-83260147D01*
X186199853Y-83385646D01*
X186298456Y-83533216D01*
X186366376Y-83697188D01*
X186401000Y-83871259D01*
X186401000Y-84048741D01*
X186366376Y-84222812D01*
X186298456Y-84386784D01*
X186199853Y-84534354D01*
X186074354Y-84659853D01*
X185926784Y-84758456D01*
X185762812Y-84826376D01*
X185613512Y-84856073D01*
X185588742Y-84861000D01*
X185411258Y-84861000D01*
X185386488Y-84856073D01*
X185237188Y-84826376D01*
X185073216Y-84758456D01*
X184925646Y-84659853D01*
X184800147Y-84534354D01*
X184701544Y-84386784D01*
X184633624Y-84222812D01*
X184599000Y-84048741D01*
X184599000Y-83871259D01*
X184633624Y-83697188D01*
X184701544Y-83533216D01*
X184800147Y-83385646D01*
X184925646Y-83260147D01*
X185073216Y-83161544D01*
X185237188Y-83093624D01*
X185386488Y-83063927D01*
X185411258Y-83059000D01*
X185588742Y-83059000D01*
X185613512Y-83063927D01*
G37*
G36*
X185613512Y-80523927D02*
G01*
X185762812Y-80553624D01*
X185926784Y-80621544D01*
X186074354Y-80720147D01*
X186199853Y-80845646D01*
X186298456Y-80993216D01*
X186366376Y-81157188D01*
X186401000Y-81331259D01*
X186401000Y-81508741D01*
X186366376Y-81682812D01*
X186298456Y-81846784D01*
X186199853Y-81994354D01*
X186074354Y-82119853D01*
X185926784Y-82218456D01*
X185762812Y-82286376D01*
X185613512Y-82316073D01*
X185588742Y-82321000D01*
X185411258Y-82321000D01*
X185386488Y-82316073D01*
X185237188Y-82286376D01*
X185073216Y-82218456D01*
X184925646Y-82119853D01*
X184800147Y-81994354D01*
X184701544Y-81846784D01*
X184633624Y-81682812D01*
X184599000Y-81508741D01*
X184599000Y-81331259D01*
X184633624Y-81157188D01*
X184701544Y-80993216D01*
X184800147Y-80845646D01*
X184925646Y-80720147D01*
X185073216Y-80621544D01*
X185237188Y-80553624D01*
X185386488Y-80523927D01*
X185411258Y-80519000D01*
X185588742Y-80519000D01*
X185613512Y-80523927D01*
G37*
M02*
