G04 #@! TF.GenerationSoftware,KiCad,Pcbnew,(5.1.5)-3*
G04 #@! TF.CreationDate,2020-02-17T19:47:56+00:00*
G04 #@! TF.ProjectId,Pico-Telemetry,5069636f-2d54-4656-9c65-6d657472792e,rev?*
G04 #@! TF.SameCoordinates,Original*
G04 #@! TF.FileFunction,Legend,Top*
G04 #@! TF.FilePolarity,Positive*
%FSLAX46Y46*%
G04 Gerber Fmt 4.6, Leading zero omitted, Abs format (unit mm)*
G04 Created by KiCad (PCBNEW (5.1.5)-3) date 2020-02-17 19:47:56*
%MOMM*%
%LPD*%
G04 APERTURE LIST*
%ADD10C,0.120000*%
%ADD11C,0.150000*%
G04 APERTURE END LIST*
D10*
X175910000Y-81590000D02*
X174650000Y-81590000D01*
X169090000Y-81590000D02*
X170350000Y-81590000D01*
X175910000Y-85350000D02*
X175910000Y-81590000D01*
X169090000Y-87600000D02*
X169090000Y-81590000D01*
X189635000Y-91390000D02*
X190110000Y-91390000D01*
X190110000Y-91390000D02*
X190110000Y-91865000D01*
X183365000Y-98610000D02*
X182890000Y-98610000D01*
X182890000Y-98610000D02*
X182890000Y-98135000D01*
X189635000Y-98610000D02*
X190110000Y-98610000D01*
X190110000Y-98610000D02*
X190110000Y-98135000D01*
X183365000Y-91390000D02*
X182890000Y-91390000D01*
X181530000Y-105150000D02*
X177930000Y-105150000D01*
X181568478Y-105161522D02*
G75*
G02X179730000Y-109600000I-1838478J-1838478D01*
G01*
X177891522Y-105161522D02*
G75*
G03X179730000Y-109600000I1838478J-1838478D01*
G01*
X175238748Y-88290000D02*
X175761252Y-88290000D01*
X175238748Y-89710000D02*
X175761252Y-89710000D01*
X180790000Y-81238748D02*
X180790000Y-81761252D01*
X182210000Y-81238748D02*
X182210000Y-81761252D01*
X178710000Y-81238748D02*
X178710000Y-81761252D01*
X177290000Y-81238748D02*
X177290000Y-81761252D01*
X191460000Y-83000000D02*
X191460000Y-80140000D01*
X191460000Y-80140000D02*
X189540000Y-80140000D01*
X189540000Y-80140000D02*
X189540000Y-83000000D01*
X175210000Y-97261252D02*
X175210000Y-96738748D01*
X173790000Y-97261252D02*
X173790000Y-96738748D01*
X175210000Y-91940748D02*
X175210000Y-92463252D01*
X173790000Y-91940748D02*
X173790000Y-92463252D01*
X166943000Y-90325000D02*
X168493000Y-90325000D01*
X166943000Y-90325000D02*
X166943000Y-90625000D01*
X164143000Y-90625000D02*
X166943000Y-90625000D01*
X166943000Y-98625000D02*
X168493000Y-98625000D01*
X166943000Y-98325000D02*
X166943000Y-98625000D01*
X164143000Y-98325000D02*
X166943000Y-98325000D01*
X170193000Y-93575000D02*
X169743000Y-93175000D01*
X170193000Y-92775000D02*
X170193000Y-93575000D01*
X169743000Y-93175000D02*
X170193000Y-92775000D01*
X186830000Y-80090000D02*
X184170000Y-80090000D01*
X186830000Y-85230000D02*
X186830000Y-80090000D01*
X184170000Y-85230000D02*
X184170000Y-80090000D01*
X186830000Y-85230000D02*
X184170000Y-85230000D01*
X186830000Y-86500000D02*
X186830000Y-87830000D01*
X186830000Y-87830000D02*
X185500000Y-87830000D01*
X175761252Y-100790000D02*
X175238748Y-100790000D01*
X175761252Y-102210000D02*
X175238748Y-102210000D01*
X185738748Y-100790000D02*
X186261252Y-100790000D01*
X185738748Y-102210000D02*
X186261252Y-102210000D01*
X189790000Y-86238748D02*
X189790000Y-86761252D01*
X191210000Y-86238748D02*
X191210000Y-86761252D01*
X181261252Y-102210000D02*
X180738748Y-102210000D01*
X181261252Y-100790000D02*
X180738748Y-100790000D01*
X167770000Y-110230000D02*
X167770000Y-110200000D01*
X167770000Y-103770000D02*
X167770000Y-103800000D01*
X174230000Y-103770000D02*
X174230000Y-103800000D01*
X174230000Y-110200000D02*
X174230000Y-110230000D01*
X167770000Y-108300000D02*
X167770000Y-105700000D01*
X174230000Y-110230000D02*
X167770000Y-110230000D01*
X174230000Y-108300000D02*
X174230000Y-105700000D01*
X174230000Y-103770000D02*
X167770000Y-103770000D01*
X191730000Y-103770000D02*
X185270000Y-103770000D01*
X191730000Y-108300000D02*
X191730000Y-105700000D01*
X191730000Y-110230000D02*
X185270000Y-110230000D01*
X185270000Y-108300000D02*
X185270000Y-105700000D01*
X191730000Y-110200000D02*
X191730000Y-110230000D01*
X191730000Y-103770000D02*
X191730000Y-103800000D01*
X185270000Y-103770000D02*
X185270000Y-103800000D01*
X185270000Y-110230000D02*
X185270000Y-110200000D01*
D11*
X167452380Y-84261904D02*
X168261904Y-84261904D01*
X168357142Y-84214285D01*
X168404761Y-84166666D01*
X168452380Y-84071428D01*
X168452380Y-83880952D01*
X168404761Y-83785714D01*
X168357142Y-83738095D01*
X168261904Y-83690476D01*
X167452380Y-83690476D01*
X168452380Y-82690476D02*
X168452380Y-83261904D01*
X168452380Y-82976190D02*
X167452380Y-82976190D01*
X167595238Y-83071428D01*
X167690476Y-83166666D01*
X167738095Y-83261904D01*
X185738095Y-89652380D02*
X185738095Y-90461904D01*
X185785714Y-90557142D01*
X185833333Y-90604761D01*
X185928571Y-90652380D01*
X186119047Y-90652380D01*
X186214285Y-90604761D01*
X186261904Y-90557142D01*
X186309523Y-90461904D01*
X186309523Y-89652380D01*
X186738095Y-89747619D02*
X186785714Y-89700000D01*
X186880952Y-89652380D01*
X187119047Y-89652380D01*
X187214285Y-89700000D01*
X187261904Y-89747619D01*
X187309523Y-89842857D01*
X187309523Y-89938095D01*
X187261904Y-90080952D01*
X186690476Y-90652380D01*
X187309523Y-90652380D01*
X178968095Y-110012380D02*
X178968095Y-110821904D01*
X179015714Y-110917142D01*
X179063333Y-110964761D01*
X179158571Y-111012380D01*
X179349047Y-111012380D01*
X179444285Y-110964761D01*
X179491904Y-110917142D01*
X179539523Y-110821904D01*
X179539523Y-110012380D01*
X179920476Y-110012380D02*
X180539523Y-110012380D01*
X180206190Y-110393333D01*
X180349047Y-110393333D01*
X180444285Y-110440952D01*
X180491904Y-110488571D01*
X180539523Y-110583809D01*
X180539523Y-110821904D01*
X180491904Y-110917142D01*
X180444285Y-110964761D01*
X180349047Y-111012380D01*
X180063333Y-111012380D01*
X179968095Y-110964761D01*
X179920476Y-110917142D01*
X177833333Y-96166666D02*
X178309523Y-96166666D01*
X177738095Y-96452380D02*
X178071428Y-95452380D01*
X178404761Y-96452380D01*
X178738095Y-95928571D02*
X179071428Y-95928571D01*
X179214285Y-96452380D02*
X178738095Y-96452380D01*
X178738095Y-95452380D01*
X179214285Y-95452380D01*
X180166666Y-96452380D02*
X179595238Y-96452380D01*
X179880952Y-96452380D02*
X179880952Y-95452380D01*
X179785714Y-95595238D01*
X179690476Y-95690476D01*
X179595238Y-95738095D01*
X172333333Y-89357142D02*
X172285714Y-89404761D01*
X172142857Y-89452380D01*
X172047619Y-89452380D01*
X171904761Y-89404761D01*
X171809523Y-89309523D01*
X171761904Y-89214285D01*
X171714285Y-89023809D01*
X171714285Y-88880952D01*
X171761904Y-88690476D01*
X171809523Y-88595238D01*
X171904761Y-88500000D01*
X172047619Y-88452380D01*
X172142857Y-88452380D01*
X172285714Y-88500000D01*
X172333333Y-88547619D01*
X173285714Y-89452380D02*
X172714285Y-89452380D01*
X173000000Y-89452380D02*
X173000000Y-88452380D01*
X172904761Y-88595238D01*
X172809523Y-88690476D01*
X172714285Y-88738095D01*
X183507142Y-81666666D02*
X183554761Y-81714285D01*
X183602380Y-81857142D01*
X183602380Y-81952380D01*
X183554761Y-82095238D01*
X183459523Y-82190476D01*
X183364285Y-82238095D01*
X183173809Y-82285714D01*
X183030952Y-82285714D01*
X182840476Y-82238095D01*
X182745238Y-82190476D01*
X182650000Y-82095238D01*
X182602380Y-81952380D01*
X182602380Y-81857142D01*
X182650000Y-81714285D01*
X182697619Y-81666666D01*
X182697619Y-81285714D02*
X182650000Y-81238095D01*
X182602380Y-81142857D01*
X182602380Y-80904761D01*
X182650000Y-80809523D01*
X182697619Y-80761904D01*
X182792857Y-80714285D01*
X182888095Y-80714285D01*
X183030952Y-80761904D01*
X183602380Y-81333333D01*
X183602380Y-80714285D01*
X180007142Y-81666666D02*
X180054761Y-81714285D01*
X180102380Y-81857142D01*
X180102380Y-81952380D01*
X180054761Y-82095238D01*
X179959523Y-82190476D01*
X179864285Y-82238095D01*
X179673809Y-82285714D01*
X179530952Y-82285714D01*
X179340476Y-82238095D01*
X179245238Y-82190476D01*
X179150000Y-82095238D01*
X179102380Y-81952380D01*
X179102380Y-81857142D01*
X179150000Y-81714285D01*
X179197619Y-81666666D01*
X179102380Y-81333333D02*
X179102380Y-80714285D01*
X179483333Y-81047619D01*
X179483333Y-80904761D01*
X179530952Y-80809523D01*
X179578571Y-80761904D01*
X179673809Y-80714285D01*
X179911904Y-80714285D01*
X180007142Y-80761904D01*
X180054761Y-80809523D01*
X180102380Y-80904761D01*
X180102380Y-81190476D01*
X180054761Y-81285714D01*
X180007142Y-81333333D01*
X192602380Y-82738095D02*
X191602380Y-82738095D01*
X191602380Y-82500000D01*
X191650000Y-82357142D01*
X191745238Y-82261904D01*
X191840476Y-82214285D01*
X192030952Y-82166666D01*
X192173809Y-82166666D01*
X192364285Y-82214285D01*
X192459523Y-82261904D01*
X192554761Y-82357142D01*
X192602380Y-82500000D01*
X192602380Y-82738095D01*
X192602380Y-81214285D02*
X192602380Y-81785714D01*
X192602380Y-81500000D02*
X191602380Y-81500000D01*
X191745238Y-81595238D01*
X191840476Y-81690476D01*
X191888095Y-81785714D01*
X172778571Y-97833333D02*
X172778571Y-98166666D01*
X173302380Y-98166666D02*
X172302380Y-98166666D01*
X172302380Y-97690476D01*
X172778571Y-96976190D02*
X172826190Y-96833333D01*
X172873809Y-96785714D01*
X172969047Y-96738095D01*
X173111904Y-96738095D01*
X173207142Y-96785714D01*
X173254761Y-96833333D01*
X173302380Y-96928571D01*
X173302380Y-97309523D01*
X172302380Y-97309523D01*
X172302380Y-96976190D01*
X172350000Y-96880952D01*
X172397619Y-96833333D01*
X172492857Y-96785714D01*
X172588095Y-96785714D01*
X172683333Y-96833333D01*
X172730952Y-96880952D01*
X172778571Y-96976190D01*
X172778571Y-97309523D01*
X173302380Y-95785714D02*
X173302380Y-96357142D01*
X173302380Y-96071428D02*
X172302380Y-96071428D01*
X172445238Y-96166666D01*
X172540476Y-96261904D01*
X172588095Y-96357142D01*
X176078571Y-93035333D02*
X176078571Y-93368666D01*
X176602380Y-93368666D02*
X175602380Y-93368666D01*
X175602380Y-92892476D01*
X176078571Y-92178190D02*
X176126190Y-92035333D01*
X176173809Y-91987714D01*
X176269047Y-91940095D01*
X176411904Y-91940095D01*
X176507142Y-91987714D01*
X176554761Y-92035333D01*
X176602380Y-92130571D01*
X176602380Y-92511523D01*
X175602380Y-92511523D01*
X175602380Y-92178190D01*
X175650000Y-92082952D01*
X175697619Y-92035333D01*
X175792857Y-91987714D01*
X175888095Y-91987714D01*
X175983333Y-92035333D01*
X176030952Y-92082952D01*
X176078571Y-92178190D01*
X176078571Y-92511523D01*
X175697619Y-91559142D02*
X175650000Y-91511523D01*
X175602380Y-91416285D01*
X175602380Y-91178190D01*
X175650000Y-91082952D01*
X175697619Y-91035333D01*
X175792857Y-90987714D01*
X175888095Y-90987714D01*
X176030952Y-91035333D01*
X176602380Y-91606761D01*
X176602380Y-90987714D01*
X169695380Y-96758333D02*
X170409666Y-96758333D01*
X170552523Y-96805952D01*
X170647761Y-96901190D01*
X170695380Y-97044047D01*
X170695380Y-97139285D01*
X170695380Y-95758333D02*
X170695380Y-96329761D01*
X170695380Y-96044047D02*
X169695380Y-96044047D01*
X169838238Y-96139285D01*
X169933476Y-96234523D01*
X169981095Y-96329761D01*
X185166666Y-88282380D02*
X185166666Y-88996666D01*
X185119047Y-89139523D01*
X185023809Y-89234761D01*
X184880952Y-89282380D01*
X184785714Y-89282380D01*
X185595238Y-88377619D02*
X185642857Y-88330000D01*
X185738095Y-88282380D01*
X185976190Y-88282380D01*
X186071428Y-88330000D01*
X186119047Y-88377619D01*
X186166666Y-88472857D01*
X186166666Y-88568095D01*
X186119047Y-88710952D01*
X185547619Y-89282380D01*
X186166666Y-89282380D01*
X175333333Y-103602380D02*
X175000000Y-103126190D01*
X174761904Y-103602380D02*
X174761904Y-102602380D01*
X175142857Y-102602380D01*
X175238095Y-102650000D01*
X175285714Y-102697619D01*
X175333333Y-102792857D01*
X175333333Y-102935714D01*
X175285714Y-103030952D01*
X175238095Y-103078571D01*
X175142857Y-103126190D01*
X174761904Y-103126190D01*
X176285714Y-103602380D02*
X175714285Y-103602380D01*
X176000000Y-103602380D02*
X176000000Y-102602380D01*
X175904761Y-102745238D01*
X175809523Y-102840476D01*
X175714285Y-102888095D01*
X185833333Y-100302380D02*
X185500000Y-99826190D01*
X185261904Y-100302380D02*
X185261904Y-99302380D01*
X185642857Y-99302380D01*
X185738095Y-99350000D01*
X185785714Y-99397619D01*
X185833333Y-99492857D01*
X185833333Y-99635714D01*
X185785714Y-99730952D01*
X185738095Y-99778571D01*
X185642857Y-99826190D01*
X185261904Y-99826190D01*
X186214285Y-99397619D02*
X186261904Y-99350000D01*
X186357142Y-99302380D01*
X186595238Y-99302380D01*
X186690476Y-99350000D01*
X186738095Y-99397619D01*
X186785714Y-99492857D01*
X186785714Y-99588095D01*
X186738095Y-99730952D01*
X186166666Y-100302380D01*
X186785714Y-100302380D01*
X192602380Y-86666666D02*
X192126190Y-87000000D01*
X192602380Y-87238095D02*
X191602380Y-87238095D01*
X191602380Y-86857142D01*
X191650000Y-86761904D01*
X191697619Y-86714285D01*
X191792857Y-86666666D01*
X191935714Y-86666666D01*
X192030952Y-86714285D01*
X192078571Y-86761904D01*
X192126190Y-86857142D01*
X192126190Y-87238095D01*
X191602380Y-86333333D02*
X191602380Y-85714285D01*
X191983333Y-86047619D01*
X191983333Y-85904761D01*
X192030952Y-85809523D01*
X192078571Y-85761904D01*
X192173809Y-85714285D01*
X192411904Y-85714285D01*
X192507142Y-85761904D01*
X192554761Y-85809523D01*
X192602380Y-85904761D01*
X192602380Y-86190476D01*
X192554761Y-86285714D01*
X192507142Y-86333333D01*
X180833333Y-103602380D02*
X180500000Y-103126190D01*
X180261904Y-103602380D02*
X180261904Y-102602380D01*
X180642857Y-102602380D01*
X180738095Y-102650000D01*
X180785714Y-102697619D01*
X180833333Y-102792857D01*
X180833333Y-102935714D01*
X180785714Y-103030952D01*
X180738095Y-103078571D01*
X180642857Y-103126190D01*
X180261904Y-103126190D01*
X181690476Y-102935714D02*
X181690476Y-103602380D01*
X181452380Y-102554761D02*
X181214285Y-103269047D01*
X181833333Y-103269047D01*
X169666666Y-111454761D02*
X169809523Y-111502380D01*
X170047619Y-111502380D01*
X170142857Y-111454761D01*
X170190476Y-111407142D01*
X170238095Y-111311904D01*
X170238095Y-111216666D01*
X170190476Y-111121428D01*
X170142857Y-111073809D01*
X170047619Y-111026190D01*
X169857142Y-110978571D01*
X169761904Y-110930952D01*
X169714285Y-110883333D01*
X169666666Y-110788095D01*
X169666666Y-110692857D01*
X169714285Y-110597619D01*
X169761904Y-110550000D01*
X169857142Y-110502380D01*
X170095238Y-110502380D01*
X170238095Y-110550000D01*
X170571428Y-110502380D02*
X170809523Y-111502380D01*
X171000000Y-110788095D01*
X171190476Y-111502380D01*
X171428571Y-110502380D01*
X172333333Y-111502380D02*
X171761904Y-111502380D01*
X172047619Y-111502380D02*
X172047619Y-110502380D01*
X171952380Y-110645238D01*
X171857142Y-110740476D01*
X171761904Y-110788095D01*
X187166666Y-111454761D02*
X187309523Y-111502380D01*
X187547619Y-111502380D01*
X187642857Y-111454761D01*
X187690476Y-111407142D01*
X187738095Y-111311904D01*
X187738095Y-111216666D01*
X187690476Y-111121428D01*
X187642857Y-111073809D01*
X187547619Y-111026190D01*
X187357142Y-110978571D01*
X187261904Y-110930952D01*
X187214285Y-110883333D01*
X187166666Y-110788095D01*
X187166666Y-110692857D01*
X187214285Y-110597619D01*
X187261904Y-110550000D01*
X187357142Y-110502380D01*
X187595238Y-110502380D01*
X187738095Y-110550000D01*
X188071428Y-110502380D02*
X188309523Y-111502380D01*
X188500000Y-110788095D01*
X188690476Y-111502380D01*
X188928571Y-110502380D01*
X189261904Y-110597619D02*
X189309523Y-110550000D01*
X189404761Y-110502380D01*
X189642857Y-110502380D01*
X189738095Y-110550000D01*
X189785714Y-110597619D01*
X189833333Y-110692857D01*
X189833333Y-110788095D01*
X189785714Y-110930952D01*
X189214285Y-111502380D01*
X189833333Y-111502380D01*
M02*
